NimbusRomNo9L-MediItal.ufo
<glyph name="exclam" format="1">
  <advance width="389"/>
  <unicode hex="0021"/>
  <outline>
    <contour>
      <point x="196" y="204" type="line"/>
      <point x="238" y="312"/>
      <point x="283" y="411"/>
      <point x="339" y="522" type="curve" smooth="yes"/>
      <point x="365" y="569"/>
      <point x="370" y="584"/>
      <point x="370" y="611" type="curve" smooth="yes"/>
      <point x="370" y="655"/>
      <point x="342" y="684"/>
      <point x="301" y="684" type="curve" smooth="yes"/>
      <point x="270" y="684"/>
      <point x="246" y="667"/>
      <point x="232" y="638" type="curve" smooth="yes"/>
      <point x="224" y="620"/>
      <point x="222" y="609"/>
      <point x="220" y="565" type="curve" smooth="yes"/>
      <point x="215" y="487"/>
      <point x="197" y="368"/>
      <point x="167" y="212" type="curve"/>
    </contour>
    <contour>
      <point x="140" y="133" type="curve" smooth="yes"/>
      <point x="99" y="133"/>
      <point x="67" y="100"/>
      <point x="67" y="58" type="curve" smooth="yes"/>
      <point x="67" y="17"/>
      <point x="98" y="-13"/>
      <point x="139" y="-13" type="curve" smooth="yes"/>
      <point x="180" y="-13"/>
      <point x="213" y="19"/>
      <point x="213" y="58" type="curve" smooth="yes"/>
      <point x="213" y="97"/>
      <point x="178" y="133"/>
    </contour>
  </outline>
</glyph>
<glyph name="dollar" format="1">
  <advance width="500"/>
  <unicode hex="0024"/>
  <outline>
    <contour>
      <point x="497" y="598" type="line"/>
      <point x="479" y="612" type="line"/>
      <point x="441" y="636"/>
      <point x="394" y="655"/>
      <point x="361" y="661" type="curve"/>
      <point x="381" y="733" type="line"/>
      <point x="331" y="733" type="line"/>
      <point x="313" y="668" type="line"/>
      <point x="291" y="670"/>
      <point x="283" y="670"/>
      <point x="275" y="670" type="curve" smooth="yes"/>
      <point x="164" y="670"/>
      <point x="79" y="591"/>
      <point x="79" y="488" type="curve" smooth="yes"/>
      <point x="79" y="420"/>
      <point x="105" y="384"/>
      <point x="211" y="303" type="curve"/>
      <point x="137" y="42" type="line"/>
      <point x="67" y="74"/>
      <point x="47" y="114"/>
      <point x="44" y="222" type="curve"/>
      <point x="22" y="228" type="line"/>
      <point x="-20" y="86" type="line"/>
      <point x="33" y="39"/>
      <point x="64" y="22"/>
      <point x="127" y="7" type="curve"/>
      <point x="98" y="-100" type="line"/>
      <point x="150" y="-100" type="line"/>
      <point x="178" y="0" type="line"/>
      <point x="201" y="0" type="line" smooth="yes"/>
      <point x="331" y="0"/>
      <point x="432" y="87"/>
      <point x="432" y="201" type="curve" smooth="yes"/>
      <point x="432" y="238"/>
      <point x="419" y="277"/>
      <point x="396" y="308" type="curve" smooth="yes"/>
      <point x="372" y="338"/>
      <point x="353" y="357"/>
      <point x="292" y="410" type="curve"/>
      <point x="351" y="625" type="line"/>
      <point x="411" y="605"/>
      <point x="435" y="569"/>
      <point x="435" y="500" type="curve" smooth="yes"/>
      <point x="435" y="494"/>
      <point x="435" y="481"/>
      <point x="434" y="470" type="curve"/>
      <point x="455" y="465" type="line"/>
    </contour>
    <contour>
      <point x="248" y="436" type="line"/>
      <point x="195" y="476"/>
      <point x="178" y="502"/>
      <point x="178" y="542" type="curve" smooth="yes"/>
      <point x="178" y="599"/>
      <point x="222" y="637"/>
      <point x="288" y="637" type="curve" smooth="yes"/>
      <point x="294" y="637"/>
      <point x="298" y="637"/>
      <point x="303" y="635" type="curve"/>
    </contour>
    <contour>
      <point x="253" y="274" type="line"/>
      <point x="308" y="230"/>
      <point x="323" y="204"/>
      <point x="323" y="157" type="curve" smooth="yes"/>
      <point x="323" y="101"/>
      <point x="294" y="57"/>
      <point x="247" y="39" type="curve" smooth="yes"/>
      <point x="230" y="33"/>
      <point x="221" y="32"/>
      <point x="186" y="32" type="curve"/>
    </contour>
  </outline>
</glyph>
<glyph name="percent" format="1">
  <advance width="833"/>
  <unicode hex="0025"/>
  <outline>
    <contour>
      <point x="676" y="376" type="curve" smooth="yes"/>
      <point x="627" y="376"/>
      <point x="582" y="356"/>
      <point x="539" y="316" type="curve" smooth="yes"/>
      <point x="485" y="265"/>
      <point x="450" y="192"/>
      <point x="450" y="128" type="curve" smooth="yes"/>
      <point x="450" y="45"/>
      <point x="503" y="-10"/>
      <point x="583" y="-10" type="curve" smooth="yes"/>
      <point x="628" y="-10"/>
      <point x="674" y="10"/>
      <point x="706" y="44" type="curve" smooth="yes"/>
      <point x="760" y="101"/>
      <point x="793" y="184"/>
      <point x="793" y="260" type="curve" smooth="yes"/>
      <point x="793" y="329"/>
      <point x="746" y="376"/>
    </contour>
    <contour>
      <point x="708" y="325" type="curve" smooth="yes"/>
      <point x="738" y="323"/>
      <point x="759" y="295"/>
      <point x="759" y="257" type="curve" smooth="yes"/>
      <point x="759" y="214"/>
      <point x="745" y="168"/>
      <point x="718" y="119" type="curve" smooth="yes"/>
      <point x="688" y="65"/>
      <point x="653" y="36"/>
      <point x="617" y="36" type="curve" smooth="yes"/>
      <point x="587" y="36"/>
      <point x="565" y="61"/>
      <point x="567" y="93" type="curve" smooth="yes"/>
      <point x="570" y="137"/>
      <point x="605" y="230"/>
      <point x="635" y="273" type="curve" smooth="yes"/>
      <point x="658" y="308"/>
      <point x="684" y="326"/>
    </contour>
    <contour>
      <point x="194" y="-8" type="line"/>
      <point x="250" y="-8" type="line"/>
      <point x="644" y="692" type="line"/>
      <point x="605" y="692" type="line"/>
      <point x="549" y="643"/>
      <point x="499" y="623"/>
      <point x="436" y="623" type="curve" smooth="yes"/>
      <point x="394" y="623"/>
      <point x="368" y="631"/>
      <point x="340" y="651" type="curve" smooth="yes"/>
      <point x="311" y="672"/>
      <point x="292" y="679"/>
      <point x="263" y="679" type="curve" smooth="yes"/>
      <point x="151" y="679"/>
      <point x="39" y="555"/>
      <point x="39" y="431" type="curve" smooth="yes"/>
      <point x="39" y="351"/>
      <point x="93" y="294"/>
      <point x="168" y="294" type="curve" smooth="yes"/>
      <point x="228" y="294"/>
      <point x="281" y="325"/>
      <point x="320" y="382" type="curve" smooth="yes"/>
      <point x="363" y="444"/>
      <point x="380" y="501"/>
      <point x="381" y="590" type="curve"/>
      <point x="401" y="587"/>
      <point x="414" y="585"/>
      <point x="424" y="585" type="curve" smooth="yes"/>
      <point x="461" y="585"/>
      <point x="500" y="594"/>
      <point x="543" y="612" type="curve"/>
    </contour>
    <contour>
      <point x="287" y="631" type="curve"/>
      <point x="292" y="630"/>
      <point x="295" y="629"/>
      <point x="302" y="623" type="curve"/>
      <point x="310" y="615"/>
      <point x="311" y="615"/>
      <point x="318" y="612" type="curve" smooth="yes"/>
      <point x="346" y="601"/>
      <point x="347" y="599"/>
      <point x="347" y="577" type="curve" smooth="yes"/>
      <point x="347" y="463"/>
      <point x="272" y="340"/>
      <point x="202" y="340" type="curve" smooth="yes"/>
      <point x="173" y="340"/>
      <point x="152" y="363"/>
      <point x="154" y="394" type="curve" smooth="yes"/>
      <point x="157" y="441"/>
      <point x="191" y="531"/>
      <point x="224" y="581" type="curve" smooth="yes"/>
      <point x="246" y="613"/>
      <point x="270" y="633"/>
    </contour>
  </outline>
</glyph>
<glyph name="period" format="1">
  <advance width="250"/>
  <unicode hex="002E"/>
  <outline>
    <contour>
      <point x="66" y="135" type="curve" smooth="yes"/>
      <point x="23" y="135"/>
      <point x="-9" y="103"/>
      <point x="-9" y="60" type="curve" smooth="yes"/>
      <point x="-9" y="19"/>
      <point x="23" y="-13"/>
      <point x="64" y="-13" type="curve" smooth="yes"/>
      <point x="106" y="-13"/>
      <point x="139" y="19"/>
      <point x="139" y="61" type="curve" smooth="yes"/>
      <point x="139" y="101"/>
      <point x="106" y="135"/>
    </contour>
  </outline>
</glyph>
<glyph name="slash" format="1">
  <advance width="278"/>
  <unicode hex="002F"/>
  <outline>
    <contour>
      <point x="255" y="685" type="line"/>
      <point x="-64" y="-18" type="line"/>
      <point x="23" y="-18" type="line"/>
      <point x="342" y="685" type="line"/>
    </contour>
  </outline>
</glyph>
<glyph name="zero" format="1">
  <advance width="500"/>
  <unicode hex="0030"/>
  <outline>
    <contour>
      <point x="327" y="683" type="curve" smooth="yes"/>
      <point x="272" y="683"/>
      <point x="217" y="657"/>
      <point x="172" y="611" type="curve" smooth="yes"/>
      <point x="79" y="515"/>
      <point x="17" y="354"/>
      <point x="17" y="206" type="curve" smooth="yes"/>
      <point x="17" y="73"/>
      <point x="81" y="-14"/>
      <point x="177" y="-14" type="curve" smooth="yes"/>
      <point x="219" y="-14"/>
      <point x="259" y="0"/>
      <point x="298" y="29" type="curve" smooth="yes"/>
      <point x="398" y="104"/>
      <point x="477" y="285"/>
      <point x="477" y="442" type="curve" smooth="yes"/>
      <point x="477" y="588"/>
      <point x="418" y="683"/>
    </contour>
    <contour>
      <point x="325" y="654" type="curve" smooth="yes"/>
      <point x="356" y="654"/>
      <point x="374" y="627"/>
      <point x="374" y="582" type="curve" smooth="yes"/>
      <point x="374" y="563"/>
      <point x="370" y="531"/>
      <point x="362" y="494" type="curve" smooth="yes"/>
      <point x="345" y="408"/>
      <point x="296" y="216"/>
      <point x="273" y="149" type="curve" smooth="yes"/>
      <point x="240" y="53"/>
      <point x="211" y="15"/>
      <point x="170" y="15" type="curve" smooth="yes"/>
      <point x="140" y="15"/>
      <point x="120" y="41"/>
      <point x="120" y="81" type="curve" smooth="yes"/>
      <point x="120" y="145"/>
      <point x="176" y="380"/>
      <point x="223" y="510" type="curve" smooth="yes"/>
      <point x="260" y="614"/>
      <point x="288" y="654"/>
    </contour>
  </outline>
</glyph>
<glyph name="two" format="1">
  <advance width="500"/>
  <unicode hex="0032"/>
  <outline>
    <contour>
      <point x="419" y="191" type="line"/>
      <point x="394" y="191" type="line"/>
      <point x="356" y="125"/>
      <point x="333" y="111"/>
      <point x="255" y="111" type="curve" smooth="yes"/>
      <point x="106" y="111" type="line"/>
      <point x="302" y="278" type="line" smooth="yes"/>
      <point x="396" y="358"/>
      <point x="446" y="440"/>
      <point x="446" y="515" type="curve" smooth="yes"/>
      <point x="446" y="609"/>
      <point x="374" y="683"/>
      <point x="281" y="683" type="curve" smooth="yes"/>
      <point x="228" y="683"/>
      <point x="181" y="663"/>
      <point x="137" y="623" type="curve" smooth="yes"/>
      <point x="108" y="597"/>
      <point x="92" y="573"/>
      <point x="64" y="519" type="curve"/>
      <point x="86" y="507" type="line"/>
      <point x="126" y="566"/>
      <point x="167" y="593"/>
      <point x="219" y="593" type="curve" smooth="yes"/>
      <point x="277" y="593"/>
      <point x="312" y="552"/>
      <point x="312" y="483" type="curve" smooth="yes"/>
      <point x="312" y="392"/>
      <point x="251" y="301"/>
      <point x="63" y="114" type="curve" smooth="yes"/>
      <point x="-27" y="24" type="line"/>
      <point x="-27" y="0" type="line"/>
      <point x="340" y="0" type="line"/>
    </contour>
  </outline>
</glyph>
<glyph name="three" format="1">
  <advance width="500"/>
  <unicode hex="0033"/>
  <outline>
    <contour>
      <point x="128" y="347" type="line"/>
      <point x="170" y="345"/>
      <point x="189" y="341"/>
      <point x="213" y="328" type="curve" smooth="yes"/>
      <point x="260" y="304"/>
      <point x="285" y="256"/>
      <point x="285" y="189" type="curve" smooth="yes"/>
      <point x="285" y="100"/>
      <point x="236" y="27"/>
      <point x="175" y="27" type="curve" smooth="yes"/>
      <point x="159" y="27"/>
      <point x="143" y="33"/>
      <point x="135" y="41" type="curve" smooth="yes"/>
      <point x="133" y="43"/>
      <point x="127" y="52"/>
      <point x="110" y="77" type="curve" smooth="yes"/>
      <point x="87" y="112"/>
      <point x="71" y="123"/>
      <point x="45" y="123" type="curve" smooth="yes"/>
      <point x="9" y="123"/>
      <point x="-15" y="101"/>
      <point x="-15" y="67" type="curve" smooth="yes"/>
      <point x="-15" y="18"/>
      <point x="36" y="-13"/>
      <point x="118" y="-13" type="curve" smooth="yes"/>
      <point x="279" y="-13"/>
      <point x="408" y="104"/>
      <point x="408" y="250" type="curve" smooth="yes"/>
      <point x="408" y="316"/>
      <point x="388" y="354"/>
      <point x="331" y="397" type="curve"/>
      <point x="343" y="403" type="line" smooth="yes"/>
      <point x="414" y="438"/>
      <point x="450" y="487"/>
      <point x="450" y="547" type="curve" smooth="yes"/>
      <point x="450" y="625"/>
      <point x="386" y="683"/>
      <point x="301" y="683" type="curve" smooth="yes"/>
      <point x="220" y="683"/>
      <point x="159" y="643"/>
      <point x="97" y="550" type="curve"/>
      <point x="118" y="537" type="line"/>
      <point x="159" y="594"/>
      <point x="187" y="612"/>
      <point x="234" y="612" type="curve" smooth="yes"/>
      <point x="287" y="612"/>
      <point x="321" y="577"/>
      <point x="321" y="522" type="curve" smooth="yes"/>
      <point x="321" y="445"/>
      <point x="261" y="396"/>
      <point x="132" y="369" type="curve"/>
    </contour>
  </outline>
</glyph>
<glyph name="five" format="1">
  <advance width="500"/>
  <unicode hex="0035"/>
  <outline>
    <contour>
      <point x="197" y="560" type="line"/>
      <point x="451" y="560" type="line"/>
      <point x="487" y="669" type="line"/>
      <point x="204" y="669" type="line"/>
      <point x="73" y="372" type="line"/>
      <point x="139" y="369"/>
      <point x="171" y="362"/>
      <point x="209" y="342" type="curve" smooth="yes"/>
      <point x="271" y="311"/>
      <point x="307" y="253"/>
      <point x="307" y="189" type="curve" smooth="yes"/>
      <point x="307" y="104"/>
      <point x="243" y="27"/>
      <point x="173" y="27" type="curve" smooth="yes"/>
      <point x="152" y="27"/>
      <point x="140" y="36"/>
      <point x="119" y="70" type="curve" smooth="yes"/>
      <point x="95" y="110"/>
      <point x="78" y="123"/>
      <point x="48" y="123" type="curve" smooth="yes"/>
      <point x="14" y="123"/>
      <point x="-11" y="99"/>
      <point x="-11" y="66" type="curve" smooth="yes"/>
      <point x="-11" y="19"/>
      <point x="41" y="-13"/>
      <point x="120" y="-13" type="curve" smooth="yes"/>
      <point x="284" y="-13"/>
      <point x="412" y="102"/>
      <point x="412" y="250" type="curve" smooth="yes"/>
      <point x="412" y="328"/>
      <point x="378" y="393"/>
      <point x="316" y="433" type="curve" smooth="yes"/>
      <point x="282" y="456"/>
      <point x="255" y="465"/>
      <point x="163" y="484" type="curve"/>
    </contour>
  </outline>
</glyph>
<glyph name="six" format="1">
  <advance width="500"/>
  <unicode hex="0036"/>
  <outline>
    <contour>
      <point x="503" y="679" type="line"/>
      <point x="369" y="653"/>
      <point x="305" y="628"/>
      <point x="224" y="569" type="curve" smooth="yes"/>
      <point x="98" y="475"/>
      <point x="23" y="336"/>
      <point x="23" y="195" type="curve" smooth="yes"/>
      <point x="23" y="64"/>
      <point x="88" y="-15"/>
      <point x="197" y="-15" type="curve" smooth="yes"/>
      <point x="334" y="-15"/>
      <point x="443" y="103"/>
      <point x="443" y="251" type="curve" smooth="yes"/>
      <point x="443" y="357"/>
      <point x="386" y="422"/>
      <point x="293" y="422" type="curve" smooth="yes"/>
      <point x="273" y="422"/>
      <point x="261" y="419"/>
      <point x="231" y="409" type="curve"/>
      <point x="292" y="530"/>
      <point x="374" y="604"/>
      <point x="509" y="655" type="curve"/>
    </contour>
    <contour>
      <point x="251" y="382" type="curve" smooth="yes"/>
      <point x="298" y="382"/>
      <point x="319" y="361"/>
      <point x="319" y="315" type="curve" smooth="yes"/>
      <point x="319" y="253"/>
      <point x="284" y="119"/>
      <point x="251" y="56" type="curve" smooth="yes"/>
      <point x="238" y="32"/>
      <point x="215" y="17"/>
      <point x="190" y="17" type="curve" smooth="yes"/>
      <point x="153" y="17"/>
      <point x="135" y="42"/>
      <point x="135" y="95" type="curve" smooth="yes"/>
      <point x="135" y="148"/>
      <point x="156" y="238"/>
      <point x="189" y="320" type="curve" smooth="yes"/>
      <point x="210" y="373"/>
      <point x="219" y="382"/>
    </contour>
  </outline>
</glyph>
<glyph name="seven" format="1">
  <advance width="500"/>
  <unicode hex="0037"/>
  <outline>
    <contour>
      <point x="83" y="479" type="line"/>
      <point x="120" y="544"/>
      <point x="147" y="556"/>
      <point x="251" y="556" type="curve" smooth="yes"/>
      <point x="384" y="556" type="line"/>
      <point x="52" y="0" type="line"/>
      <point x="144" y="0" type="line"/>
      <point x="525" y="669" type="line"/>
      <point x="144" y="669" type="line"/>
      <point x="57" y="479" type="line"/>
    </contour>
  </outline>
</glyph>
<glyph name="eight" format="1">
  <advance width="500"/>
  <unicode hex="0038"/>
  <outline>
    <contour>
      <point x="333" y="381" type="line"/>
      <point x="436" y="425"/>
      <point x="476" y="469"/>
      <point x="476" y="540" type="curve" smooth="yes"/>
      <point x="476" y="575"/>
      <point x="464" y="605"/>
      <point x="442" y="628" type="curve" smooth="yes"/>
      <point x="408" y="662"/>
      <point x="354" y="683"/>
      <point x="300" y="683" type="curve" smooth="yes"/>
      <point x="190" y="683"/>
      <point x="109" y="605"/>
      <point x="109" y="499" type="curve" smooth="yes"/>
      <point x="109" y="441"/>
      <point x="127" y="404"/>
      <point x="183" y="345" type="curve"/>
      <point x="183" y="340" type="line"/>
      <point x="59" y="296"/>
      <point x="3" y="238"/>
      <point x="3" y="153" type="curve" smooth="yes"/>
      <point x="3" y="54"/>
      <point x="82" y="-13"/>
      <point x="197" y="-13" type="curve" smooth="yes"/>
      <point x="325" y="-13"/>
      <point x="419" y="74"/>
      <point x="419" y="193" type="curve" smooth="yes"/>
      <point x="419" y="257"/>
      <point x="394" y="309"/>
      <point x="333" y="376" type="curve"/>
    </contour>
    <contour>
      <point x="209" y="321" type="curve"/>
      <point x="295" y="219"/>
      <point x="306" y="199"/>
      <point x="306" y="147" type="curve" smooth="yes"/>
      <point x="306" y="72"/>
      <point x="261" y="17"/>
      <point x="199" y="17" type="curve" smooth="yes"/>
      <point x="138" y="17"/>
      <point x="100" y="64"/>
      <point x="100" y="141" type="curve" smooth="yes"/>
      <point x="100" y="209"/>
      <point x="129" y="262"/>
      <point x="190" y="307" type="curve"/>
      <point x="193" y="310"/>
      <point x="193" y="310"/>
    </contour>
    <contour>
      <point x="310" y="403" type="curve"/>
      <point x="241" y="468"/>
      <point x="220" y="504"/>
      <point x="220" y="553" type="curve" smooth="yes"/>
      <point x="220" y="609"/>
      <point x="254" y="650"/>
      <point x="302" y="650" type="curve" smooth="yes"/>
      <point x="351" y="650"/>
      <point x="383" y="608"/>
      <point x="383" y="544" type="curve" smooth="yes"/>
      <point x="383" y="493"/>
      <point x="367" y="463"/>
    </contour>
  </outline>
</glyph>
<glyph name="nine" format="1">
  <advance width="500"/>
  <unicode hex="0039"/>
  <outline>
    <contour>
      <point x="-6" y="-10" type="line"/>
      <point x="129" y="15"/>
      <point x="193" y="40"/>
      <point x="273" y="99" type="curve" smooth="yes"/>
      <point x="398" y="191"/>
      <point x="475" y="334"/>
      <point x="475" y="476" type="curve" smooth="yes"/>
      <point x="475" y="542"/>
      <point x="454" y="601"/>
      <point x="417" y="639" type="curve" smooth="yes"/>
      <point x="388" y="668"/>
      <point x="348" y="683"/>
      <point x="299" y="683" type="curve" smooth="yes"/>
      <point x="161" y="683"/>
      <point x="53" y="564"/>
      <point x="53" y="412" type="curve" smooth="yes"/>
      <point x="53" y="312"/>
      <point x="114" y="245"/>
      <point x="204" y="245" type="curve" smooth="yes"/>
      <point x="226" y="245"/>
      <point x="241" y="248"/>
      <point x="265" y="259" type="curve"/>
      <point x="204" y="135"/>
      <point x="110" y="52"/>
      <point x="-12" y="15" type="curve"/>
    </contour>
    <contour>
      <point x="314" y="651" type="curve" smooth="yes"/>
      <point x="347" y="651"/>
      <point x="363" y="628"/>
      <point x="363" y="582" type="curve" smooth="yes"/>
      <point x="363" y="561"/>
      <point x="359" y="524"/>
      <point x="353" y="491" type="curve" smooth="yes"/>
      <point x="345" y="450"/>
      <point x="345" y="450"/>
      <point x="320" y="377" type="curve" smooth="yes"/>
      <point x="293" y="298"/>
      <point x="285" y="288"/>
      <point x="243" y="288" type="curve" smooth="yes"/>
      <point x="200" y="288"/>
      <point x="177" y="311"/>
      <point x="177" y="352" type="curve" smooth="yes"/>
      <point x="177" y="416"/>
      <point x="204" y="528"/>
      <point x="235" y="589" type="curve" smooth="yes"/>
      <point x="256" y="630"/>
      <point x="283" y="651"/>
    </contour>
  </outline>
</glyph>
<glyph name="colon" format="1">
  <advance width="333"/>
  <unicode hex="003A"/>
  <outline>
    <contour>
      <point x="98" y="135" type="curve" smooth="yes"/>
      <point x="56" y="135"/>
      <point x="23" y="103"/>
      <point x="23" y="61" type="curve" smooth="yes"/>
      <point x="23" y="19"/>
      <point x="55" y="-13"/>
      <point x="96" y="-13" type="curve" smooth="yes"/>
      <point x="138" y="-13"/>
      <point x="171" y="19"/>
      <point x="171" y="61" type="curve" smooth="yes"/>
      <point x="171" y="101"/>
      <point x="138" y="135"/>
    </contour>
    <contour>
      <point x="191" y="459" type="curve" smooth="yes"/>
      <point x="149" y="459"/>
      <point x="116" y="427"/>
      <point x="116" y="385" type="curve" smooth="yes"/>
      <point x="116" y="343"/>
      <point x="148" y="311"/>
      <point x="189" y="311" type="curve" smooth="yes"/>
      <point x="231" y="311"/>
      <point x="264" y="343"/>
      <point x="264" y="385" type="curve" smooth="yes"/>
      <point x="264" y="425"/>
      <point x="231" y="459"/>
    </contour>
  </outline>
</glyph>
<glyph name="question" format="1">
  <advance width="500"/>
  <unicode hex="003F"/>
  <outline>
    <contour>
      <point x="196" y="208" type="line"/>
      <point x="224" y="278"/>
      <point x="240" y="301"/>
      <point x="278" y="326" type="curve" smooth="yes"/>
      <point x="344" y="369" type="line" smooth="yes"/>
      <point x="433" y="427"/>
      <point x="470" y="477"/>
      <point x="470" y="539" type="curve" smooth="yes"/>
      <point x="470" y="626"/>
      <point x="399" y="684"/>
      <point x="294" y="684" type="curve" smooth="yes"/>
      <point x="193" y="684"/>
      <point x="119" y="630"/>
      <point x="119" y="555" type="curve" smooth="yes"/>
      <point x="119" y="517"/>
      <point x="146" y="488"/>
      <point x="180" y="488" type="curve" smooth="yes"/>
      <point x="214" y="488"/>
      <point x="241" y="515"/>
      <point x="241" y="547" type="curve" smooth="yes"/>
      <point x="241" y="562"/>
      <point x="236" y="576"/>
      <point x="223" y="593" type="curve" smooth="yes"/>
      <point x="215" y="603"/>
      <point x="212" y="609"/>
      <point x="212" y="615" type="curve" smooth="yes"/>
      <point x="212" y="634"/>
      <point x="242" y="653"/>
      <point x="274" y="653" type="curve" smooth="yes"/>
      <point x="316" y="653"/>
      <point x="343" y="622"/>
      <point x="343" y="573" type="curve" smooth="yes"/>
      <point x="343" y="526"/>
      <point x="323" y="480"/>
      <point x="279" y="425" type="curve" smooth="yes"/>
      <point x="238" y="374" type="line" smooth="yes"/>
      <point x="192" y="316"/>
      <point x="171" y="270"/>
      <point x="167" y="215" type="curve"/>
    </contour>
    <contour>
      <point x="154" y="135" type="curve" smooth="yes"/>
      <point x="112" y="135"/>
      <point x="79" y="103"/>
      <point x="79" y="61" type="curve" smooth="yes"/>
      <point x="79" y="19"/>
      <point x="111" y="-13"/>
      <point x="152" y="-13" type="curve" smooth="yes"/>
      <point x="194" y="-13"/>
      <point x="227" y="19"/>
      <point x="227" y="61" type="curve" smooth="yes"/>
      <point x="227" y="101"/>
      <point x="194" y="135"/>
    </contour>
  </outline>
</glyph>
<glyph name="at" format="1">
  <advance width="832"/>
  <unicode hex="0040"/>
  <outline>
    <contour>
      <point x="545" y="463" type="line"/>
      <point x="523" y="505"/>
      <point x="509" y="515"/>
      <point x="473" y="515" type="curve" smooth="yes"/>
      <point x="430" y="515"/>
      <point x="386" y="496"/>
      <point x="355" y="463" type="curve" smooth="yes"/>
      <point x="304" y="409"/>
      <point x="272" y="330"/>
      <point x="272" y="257" type="curve" smooth="yes"/>
      <point x="272" y="193"/>
      <point x="313" y="143"/>
      <point x="365" y="143" type="curve" smooth="yes"/>
      <point x="408" y="143"/>
      <point x="455" y="171"/>
      <point x="490" y="217" type="curve"/>
      <point x="492" y="176"/>
      <point x="534" y="142"/>
      <point x="583" y="142" type="curve" smooth="yes"/>
      <point x="683" y="142"/>
      <point x="770" y="255"/>
      <point x="770" y="387" type="curve" smooth="yes"/>
      <point x="770" y="555"/>
      <point x="624" y="685"/>
      <point x="436" y="685" type="curve" smooth="yes"/>
      <point x="228" y="685"/>
      <point x="63" y="527"/>
      <point x="63" y="328" type="curve" smooth="yes"/>
      <point x="63" y="134"/>
      <point x="228" y="-18"/>
      <point x="439" y="-18" type="curve" smooth="yes"/>
      <point x="511" y="-18"/>
      <point x="563" y="-4"/>
      <point x="660" y="41" type="curve"/>
      <point x="647" y="76" type="line"/>
      <point x="569" y="40"/>
      <point x="518" y="28"/>
      <point x="449" y="28" type="curve" smooth="yes"/>
      <point x="277" y="28"/>
      <point x="154" y="151"/>
      <point x="154" y="322" type="curve" smooth="yes"/>
      <point x="154" y="511"/>
      <point x="272" y="646"/>
      <point x="437" y="646" type="curve" smooth="yes"/>
      <point x="594" y="646"/>
      <point x="724" y="525"/>
      <point x="724" y="379" type="curve" smooth="yes"/>
      <point x="724" y="329"/>
      <point x="706" y="271"/>
      <point x="677" y="230" type="curve" smooth="yes"/>
      <point x="654" y="196"/>
      <point x="627" y="179"/>
      <point x="597" y="179" type="curve" smooth="yes"/>
      <point x="574" y="179"/>
      <point x="560" y="195"/>
      <point x="560" y="224" type="curve" smooth="yes"/>
      <point x="560" y="233"/>
      <point x="560" y="238"/>
      <point x="562" y="244" type="curve"/>
      <point x="627" y="501" type="line"/>
      <point x="556" y="501" type="line"/>
    </contour>
    <contour>
      <point x="486" y="467" type="curve" smooth="yes"/>
      <point x="515" y="465"/>
      <point x="530" y="441"/>
      <point x="528" y="402" type="curve" smooth="yes"/>
      <point x="526" y="358"/>
      <point x="509" y="298"/>
      <point x="488" y="257" type="curve" smooth="yes"/>
      <point x="466" y="215"/>
      <point x="436" y="190"/>
      <point x="407" y="190" type="curve" smooth="yes"/>
      <point x="371" y="190"/>
      <point x="348" y="223"/>
      <point x="348" y="275" type="curve" smooth="yes"/>
      <point x="348" y="329"/>
      <point x="366" y="379"/>
      <point x="399" y="417" type="curve" smooth="yes"/>
      <point x="427" y="449"/>
      <point x="461" y="469"/>
    </contour>
  </outline>
</glyph>
<glyph name="B" format="1">
  <advance width="667"/>
  <unicode hex="0042"/>
  <outline>
    <contour>
      <point x="116" y="644" type="line"/>
      <point x="152" y="642"/>
      <point x="161" y="640"/>
      <point x="173" y="633" type="curve" smooth="yes"/>
      <point x="182" y="628"/>
      <point x="189" y="615"/>
      <point x="189" y="603" type="curve" smooth="yes"/>
      <point x="189" y="593"/>
      <point x="185" y="571"/>
      <point x="178" y="546" type="curve" smooth="yes"/>
      <point x="56" y="97" type="line" smooth="yes"/>
      <point x="40" y="46"/>
      <point x="24" y="31"/>
      <point x="-24" y="25" type="curve"/>
      <point x="-24" y="0" type="line"/>
      <point x="277" y="0" type="line" smooth="yes"/>
      <point x="460" y="0"/>
      <point x="572" y="78"/>
      <point x="572" y="206" type="curve" smooth="yes"/>
      <point x="572" y="284"/>
      <point x="536" y="322"/>
      <point x="435" y="355" type="curve"/>
      <point x="511" y="374"/>
      <point x="542" y="388"/>
      <point x="577" y="417" type="curve" smooth="yes"/>
      <point x="606" y="442"/>
      <point x="624" y="482"/>
      <point x="624" y="523" type="curve" smooth="yes"/>
      <point x="624" y="619"/>
      <point x="543" y="669"/>
      <point x="388" y="669" type="curve" smooth="yes"/>
      <point x="116" y="669" type="line"/>
    </contour>
    <contour>
      <point x="269" y="338" type="line"/>
      <point x="335" y="336"/>
      <point x="365" y="330"/>
      <point x="385" y="313" type="curve" smooth="yes"/>
      <point x="407" y="295"/>
      <point x="419" y="266"/>
      <point x="419" y="229" type="curve" smooth="yes"/>
      <point x="419" y="171"/>
      <point x="395" y="108"/>
      <point x="360" y="72" type="curve" smooth="yes"/>
      <point x="333" y="45"/>
      <point x="299" y="32"/>
      <point x="255" y="32" type="curve" smooth="yes"/>
      <point x="217" y="32"/>
      <point x="198" y="43"/>
      <point x="198" y="65" type="curve" smooth="yes"/>
      <point x="198" y="72"/>
      <point x="200" y="81"/>
      <point x="203" y="94" type="curve" smooth="yes"/>
    </contour>
    <contour>
      <point x="338" y="593" type="line" smooth="yes"/>
      <point x="348" y="629"/>
      <point x="358" y="637"/>
      <point x="390" y="637" type="curve" smooth="yes"/>
      <point x="448" y="637"/>
      <point x="477" y="603"/>
      <point x="477" y="536" type="curve" smooth="yes"/>
      <point x="477" y="472"/>
      <point x="456" y="424"/>
      <point x="416" y="398" type="curve" smooth="yes"/>
      <point x="385" y="378"/>
      <point x="351" y="371"/>
      <point x="277" y="368" type="curve"/>
    </contour>
  </outline>
</glyph>
<glyph name="H" format="1">
  <advance width="778"/>
  <unicode hex="0048"/>
  <outline>
    <contour>
      <point x="657" y="25" type="line"/>
      <point x="602" y="27"/>
      <point x="584" y="37"/>
      <point x="584" y="66" type="curve" smooth="yes"/>
      <point x="584" y="80"/>
      <point x="589" y="103"/>
      <point x="603" y="153" type="curve" smooth="yes"/>
      <point x="609" y="175" type="line"/>
      <point x="718" y="572" type="line" smooth="yes"/>
      <point x="734" y="625"/>
      <point x="748" y="637"/>
      <point x="799" y="644" type="curve"/>
      <point x="799" y="669" type="line"/>
      <point x="501" y="669" type="line"/>
      <point x="501" y="644" type="line"/>
      <point x="515" y="642"/>
      <point x="528" y="640"/>
      <point x="533" y="639" type="curve"/>
      <point x="564" y="635"/>
      <point x="574" y="627"/>
      <point x="574" y="607" type="curve" smooth="yes"/>
      <point x="574" y="595"/>
      <point x="569" y="564"/>
      <point x="564" y="546" type="curve" smooth="yes"/>
      <point x="517" y="373" type="line"/>
      <point x="278" y="373" type="line"/>
      <point x="332" y="572" type="line" smooth="yes"/>
      <point x="348" y="627"/>
      <point x="368" y="642"/>
      <point x="433" y="644" type="curve"/>
      <point x="433" y="669" type="line"/>
      <point x="116" y="669" type="line"/>
      <point x="116" y="644" type="line"/>
      <point x="130" y="642"/>
      <point x="142" y="640"/>
      <point x="147" y="639" type="curve"/>
      <point x="178" y="635"/>
      <point x="189" y="626"/>
      <point x="189" y="604" type="curve" smooth="yes"/>
      <point x="189" y="593"/>
      <point x="185" y="572"/>
      <point x="178" y="546" type="curve" smooth="yes"/>
      <point x="56" y="97" type="line" smooth="yes"/>
      <point x="40" y="45"/>
      <point x="26" y="32"/>
      <point x="-24" y="25" type="curve"/>
      <point x="-24" y="0" type="line"/>
      <point x="272" y="0" type="line"/>
      <point x="272" y="25" type="line"/>
      <point x="209" y="30"/>
      <point x="199" y="36"/>
      <point x="199" y="68" type="curve" smooth="yes"/>
      <point x="199" y="82"/>
      <point x="203" y="100"/>
      <point x="212" y="132" type="curve"/>
      <point x="213" y="138"/>
      <point x="215" y="143"/>
      <point x="216" y="148" type="curve"/>
      <point x="266" y="329" type="line"/>
      <point x="505" y="329" type="line"/>
      <point x="441" y="97" type="line" smooth="yes"/>
      <point x="427" y="43"/>
      <point x="407" y="29"/>
      <point x="340" y="25" type="curve"/>
      <point x="340" y="0" type="line"/>
      <point x="657" y="0" type="line"/>
    </contour>
  </outline>
</glyph>
<glyph name="J" format="1">
  <advance width="500"/>
  <unicode hex="004A"/>
  <outline>
    <contour>
      <point x="524" y="669" type="line"/>
      <point x="227" y="669" type="line"/>
      <point x="227" y="644" type="line"/>
      <point x="241" y="642"/>
      <point x="253" y="640"/>
      <point x="258" y="639" type="curve"/>
      <point x="287" y="635"/>
      <point x="300" y="625"/>
      <point x="300" y="607" type="curve" smooth="yes"/>
      <point x="300" y="595"/>
      <point x="296" y="572"/>
      <point x="289" y="546" type="curve" smooth="yes"/>
      <point x="175" y="114" type="line" smooth="yes"/>
      <point x="136" y="-35"/>
      <point x="121" y="-63"/>
      <point x="85" y="-63" type="curve" smooth="yes"/>
      <point x="67" y="-63"/>
      <point x="58" y="-57"/>
      <point x="58" y="-45" type="curve" smooth="yes"/>
      <point x="58" y="-38"/>
      <point x="60" y="-33"/>
      <point x="68" y="-24" type="curve"/>
      <point x="78" y="-11"/>
      <point x="81" y="-5"/>
      <point x="81" y="9" type="curve" smooth="yes"/>
      <point x="81" y="44"/>
      <point x="53" y="72"/>
      <point x="18" y="72" type="curve" smooth="yes"/>
      <point x="-18" y="72"/>
      <point x="-46" y="41"/>
      <point x="-46" y="2" type="curve" smooth="yes"/>
      <point x="-46" y="-56"/>
      <point x="18" y="-99"/>
      <point x="106" y="-99" type="curve" smooth="yes"/>
      <point x="214" y="-99"/>
      <point x="280" y="-38"/>
      <point x="315" y="93" type="curve" smooth="yes"/>
      <point x="443" y="572" type="line" smooth="yes"/>
      <point x="460" y="625"/>
      <point x="475" y="638"/>
      <point x="524" y="644" type="curve"/>
    </contour>
  </outline>
</glyph>
<glyph name="K" format="1">
  <advance width="667"/>
  <unicode hex="004B"/>
  <outline>
    <contour>
      <point x="392" y="398" type="line"/>
      <point x="608" y="596" type="line" smooth="yes"/>
      <point x="651" y="635"/>
      <point x="659" y="638"/>
      <point x="702" y="644" type="curve"/>
      <point x="702" y="669" type="line"/>
      <point x="491" y="669" type="line"/>
      <point x="491" y="644" type="line"/>
      <point x="500" y="643"/>
      <point x="509" y="642"/>
      <point x="512" y="642" type="curve"/>
      <point x="537" y="639"/>
      <point x="547" y="632"/>
      <point x="547" y="617" type="curve" smooth="yes"/>
      <point x="547" y="588"/>
      <point x="479" y="520"/>
      <point x="273" y="344" type="curve"/>
      <point x="335" y="572" type="line" smooth="yes"/>
      <point x="351" y="624"/>
      <point x="370" y="639"/>
      <point x="429" y="644" type="curve"/>
      <point x="429" y="669" type="line"/>
      <point x="119" y="669" type="line"/>
      <point x="119" y="644" type="line"/>
      <point x="133" y="642"/>
      <point x="145" y="640"/>
      <point x="150" y="639" type="curve"/>
      <point x="181" y="635"/>
      <point x="192" y="626"/>
      <point x="192" y="604" type="curve" smooth="yes"/>
      <point x="192" y="593"/>
      <point x="188" y="572"/>
      <point x="181" y="546" type="curve" smooth="yes"/>
      <point x="59" y="97" type="line" smooth="yes"/>
      <point x="43" y="44"/>
      <point x="28" y="31"/>
      <point x="-21" y="25" type="curve"/>
      <point x="-21" y="0" type="line"/>
      <point x="268" y="0" type="line"/>
      <point x="268" y="25" type="line"/>
      <point x="216" y="29"/>
      <point x="202" y="38"/>
      <point x="202" y="71" type="curve" smooth="yes"/>
      <point x="202" y="77"/>
      <point x="203" y="83"/>
      <point x="204" y="88" type="curve"/>
      <point x="271" y="337" type="line"/>
      <point x="384" y="95" type="line" smooth="yes"/>
      <point x="393" y="75"/>
      <point x="397" y="63"/>
      <point x="397" y="52" type="curve" smooth="yes"/>
      <point x="397" y="38"/>
      <point x="385" y="30"/>
      <point x="359" y="28" type="curve"/>
      <point x="355" y="27"/>
      <point x="344" y="26"/>
      <point x="332" y="25" type="curve"/>
      <point x="332" y="0" type="line"/>
      <point x="612" y="0" type="line"/>
      <point x="612" y="25" type="line"/>
      <point x="574" y="29"/>
      <point x="560" y="36"/>
      <point x="549" y="60" type="curve" smooth="yes"/>
    </contour>
  </outline>
</glyph>
<glyph name="M" format="1">
  <advance width="889"/>
  <unicode hex="004D"/>
  <outline>
    <contour>
      <point x="917" y="669" type="line"/>
      <point x="705" y="669" type="line"/>
      <point x="395" y="189" type="line"/>
      <point x="341" y="669" type="line"/>
      <point x="120" y="669" type="line"/>
      <point x="120" y="644" type="line"/>
      <point x="183" y="641"/>
      <point x="192" y="637"/>
      <point x="192" y="609" type="curve" smooth="yes"/>
      <point x="192" y="596"/>
      <point x="188" y="576"/>
      <point x="181" y="551" type="curve" smooth="yes"/>
      <point x="72" y="178" type="line" smooth="yes"/>
      <point x="32" y="48"/>
      <point x="25" y="37"/>
      <point x="-29" y="25" type="curve"/>
      <point x="-29" y="0" type="line"/>
      <point x="178" y="0" type="line"/>
      <point x="178" y="25" type="line"/>
      <point x="114" y="33"/>
      <point x="98" y="45"/>
      <point x="98" y="86" type="curve" smooth="yes"/>
      <point x="98" y="102"/>
      <point x="104" y="130"/>
      <point x="117" y="178" type="curve" smooth="yes"/>
      <point x="218" y="547" type="line"/>
      <point x="285" y="-12" type="line"/>
      <point x="313" y="-12" type="line"/>
      <point x="688" y="561" type="line"/>
      <point x="563" y="97" type="line" smooth="yes"/>
      <point x="547" y="43"/>
      <point x="528" y="29"/>
      <point x="463" y="25" type="curve"/>
      <point x="463" y="0" type="line"/>
      <point x="775" y="0" type="line"/>
      <point x="775" y="25" type="line"/>
      <point x="717" y="28"/>
      <point x="703" y="36"/>
      <point x="703" y="68" type="curve" smooth="yes"/>
      <point x="703" y="78"/>
      <point x="705" y="92"/>
      <point x="711" y="113" type="curve"/>
      <point x="712" y="118" type="line"/>
      <point x="713" y="123" type="line"/>
      <point x="836" y="572" type="line" smooth="yes"/>
      <point x="851" y="624"/>
      <point x="866" y="638"/>
      <point x="917" y="644" type="curve"/>
    </contour>
  </outline>
</glyph>
<glyph name="P" format="1">
  <advance width="611"/>
  <unicode hex="0050"/>
  <outline>
    <contour>
      <point x="113" y="644" type="line"/>
      <point x="127" y="642"/>
      <point x="139" y="640"/>
      <point x="144" y="639" type="curve"/>
      <point x="175" y="636"/>
      <point x="186" y="627"/>
      <point x="186" y="606" type="curve" smooth="yes"/>
      <point x="186" y="592"/>
      <point x="182" y="568"/>
      <point x="176" y="546" type="curve" smooth="yes"/>
      <point x="53" y="97" type="line" smooth="yes"/>
      <point x="37" y="44"/>
      <point x="25" y="33"/>
      <point x="-27" y="25" type="curve"/>
      <point x="-27" y="0" type="line"/>
      <point x="267" y="0" type="line"/>
      <point x="267" y="25" type="line"/>
      <point x="211" y="28"/>
      <point x="195" y="37"/>
      <point x="195" y="64" type="curve" smooth="yes"/>
      <point x="195" y="74"/>
      <point x="201" y="107"/>
      <point x="205" y="123" type="curve" smooth="yes"/>
      <point x="259" y="322" type="line"/>
      <point x="295" y="318"/>
      <point x="314" y="317"/>
      <point x="340" y="317" type="curve" smooth="yes"/>
      <point x="506" y="317"/>
      <point x="613" y="394"/>
      <point x="613" y="514" type="curve" smooth="yes"/>
      <point x="613" y="615"/>
      <point x="539" y="669"/>
      <point x="400" y="669" type="curve" smooth="yes"/>
      <point x="113" y="669" type="line"/>
    </contour>
    <contour>
      <point x="333" y="593" type="line" smooth="yes"/>
      <point x="340" y="617"/>
      <point x="340" y="617"/>
      <point x="344" y="622" type="curve" smooth="yes"/>
      <point x="353" y="633"/>
      <point x="364" y="637"/>
      <point x="383" y="637" type="curve" smooth="yes"/>
      <point x="436" y="637"/>
      <point x="467" y="604"/>
      <point x="467" y="546" type="curve" smooth="yes"/>
      <point x="467" y="511"/>
      <point x="458" y="465"/>
      <point x="444" y="434" type="curve" smooth="yes"/>
      <point x="418" y="375"/>
      <point x="381" y="352"/>
      <point x="311" y="352" type="curve" smooth="yes"/>
      <point x="297" y="352"/>
      <point x="286" y="353"/>
      <point x="269" y="354" type="curve"/>
    </contour>
  </outline>
</glyph>
<glyph name="Q" format="1">
  <advance width="722"/>
  <unicode hex="0051"/>
  <outline>
    <contour>
      <point x="634" y="-40" type="line"/>
      <point x="576" y="-99"/>
      <point x="539" y="-118"/>
      <point x="479" y="-118" type="curve" smooth="yes"/>
      <point x="453" y="-118"/>
      <point x="432" y="-114"/>
      <point x="396" y="-103" type="curve" smooth="yes"/>
      <point x="354" y="-90" type="line" smooth="yes"/>
      <point x="330" y="-82"/>
      <point x="286" y="-75"/>
      <point x="244" y="-72" type="curve" smooth="yes"/>
      <point x="216" y="-70"/>
      <point x="206" y="-68"/>
      <point x="206" y="-64" type="curve" smooth="yes"/>
      <point x="206" y="-62"/>
      <point x="231" y="-37"/>
      <point x="252" y="-17" type="curve"/>
      <point x="382" y="-9"/>
      <point x="437" y="11"/>
      <point x="514" y="80" type="curve" smooth="yes"/>
      <point x="624" y="179"/>
      <point x="691" y="319"/>
      <point x="691" y="452" type="curve" smooth="yes"/>
      <point x="691" y="587"/>
      <point x="589" y="685"/>
      <point x="449" y="685" type="curve" smooth="yes"/>
      <point x="233" y="685"/>
      <point x="27" y="454"/>
      <point x="27" y="211" type="curve" smooth="yes"/>
      <point x="27" y="146"/>
      <point x="52" y="86"/>
      <point x="97" y="44" type="curve" smooth="yes"/>
      <point x="123" y="19"/>
      <point x="136" y="12"/>
      <point x="189" y="-7" type="curve" smooth="yes"/>
      <point x="197" y="-10"/>
      <point x="200" y="-12"/>
      <point x="203" y="-16" type="curve"/>
      <point x="201" y="-19"/>
      <point x="200" y="-21"/>
      <point x="198" y="-23" type="curve" smooth="yes"/>
      <point x="197" y="-24"/>
      <point x="192" y="-28"/>
      <point x="184" y="-35" type="curve" smooth="yes"/>
      <point x="28" y="-165" type="line"/>
      <point x="42" y="-189" type="line"/>
      <point x="97" y="-168"/>
      <point x="124" y="-161"/>
      <point x="156" y="-161" type="curve" smooth="yes"/>
      <point x="185" y="-161"/>
      <point x="208" y="-166"/>
      <point x="260" y="-182" type="curve" smooth="yes"/>
      <point x="322" y="-202"/>
      <point x="355" y="-208"/>
      <point x="396" y="-208" type="curve" smooth="yes"/>
      <point x="505" y="-208"/>
      <point x="574" y="-168"/>
      <point x="655" y="-59" type="curve"/>
    </contour>
    <contour>
      <point x="445" y="651" type="curve" smooth="yes"/>
      <point x="506" y="651"/>
      <point x="547" y="603"/>
      <point x="547" y="531" type="curve" smooth="yes"/>
      <point x="547" y="411"/>
      <point x="485" y="212"/>
      <point x="418" y="114" type="curve" smooth="yes"/>
      <point x="372" y="47"/>
      <point x="327" y="17"/>
      <point x="273" y="17" type="curve" smooth="yes"/>
      <point x="210" y="17"/>
      <point x="171" y="63"/>
      <point x="171" y="136" type="curve" smooth="yes"/>
      <point x="171" y="239"/>
      <point x="222" y="423"/>
      <point x="277" y="520" type="curve" smooth="yes"/>
      <point x="328" y="610"/>
      <point x="381" y="651"/>
    </contour>
  </outline>
</glyph>
<glyph name="X" format="1">
  <advance width="667"/>
  <unicode hex="0058"/>
  <outline>
    <contour>
      <point x="586" y="25" type="line"/>
      <point x="514" y="33"/>
      <point x="499" y="47"/>
      <point x="470" y="141" type="curve" smooth="yes"/>
      <point x="396" y="378" type="line"/>
      <point x="595" y="583" type="line" smooth="yes"/>
      <point x="639" y="627"/>
      <point x="658" y="639"/>
      <point x="694" y="644" type="curve"/>
      <point x="694" y="669" type="line"/>
      <point x="491" y="669" type="line"/>
      <point x="491" y="644" type="line"/>
      <point x="501" y="643"/>
      <point x="509" y="642"/>
      <point x="513" y="642" type="curve"/>
      <point x="536" y="640"/>
      <point x="546" y="633"/>
      <point x="546" y="618" type="curve" smooth="yes"/>
      <point x="546" y="600"/>
      <point x="527" y="574"/>
      <point x="476" y="520" type="curve" smooth="yes"/>
      <point x="382" y="421" type="line"/>
      <point x="371" y="458" type="line" smooth="yes"/>
      <point x="369" y="465"/>
      <point x="367" y="471"/>
      <point x="365" y="476" type="curve"/>
      <point x="342" y="549"/>
      <point x="331" y="591"/>
      <point x="331" y="605" type="curve" smooth="yes"/>
      <point x="331" y="628"/>
      <point x="342" y="637"/>
      <point x="375" y="641" type="curve"/>
      <point x="380" y="641"/>
      <point x="391" y="642"/>
      <point x="405" y="644" type="curve"/>
      <point x="405" y="669" type="line"/>
      <point x="100" y="669" type="line"/>
      <point x="100" y="644" type="line"/>
      <point x="160" y="638"/>
      <point x="175" y="627"/>
      <point x="191" y="581" type="curve" smooth="yes"/>
      <point x="275" y="309" type="line"/>
      <point x="207" y="235" type="line" smooth="yes"/>
      <point x="49" y="61"/>
      <point x="18" y="33"/>
      <point x="-24" y="25" type="curve"/>
      <point x="-24" y="0" type="line"/>
      <point x="190" y="0" type="line"/>
      <point x="190" y="25" type="line"/>
      <point x="145" y="29"/>
      <point x="125" y="42"/>
      <point x="125" y="65" type="curve" smooth="yes"/>
      <point x="125" y="78"/>
      <point x="133" y="92"/>
      <point x="155" y="116" type="curve" smooth="yes"/>
      <point x="289" y="264" type="line"/>
      <point x="293" y="250"/>
      <point x="295" y="243"/>
      <point x="308" y="204" type="curve" smooth="yes"/>
      <point x="335" y="127"/>
      <point x="346" y="84"/>
      <point x="346" y="63" type="curve" smooth="yes"/>
      <point x="346" y="38"/>
      <point x="332" y="30"/>
      <point x="278" y="25" type="curve"/>
      <point x="278" y="0" type="line"/>
      <point x="586" y="0" type="line"/>
    </contour>
  </outline>
</glyph>
<glyph name="backslash" format="1">
  <advance width="278"/>
  <unicode hex="005C"/>
  <outline>
    <contour>
      <point x="-1" y="685" type="line"/>
      <point x="195" y="-18" type="line"/>
      <point x="279" y="-18" type="line"/>
      <point x="84" y="685" type="line"/>
    </contour>
  </outline>
</glyph>
<glyph name="bracketright" format="1">
  <advance width="333"/>
  <unicode hex="005D"/>
  <outline>
    <contour>
      <point x="-49" y="-122" type="line"/>
      <point x="-56" y="-157" type="line"/>
      <point x="143" y="-157" type="line"/>
      <point x="343" y="674" type="line"/>
      <point x="123" y="674" type="line"/>
      <point x="116" y="639" type="line"/>
      <point x="194" y="639" type="line" smooth="yes"/>
      <point x="216" y="639"/>
      <point x="232" y="628"/>
      <point x="229" y="616" type="curve" smooth="yes"/>
      <point x="71" y="-61" type="line" smooth="yes"/>
      <point x="57" y="-119"/>
      <point x="55" y="-122"/>
      <point x="19" y="-122" type="curve" smooth="yes"/>
    </contour>
  </outline>
</glyph>
<glyph name="asciicircum" format="1">
  <advance width="570"/>
  <unicode hex="005E"/>
  <outline>
    <contour>
      <point x="156" y="304" type="line"/>
      <point x="285" y="576" type="line"/>
      <point x="414" y="304" type="line"/>
      <point x="503" y="304" type="line"/>
      <point x="325" y="669" type="line"/>
      <point x="245" y="669" type="line"/>
      <point x="67" y="304" type="line"/>
    </contour>
  </outline>
</glyph>
<glyph name="grave" format="1">
  <advance width="333"/>
  <unicode hex="0060"/>
  <outline>
    <contour>
      <point x="297" y="516" type="line"/>
      <point x="186" y="663" type="line" smooth="yes"/>
      <point x="170" y="684"/>
      <point x="149" y="697"/>
      <point x="130" y="697" type="curve" smooth="yes"/>
      <point x="106" y="697"/>
      <point x="85" y="676"/>
      <point x="85" y="652" type="curve" smooth="yes"/>
      <point x="85" y="637"/>
      <point x="97" y="620"/>
      <point x="119" y="605" type="curve" smooth="yes"/>
      <point x="252" y="516" type="line"/>
    </contour>
  </outline>
</glyph>
<glyph name="b" format="1">
  <advance width="500"/>
  <unicode hex="0062"/>
  <outline>
    <contour>
      <point x="76" y="642" type="line"/>
      <point x="125" y="642"/>
      <point x="139" y="635"/>
      <point x="139" y="612" type="curve" smooth="yes"/>
      <point x="139" y="599"/>
      <point x="126" y="546"/>
      <point x="100" y="455" type="curve" smooth="yes"/>
      <point x="6" y="128" type="line" smooth="yes"/>
      <point x="-3" y="96"/>
      <point x="-14" y="52"/>
      <point x="-14" y="47" type="curve" smooth="yes"/>
      <point x="-14" y="19"/>
      <point x="59" y="-13"/>
      <point x="124" y="-13" type="curve" smooth="yes"/>
      <point x="287" y="-13"/>
      <point x="444" y="159"/>
      <point x="444" y="338" type="curve" smooth="yes"/>
      <point x="444" y="411"/>
      <point x="398" y="462"/>
      <point x="332" y="462" type="curve" smooth="yes"/>
      <point x="281" y="462"/>
      <point x="245" y="438"/>
      <point x="194" y="371" type="curve"/>
      <point x="284" y="699" type="line"/>
      <point x="214" y="686"/>
      <point x="165" y="679"/>
      <point x="76" y="669" type="curve"/>
    </contour>
    <contour>
      <point x="275" y="394" type="curve" smooth="yes"/>
      <point x="304" y="394"/>
      <point x="319" y="371"/>
      <point x="319" y="325" type="curve" smooth="yes"/>
      <point x="319" y="266"/>
      <point x="292" y="173"/>
      <point x="256" y="111" type="curve" smooth="yes"/>
      <point x="222" y="51"/>
      <point x="183" y="20"/>
      <point x="140" y="20" type="curve" smooth="yes"/>
      <point x="122" y="20"/>
      <point x="109" y="32"/>
      <point x="109" y="47" type="curve" smooth="yes"/>
      <point x="109" y="56"/>
      <point x="127" y="138"/>
      <point x="135" y="170" type="curve" smooth="yes"/>
      <point x="146" y="209"/>
      <point x="169" y="272"/>
      <point x="184" y="307" type="curve" smooth="yes"/>
      <point x="210" y="364"/>
      <point x="242" y="394"/>
    </contour>
  </outline>
</glyph>
<glyph name="d" format="1">
  <advance width="500"/>
  <unicode hex="0064"/>
  <outline>
    <contour>
      <point x="427" y="131" type="line"/>
      <point x="400" y="86"/>
      <point x="375" y="59"/>
      <point x="360" y="59" type="curve" smooth="yes"/>
      <point x="355" y="59"/>
      <point x="349" y="65"/>
      <point x="349" y="71" type="curve" smooth="yes"/>
      <point x="349" y="80"/>
      <point x="371" y="167"/>
      <point x="406" y="294" type="curve" smooth="yes"/>
      <point x="517" y="699" type="line"/>
      <point x="457" y="685"/>
      <point x="408" y="678"/>
      <point x="308" y="670" type="curve"/>
      <point x="308" y="643" type="line"/>
      <point x="329" y="643" type="line" smooth="yes"/>
      <point x="355" y="643"/>
      <point x="370" y="633"/>
      <point x="370" y="615" type="curve" smooth="yes"/>
      <point x="370" y="606"/>
      <point x="364" y="581"/>
      <point x="341" y="497" type="curve" smooth="yes"/>
      <point x="323" y="429" type="line"/>
      <point x="299" y="453"/>
      <point x="280" y="462"/>
      <point x="251" y="462" type="curve" smooth="yes"/>
      <point x="129" y="462"/>
      <point x="-21" y="269"/>
      <point x="-21" y="112" type="curve" smooth="yes"/>
      <point x="-21" y="40"/>
      <point x="24" y="-13"/>
      <point x="85" y="-13" type="curve" smooth="yes"/>
      <point x="148" y="-13"/>
      <point x="194" y="23"/>
      <point x="251" y="118" type="curve"/>
      <point x="243" y="81"/>
      <point x="240" y="66"/>
      <point x="240" y="51" type="curve" smooth="yes"/>
      <point x="240" y="12"/>
      <point x="262" y="-11"/>
      <point x="300" y="-11" type="curve" smooth="yes"/>
      <point x="349" y="-11"/>
      <point x="394" y="27"/>
      <point x="449" y="115" type="curve"/>
    </contour>
    <contour>
      <point x="271" y="420" type="curve" smooth="yes"/>
      <point x="293" y="419"/>
      <point x="308" y="398"/>
      <point x="308" y="370" type="curve" smooth="yes"/>
      <point x="308" y="328"/>
      <point x="264" y="196"/>
      <point x="230" y="133" type="curve" smooth="yes"/>
      <point x="202" y="84"/>
      <point x="173" y="59"/>
      <point x="144" y="59" type="curve" smooth="yes"/>
      <point x="119" y="59"/>
      <point x="101" y="87"/>
      <point x="103" y="122" type="curve" smooth="yes"/>
      <point x="106" y="176"/>
      <point x="137" y="268"/>
      <point x="173" y="333" type="curve" smooth="yes"/>
      <point x="205" y="390"/>
      <point x="241" y="422"/>
    </contour>
  </outline>
</glyph>
<glyph name="i" format="1">
  <advance width="278"/>
  <unicode hex="0069"/>
  <outline>
    <contour>
      <point x="216" y="141" type="line"/>
      <point x="202" y="121" type="line" smooth="yes"/>
      <point x="176" y="82"/>
      <point x="153" y="61"/>
      <point x="138" y="61" type="curve" smooth="yes"/>
      <point x="130" y="61"/>
      <point x="123" y="68"/>
      <point x="123" y="76" type="curve" smooth="yes"/>
      <point x="123" y="82"/>
      <point x="129" y="116"/>
      <point x="132" y="128" type="curve" smooth="yes"/>
      <point x="223" y="462" type="line"/>
      <point x="169" y="450"/>
      <point x="99" y="440"/>
      <point x="21" y="434" type="curve"/>
      <point x="21" y="407" type="line"/>
      <point x="64" y="407"/>
      <point x="80" y="399"/>
      <point x="80" y="378" type="curve" smooth="yes"/>
      <point x="80" y="370"/>
      <point x="77" y="355"/>
      <point x="73" y="338" type="curve" smooth="yes"/>
      <point x="15" y="123" type="line" smooth="yes"/>
      <point x="7" y="95"/>
      <point x="2" y="67"/>
      <point x="2" y="54" type="curve" smooth="yes"/>
      <point x="2" y="17"/>
      <point x="30" y="-9"/>
      <point x="71" y="-9" type="curve" smooth="yes"/>
      <point x="131" y="-9"/>
      <point x="168" y="22"/>
      <point x="238" y="127" type="curve"/>
    </contour>
    <contour>
      <point x="194" y="685" type="curve" smooth="yes"/>
      <point x="159" y="685"/>
      <point x="128" y="654"/>
      <point x="128" y="619" type="curve" smooth="yes"/>
      <point x="128" y="580"/>
      <point x="157" y="550"/>
      <point x="194" y="550" type="curve" smooth="yes"/>
      <point x="232" y="550"/>
      <point x="263" y="580"/>
      <point x="263" y="617" type="curve" smooth="yes"/>
      <point x="263" y="654"/>
      <point x="231" y="685"/>
    </contour>
  </outline>
</glyph>
<glyph name="j" format="1">
  <advance width="278"/>
  <unicode hex="006A"/>
  <outline>
    <contour>
      <point x="31" y="407" type="line"/>
      <point x="81" y="407"/>
      <point x="93" y="402"/>
      <point x="93" y="376" type="curve" smooth="yes"/>
      <point x="93" y="364"/>
      <point x="88" y="339"/>
      <point x="81" y="310" type="curve" smooth="yes"/>
      <point x="-11" y="-45" type="line" smooth="yes"/>
      <point x="-37" y="-145"/>
      <point x="-54" y="-176"/>
      <point x="-82" y="-176" type="curve" smooth="yes"/>
      <point x="-93" y="-176"/>
      <point x="-106" y="-169"/>
      <point x="-106" y="-164" type="curve" smooth="yes"/>
      <point x="-106" y="-162"/>
      <point x="-105" y="-160"/>
      <point x="-104" y="-158" type="curve"/>
      <point x="-93" y="-142"/>
      <point x="-91" y="-137"/>
      <point x="-91" y="-126" type="curve" smooth="yes"/>
      <point x="-91" y="-99"/>
      <point x="-113" y="-77"/>
      <point x="-140" y="-77" type="curve" smooth="yes"/>
      <point x="-166" y="-77"/>
      <point x="-189" y="-101"/>
      <point x="-189" y="-130" type="curve" smooth="yes"/>
      <point x="-189" y="-176"/>
      <point x="-146" y="-207"/>
      <point x="-84" y="-207" type="curve" smooth="yes"/>
      <point x="16" y="-207"/>
      <point x="85" y="-131"/>
      <point x="125" y="24" type="curve" smooth="yes"/>
      <point x="239" y="462" type="line"/>
      <point x="180" y="449"/>
      <point x="143" y="444"/>
      <point x="31" y="434" type="curve"/>
    </contour>
    <contour>
      <point x="210" y="685" type="curve" smooth="yes"/>
      <point x="175" y="685"/>
      <point x="144" y="654"/>
      <point x="144" y="619" type="curve" smooth="yes"/>
      <point x="144" y="580"/>
      <point x="173" y="550"/>
      <point x="210" y="550" type="curve" smooth="yes"/>
      <point x="248" y="550"/>
      <point x="279" y="580"/>
      <point x="279" y="617" type="curve" smooth="yes"/>
      <point x="279" y="654"/>
      <point x="248" y="685"/>
    </contour>
  </outline>
</glyph>
<glyph name="l" format="1">
  <advance width="278"/>
  <unicode hex="006C"/>
  <outline>
    <contour>
      <point x="216" y="141" type="line"/>
      <point x="176" y="82"/>
      <point x="155" y="61"/>
      <point x="138" y="61" type="curve" smooth="yes"/>
      <point x="130" y="61"/>
      <point x="123" y="68"/>
      <point x="123" y="76" type="curve" smooth="yes"/>
      <point x="123" y="90"/>
      <point x="131" y="124"/>
      <point x="145" y="176" type="curve" smooth="yes"/>
      <point x="290" y="699" type="line"/>
      <point x="204" y="682"/>
      <point x="156" y="676"/>
      <point x="81" y="669" type="curve"/>
      <point x="81" y="642" type="line"/>
      <point x="92" y="643"/>
      <point x="98" y="643"/>
      <point x="102" y="643" type="curve" smooth="yes"/>
      <point x="129" y="643"/>
      <point x="144" y="633"/>
      <point x="144" y="615" type="curve" smooth="yes"/>
      <point x="144" y="602"/>
      <point x="130" y="540"/>
      <point x="110" y="473" type="curve" smooth="yes"/>
      <point x="36" y="209" type="line" smooth="yes"/>
      <point x="14" y="133"/>
      <point x="2" y="75"/>
      <point x="2" y="51" type="curve" smooth="yes"/>
      <point x="2" y="15"/>
      <point x="29" y="-9"/>
      <point x="69" y="-9" type="curve" smooth="yes"/>
      <point x="131" y="-9"/>
      <point x="169" y="22"/>
      <point x="238" y="127" type="curve"/>
    </contour>
  </outline>
</glyph>
<glyph name="m" format="1">
  <advance width="778"/>
  <unicode hex="006D"/>
  <outline>
    <contour>
      <point x="34" y="407" type="line"/>
      <point x="42" y="407" type="line" smooth="yes"/>
      <point x="74" y="407"/>
      <point x="88" y="399"/>
      <point x="88" y="381" type="curve" smooth="yes"/>
      <point x="88" y="367"/>
      <point x="80" y="333"/>
      <point x="53" y="238" type="curve" smooth="yes"/>
      <point x="-14" y="0" type="line"/>
      <point x="107" y="0" type="line"/>
      <point x="160" y="190"/>
      <point x="198" y="276"/>
      <point x="254" y="343" type="curve" smooth="yes"/>
      <point x="276" y="368"/>
      <point x="305" y="389"/>
      <point x="318" y="389" type="curve" smooth="yes"/>
      <point x="328" y="389"/>
      <point x="337" y="379"/>
      <point x="337" y="366" type="curve" smooth="yes"/>
      <point x="337" y="351"/>
      <point x="325" y="309"/>
      <point x="292" y="207" type="curve" smooth="yes"/>
      <point x="227" y="0" type="line"/>
      <point x="347" y="0" type="line"/>
      <point x="406" y="192"/>
      <point x="412" y="210"/>
      <point x="448" y="273" type="curve" smooth="yes"/>
      <point x="490" y="347"/>
      <point x="530" y="389"/>
      <point x="560" y="389" type="curve" smooth="yes"/>
      <point x="572" y="389"/>
      <point x="583" y="379"/>
      <point x="583" y="368" type="curve" smooth="yes"/>
      <point x="583" y="362"/>
      <point x="580" y="351"/>
      <point x="576" y="338" type="curve" smooth="yes"/>
      <point x="531" y="207" type="line" smooth="yes"/>
      <point x="509" y="144"/>
      <point x="495" y="82"/>
      <point x="495" y="54" type="curve" smooth="yes"/>
      <point x="495" y="13"/>
      <point x="519" y="-9"/>
      <point x="562" y="-9" type="curve" smooth="yes"/>
      <point x="624" y="-9"/>
      <point x="664" y="24"/>
      <point x="722" y="122" type="curve"/>
      <point x="700" y="135" type="line"/>
      <point x="695" y="127"/>
      <point x="690" y="120"/>
      <point x="688" y="117" type="curve" smooth="yes"/>
      <point x="665" y="81"/>
      <point x="644" y="59"/>
      <point x="631" y="59" type="curve" smooth="yes"/>
      <point x="622" y="59"/>
      <point x="615" y="66"/>
      <point x="615" y="73" type="curve" smooth="yes"/>
      <point x="615" y="84"/>
      <point x="615" y="84"/>
      <point x="636" y="151" type="curve" smooth="yes"/>
      <point x="681" y="284" type="line" smooth="yes"/>
      <point x="696" y="327"/>
      <point x="704" y="365"/>
      <point x="704" y="391" type="curve" smooth="yes"/>
      <point x="704" y="431"/>
      <point x="671" y="462"/>
      <point x="627" y="462" type="curve" smooth="yes"/>
      <point x="559" y="462"/>
      <point x="513" y="422"/>
      <point x="429" y="290" type="curve"/>
      <point x="448" y="340"/>
      <point x="455" y="366"/>
      <point x="455" y="394" type="curve" smooth="yes"/>
      <point x="455" y="436"/>
      <point x="430" y="462"/>
      <point x="388" y="462" type="curve" smooth="yes"/>
      <point x="360" y="462"/>
      <point x="330" y="451"/>
      <point x="302" y="428" type="curve" smooth="yes"/>
      <point x="265" y="400"/>
      <point x="235" y="362"/>
      <point x="170" y="262" type="curve"/>
      <point x="234" y="461" type="line"/>
      <point x="170" y="446"/>
      <point x="149" y="443"/>
      <point x="34" y="434" type="curve"/>
    </contour>
  </outline>
</glyph>
<glyph name="o" format="1">
  <advance width="500"/>
  <unicode hex="006F"/>
  <outline>
    <contour>
      <point x="284" y="462" type="curve" smooth="yes"/>
      <point x="137" y="462"/>
      <point x="-3" y="303"/>
      <point x="-3" y="135" type="curve" smooth="yes"/>
      <point x="-3" y="50"/>
      <point x="64" y="-13"/>
      <point x="156" y="-13" type="curve" smooth="yes"/>
      <point x="305" y="-13"/>
      <point x="441" y="142"/>
      <point x="441" y="311" type="curve" smooth="yes"/>
      <point x="441" y="399"/>
      <point x="375" y="462"/>
    </contour>
    <contour>
      <point x="275" y="433" type="curve" smooth="yes"/>
      <point x="304" y="433"/>
      <point x="322" y="411"/>
      <point x="322" y="375" type="curve" smooth="yes"/>
      <point x="322" y="307"/>
      <point x="291" y="177"/>
      <point x="259" y="107" type="curve" smooth="yes"/>
      <point x="230" y="45"/>
      <point x="200" y="16"/>
      <point x="165" y="16" type="curve" smooth="yes"/>
      <point x="135" y="16"/>
      <point x="116" y="40"/>
      <point x="116" y="78" type="curve" smooth="yes"/>
      <point x="116" y="156"/>
      <point x="153" y="302"/>
      <point x="188" y="364" type="curve" smooth="yes"/>
      <point x="214" y="410"/>
      <point x="243" y="433"/>
    </contour>
  </outline>
</glyph>
<glyph name="p" format="1">
  <advance width="500"/>
  <unicode hex="0070"/>
  <outline>
    <contour>
      <point x="23" y="407" type="line"/>
      <point x="68" y="405"/>
      <point x="77" y="401"/>
      <point x="77" y="382" type="curve" smooth="yes"/>
      <point x="77" y="373"/>
      <point x="68" y="333"/>
      <point x="55" y="284" type="curve" smooth="yes"/>
      <point x="-45" y="-104" type="line" smooth="yes"/>
      <point x="-61" y="-165"/>
      <point x="-73" y="-178"/>
      <point x="-114" y="-178" type="curve" smooth="yes"/>
      <point x="-120" y="-178" type="line"/>
      <point x="-120" y="-205" type="line"/>
      <point x="129" y="-205" type="line"/>
      <point x="129" y="-178" type="line"/>
      <point x="80" y="-177"/>
      <point x="64" y="-169"/>
      <point x="64" y="-145" type="curve" smooth="yes"/>
      <point x="64" y="-133"/>
      <point x="72" y="-100"/>
      <point x="90" y="-32" type="curve" smooth="yes"/>
      <point x="98" y="-4" type="line"/>
      <point x="101" y="9" type="line"/>
      <point x="136" y="-9"/>
      <point x="148" y="-13"/>
      <point x="169" y="-13" type="curve" smooth="yes"/>
      <point x="304" y="-13"/>
      <point x="446" y="168"/>
      <point x="446" y="341" type="curve" smooth="yes"/>
      <point x="446" y="415"/>
      <point x="404" y="462"/>
      <point x="338" y="462" type="curve" smooth="yes"/>
      <point x="281" y="462"/>
      <point x="237" y="430"/>
      <point x="178" y="347" type="curve"/>
      <point x="216" y="462" type="line"/>
      <point x="114" y="446"/>
      <point x="75" y="440"/>
      <point x="23" y="434" type="curve"/>
    </contour>
    <contour>
      <point x="282" y="391" type="curve" smooth="yes"/>
      <point x="308" y="389"/>
      <point x="323" y="366"/>
      <point x="321" y="334" type="curve" smooth="yes"/>
      <point x="317" y="269"/>
      <point x="285" y="169"/>
      <point x="249" y="104" type="curve" smooth="yes"/>
      <point x="218" y="50"/>
      <point x="185" y="22"/>
      <point x="152" y="22" type="curve" smooth="yes"/>
      <point x="130" y="22"/>
      <point x="113" y="38"/>
      <point x="113" y="58" type="curve" smooth="yes"/>
      <point x="113" y="74"/>
      <point x="121" y="104"/>
      <point x="148" y="195" type="curve" smooth="yes"/>
      <point x="172" y="277"/>
      <point x="182" y="305"/>
      <point x="198" y="329" type="curve" smooth="yes"/>
      <point x="223" y="368"/>
      <point x="256" y="393"/>
    </contour>
  </outline>
</glyph>
<glyph name="q" format="1">
  <advance width="500"/>
  <unicode hex="0071"/>
  <outline>
    <contour>
      <point x="371" y="-178" type="line"/>
      <point x="357" y="-178" type="line" smooth="yes"/>
      <point x="321" y="-178"/>
      <point x="306" y="-170"/>
      <point x="306" y="-150" type="curve" smooth="yes"/>
      <point x="306" y="-134"/>
      <point x="344" y="5"/>
      <point x="386" y="145" type="curve" smooth="yes"/>
      <point x="410" y="223"/>
      <point x="429" y="294"/>
      <point x="471" y="449" type="curve"/>
      <point x="362" y="449" type="line"/>
      <point x="347" y="390" type="line"/>
      <point x="342" y="418"/>
      <point x="339" y="429"/>
      <point x="330" y="440" type="curve"/>
      <point x="320" y="454"/>
      <point x="299" y="462"/>
      <point x="276" y="462" type="curve" smooth="yes"/>
      <point x="200" y="462"/>
      <point x="112" y="394"/>
      <point x="53" y="292" type="curve" smooth="yes"/>
      <point x="19" y="231"/>
      <point x="1" y="172"/>
      <point x="1" y="117" type="curve" smooth="yes"/>
      <point x="1" y="37"/>
      <point x="41" y="-13"/>
      <point x="105" y="-13" type="curve" smooth="yes"/>
      <point x="165" y="-13"/>
      <point x="205" y="16"/>
      <point x="257" y="98" type="curve"/>
      <point x="194" y="-115" type="line" smooth="yes"/>
      <point x="177" y="-167"/>
      <point x="166" y="-175"/>
      <point x="104" y="-178" type="curve"/>
      <point x="104" y="-205" type="line"/>
      <point x="371" y="-205" type="line"/>
    </contour>
    <contour>
      <point x="290" y="419" type="curve" smooth="yes"/>
      <point x="312" y="417"/>
      <point x="325" y="399"/>
      <point x="325" y="371" type="curve" smooth="yes"/>
      <point x="325" y="318"/>
      <point x="288" y="195"/>
      <point x="253" y="133" type="curve" smooth="yes"/>
      <point x="225" y="83"/>
      <point x="196" y="59"/>
      <point x="165" y="59" type="curve" smooth="yes"/>
      <point x="139" y="59"/>
      <point x="126" y="78"/>
      <point x="126" y="116" type="curve" smooth="yes"/>
      <point x="126" y="172"/>
      <point x="155" y="262"/>
      <point x="195" y="334" type="curve" smooth="yes"/>
      <point x="227" y="390"/>
      <point x="262" y="421"/>
    </contour>
  </outline>
</glyph>
<glyph name="t" format="1">
  <advance width="278"/>
  <unicode hex="0074"/>
  <outline>
    <contour>
      <point x="281" y="449" type="line"/>
      <point x="209" y="449" type="line"/>
      <point x="248" y="594" type="line"/>
      <point x="213" y="594" type="line"/>
      <point x="159" y="513"/>
      <point x="109" y="472"/>
      <point x="30" y="442" type="curve"/>
      <point x="30" y="407" type="line"/>
      <point x="81" y="407" type="line"/>
      <point x="13" y="169" type="line" smooth="yes"/>
      <point x="-1" y="118"/>
      <point x="-11" y="73"/>
      <point x="-11" y="56" type="curve" smooth="yes"/>
      <point x="-11" y="17"/>
      <point x="17" y="-9"/>
      <point x="59" y="-9" type="curve" smooth="yes"/>
      <point x="119" y="-9"/>
      <point x="159" y="24"/>
      <point x="225" y="127" type="curve"/>
      <point x="203" y="141" type="line"/>
      <point x="169" y="88"/>
      <point x="143" y="61"/>
      <point x="127" y="61" type="curve" smooth="yes"/>
      <point x="119" y="61"/>
      <point x="111" y="69"/>
      <point x="111" y="76" type="curve" smooth="yes"/>
      <point x="111" y="94"/>
      <point x="129" y="167"/>
      <point x="165" y="289" type="curve" smooth="yes"/>
      <point x="198" y="407" type="line"/>
      <point x="281" y="407" type="line"/>
    </contour>
  </outline>
</glyph>
<glyph name="v" format="1">
  <advance width="444"/>
  <unicode hex="0076"/>
  <outline>
    <contour>
      <point x="16" y="407" type="line"/>
      <point x="47" y="407"/>
      <point x="56" y="404"/>
      <point x="62" y="391" type="curve"/>
      <point x="79" y="359"/>
      <point x="90" y="271"/>
      <point x="90" y="164" type="curve" smooth="yes"/>
      <point x="90" y="160"/>
      <point x="90" y="144"/>
      <point x="89" y="123" type="curve" smooth="yes"/>
      <point x="85" y="-13" type="line"/>
      <point x="111" y="-13" type="line"/>
      <point x="238" y="108"/>
      <point x="285" y="161"/>
      <point x="340" y="241" type="curve" smooth="yes"/>
      <point x="380" y="299"/>
      <point x="401" y="353"/>
      <point x="401" y="395" type="curve" smooth="yes"/>
      <point x="401" y="430"/>
      <point x="371" y="462"/>
      <point x="340" y="462" type="curve" smooth="yes"/>
      <point x="311" y="462"/>
      <point x="284" y="434"/>
      <point x="284" y="404" type="curve" smooth="yes"/>
      <point x="284" y="387"/>
      <point x="291" y="373"/>
      <point x="308" y="353" type="curve" smooth="yes"/>
      <point x="323" y="336"/>
      <point x="328" y="326"/>
      <point x="328" y="316" type="curve" smooth="yes"/>
      <point x="328" y="281"/>
      <point x="301" y="240"/>
      <point x="202" y="128" type="curve"/>
      <point x="198" y="324"/>
      <point x="192" y="382"/>
      <point x="171" y="462" type="curve"/>
      <point x="122" y="450"/>
      <point x="99" y="446"/>
      <point x="16" y="434" type="curve"/>
    </contour>
  </outline>
</glyph>
<glyph name="w" format="1">
  <advance width="667"/>
  <unicode hex="0077"/>
  <outline>
    <contour>
      <point x="16" y="407" type="line"/>
      <point x="41" y="407"/>
      <point x="50" y="406"/>
      <point x="58" y="399" type="curve" smooth="yes"/>
      <point x="78" y="381"/>
      <point x="92" y="288"/>
      <point x="95" y="150" type="curve" smooth="yes"/>
      <point x="97" y="72" type="line" smooth="yes"/>
      <point x="97" y="68"/>
      <point x="97" y="67"/>
      <point x="96" y="32" type="curve" smooth="yes"/>
      <point x="95" y="-13" type="line"/>
      <point x="122" y="-13" type="line"/>
      <point x="179" y="73" type="line"/>
      <point x="185" y="81"/>
      <point x="229" y="158"/>
      <point x="273" y="237" type="curve" smooth="yes"/>
      <point x="292" y="272" type="line"/>
      <point x="315" y="-13" type="line"/>
      <point x="342" y="-13" type="line"/>
      <point x="527" y="183"/>
      <point x="614" y="316"/>
      <point x="614" y="400" type="curve" smooth="yes"/>
      <point x="614" y="433"/>
      <point x="585" y="462"/>
      <point x="553" y="462" type="curve" smooth="yes"/>
      <point x="523" y="462"/>
      <point x="497" y="434"/>
      <point x="497" y="402" type="curve" smooth="yes"/>
      <point x="497" y="388"/>
      <point x="503" y="374"/>
      <point x="518" y="353" type="curve" smooth="yes"/>
      <point x="532" y="334"/>
      <point x="538" y="321"/>
      <point x="538" y="311" type="curve" smooth="yes"/>
      <point x="538" y="281"/>
      <point x="508" y="235"/>
      <point x="419" y="130" type="curve"/>
      <point x="387" y="462" type="line"/>
      <point x="360" y="462" type="line"/>
      <point x="204" y="187" type="line"/>
      <point x="201" y="312"/>
      <point x="194" y="376"/>
      <point x="171" y="462" type="curve"/>
      <point x="130" y="453"/>
      <point x="99" y="448"/>
      <point x="16" y="434" type="curve"/>
    </contour>
  </outline>
</glyph>
<glyph name="x" format="1">
  <advance width="500"/>
  <unicode hex="0078"/>
  <outline>
    <contour>
      <point x="400" y="123" type="line"/>
      <point x="361" y="73"/>
      <point x="351" y="64"/>
      <point x="333" y="64" type="curve" smooth="yes"/>
      <point x="314" y="64"/>
      <point x="304" y="79"/>
      <point x="296" y="117" type="curve" smooth="yes"/>
      <point x="264" y="273" type="line"/>
      <point x="267" y="277"/>
      <point x="268" y="278"/>
      <point x="273" y="286" type="curve" smooth="yes"/>
      <point x="308" y="344"/>
      <point x="333" y="368"/>
      <point x="356" y="368" type="curve" smooth="yes"/>
      <point x="362" y="368"/>
      <point x="369" y="365"/>
      <point x="381" y="359" type="curve"/>
      <point x="395" y="350"/>
      <point x="402" y="348"/>
      <point x="413" y="348" type="curve" smooth="yes"/>
      <point x="443" y="348"/>
      <point x="469" y="372"/>
      <point x="469" y="400" type="curve" smooth="yes"/>
      <point x="469" y="433"/>
      <point x="441" y="462"/>
      <point x="411" y="462" type="curve" smooth="yes"/>
      <point x="364" y="462"/>
      <point x="333" y="435"/>
      <point x="253" y="324" type="curve"/>
      <point x="235" y="409"/>
      <point x="227" y="434"/>
      <point x="208" y="462" type="curve"/>
      <point x="41" y="438" type="line"/>
      <point x="41" y="411" type="line"/>
      <point x="62" y="413"/>
      <point x="67" y="413"/>
      <point x="76" y="413" type="curve" smooth="yes"/>
      <point x="108" y="413"/>
      <point x="122" y="395"/>
      <point x="132" y="346" type="curve" smooth="yes"/>
      <point x="162" y="192" type="line"/>
      <point x="118" y="122" type="line" smooth="yes"/>
      <point x="98" y="90"/>
      <point x="87" y="81"/>
      <point x="70" y="81" type="curve" smooth="yes"/>
      <point x="64" y="81"/>
      <point x="59" y="83"/>
      <point x="49" y="89" type="curve" smooth="yes"/>
      <point x="33" y="98"/>
      <point x="21" y="102"/>
      <point x="9" y="102" type="curve" smooth="yes"/>
      <point x="-22" y="102"/>
      <point x="-46" y="77"/>
      <point x="-46" y="46" type="curve" smooth="yes"/>
      <point x="-46" y="11"/>
      <point x="-20" y="-13"/>
      <point x="18" y="-13" type="curve" smooth="yes"/>
      <point x="68" y="-13"/>
      <point x="91" y="7"/>
      <point x="149" y="103" type="curve" smooth="yes"/>
      <point x="173" y="142" type="line"/>
      <point x="188" y="67"/>
      <point x="196" y="41"/>
      <point x="218" y="13" type="curve" smooth="yes"/>
      <point x="230" y="-3"/>
      <point x="250" y="-13"/>
      <point x="270" y="-13" type="curve" smooth="yes"/>
      <point x="318" y="-13"/>
      <point x="360" y="21"/>
      <point x="421" y="109" type="curve"/>
    </contour>
  </outline>
</glyph>
<glyph name="z" format="1">
  <advance width="389"/>
  <unicode hex="007A"/>
  <outline>
    <contour>
      <point x="13" y="295" type="line"/>
      <point x="41" y="292" type="line"/>
      <point x="58" y="338"/>
      <point x="74" y="353"/>
      <point x="104" y="353" type="curve" smooth="yes"/>
      <point x="249" y="353" type="line"/>
      <point x="-43" y="-1" type="line"/>
      <point x="-18" y="-23" type="line"/>
      <point x="-10" y="-17"/>
      <point x="-2" y="-12"/>
      <point x="1" y="-9" type="curve"/>
      <point x="16" y="2"/>
      <point x="23" y="5"/>
      <point x="34" y="5" type="curve" smooth="yes"/>
      <point x="52" y="5"/>
      <point x="72" y="-4"/>
      <point x="107" y="-28" type="curve" smooth="yes"/>
      <point x="161" y="-64"/>
      <point x="198" y="-78"/>
      <point x="238" y="-78" type="curve" smooth="yes"/>
      <point x="299" y="-78"/>
      <point x="346" y="-38"/>
      <point x="346" y="13" type="curve" smooth="yes"/>
      <point x="346" y="41"/>
      <point x="321" y="65"/>
      <point x="293" y="65" type="curve" smooth="yes"/>
      <point x="266" y="65"/>
      <point x="243" y="41"/>
      <point x="243" y="13" type="curve" smooth="yes"/>
      <point x="243" y="2"/>
      <point x="247" y="-6"/>
      <point x="256" y="-18" type="curve" smooth="yes"/>
      <point x="261" y="-25"/>
      <point x="263" y="-30"/>
      <point x="263" y="-33" type="curve" smooth="yes"/>
      <point x="263" y="-42"/>
      <point x="253" y="-49"/>
      <point x="241" y="-49" type="curve" smooth="yes"/>
      <point x="223" y="-49"/>
      <point x="211" y="-37"/>
      <point x="194" y="-2" type="curve" smooth="yes"/>
      <point x="162" y="59"/>
      <point x="138" y="82"/>
      <point x="87" y="104" type="curve"/>
      <point x="368" y="439" type="line"/>
      <point x="368" y="449" type="line"/>
      <point x="56" y="449" type="line"/>
    </contour>
  </outline>
</glyph>
<glyph name="braceright" format="1">
  <advance width="348"/>
  <unicode hex="007D"/>
  <outline>
    <contour>
      <point x="-129" y="-187" type="line"/>
      <point x="30" y="-187"/>
      <point x="88" y="-154"/>
      <point x="119" y="-45" type="curve" smooth="yes"/>
      <point x="165" y="134" type="line" smooth="yes"/>
      <point x="185" y="206"/>
      <point x="213" y="230"/>
      <point x="302" y="250" type="curve"/>
      <point x="240" y="266"/>
      <point x="218" y="285"/>
      <point x="218" y="320" type="curve" smooth="yes"/>
      <point x="218" y="344"/>
      <point x="228" y="388"/>
      <point x="244" y="436" type="curve" smooth="yes"/>
      <point x="263" y="493"/>
      <point x="279" y="567"/>
      <point x="279" y="598" type="curve" smooth="yes"/>
      <point x="279" y="621"/>
      <point x="271" y="640"/>
      <point x="254" y="655" type="curve" smooth="yes"/>
      <point x="229" y="676"/>
      <point x="190" y="684"/>
      <point x="97" y="686" type="curve"/>
      <point x="94" y="674" type="line"/>
      <point x="151" y="663"/>
      <point x="175" y="641"/>
      <point x="175" y="597" type="curve" smooth="yes"/>
      <point x="175" y="572"/>
      <point x="165" y="526"/>
      <point x="144" y="456" type="curve" smooth="yes"/>
      <point x="125" y="390"/>
      <point x="116" y="348"/>
      <point x="116" y="326" type="curve" smooth="yes"/>
      <point x="116" y="284"/>
      <point x="133" y="270"/>
      <point x="208" y="250" type="curve"/>
      <point x="110" y="231"/>
      <point x="80" y="205"/>
      <point x="57" y="120" type="curve" smooth="yes"/>
      <point x="12" y="-51" type="line" smooth="yes"/>
      <point x="-8" y="-127"/>
      <point x="-45" y="-160"/>
      <point x="-126" y="-175" type="curve"/>
    </contour>
  </outline>
</glyph>
<glyph name="brokenbar" format="1">
  <advance width="220"/>
  <unicode hex="00A6"/>
  <outline>
    <contour>
      <point x="66" y="-18" type="line"/>
      <point x="154" y="-18" type="line"/>
      <point x="154" y="241" type="line"/>
      <point x="66" y="241" type="line"/>
    </contour>
    <contour>
      <point x="66" y="426" type="line"/>
      <point x="154" y="426" type="line"/>
      <point x="154" y="685" type="line"/>
      <point x="66" y="685" type="line"/>
    </contour>
  </outline>
</glyph>
<glyph name="dieresis" format="1">
  <advance width="333"/>
  <unicode hex="00A8"/>
  <outline>
    <contour>
      <point x="119" y="655" type="curve" smooth="yes"/>
      <point x="84" y="655"/>
      <point x="55" y="625"/>
      <point x="55" y="589" type="curve" smooth="yes"/>
      <point x="55" y="555"/>
      <point x="85" y="525"/>
      <point x="119" y="525" type="curve" smooth="yes"/>
      <point x="154" y="525"/>
      <point x="185" y="555"/>
      <point x="185" y="589" type="curve" smooth="yes"/>
      <point x="185" y="625"/>
      <point x="155" y="655"/>
    </contour>
    <contour>
      <point x="331" y="655" type="curve" smooth="yes"/>
      <point x="296" y="655"/>
      <point x="267" y="625"/>
      <point x="267" y="589" type="curve" smooth="yes"/>
      <point x="267" y="555"/>
      <point x="297" y="525"/>
      <point x="331" y="525" type="curve" smooth="yes"/>
      <point x="366" y="525"/>
      <point x="397" y="555"/>
      <point x="397" y="589" type="curve" smooth="yes"/>
      <point x="397" y="625"/>
      <point x="367" y="655"/>
    </contour>
  </outline>
</glyph>
<glyph name="copyright" format="1">
  <advance width="747"/>
  <unicode hex="00A9"/>
  <outline>
    <contour>
      <point x="526" y="250" type="line"/>
      <point x="497" y="189"/>
      <point x="461" y="163"/>
      <point x="403" y="163" type="curve" smooth="yes"/>
      <point x="315" y="163"/>
      <point x="265" y="228"/>
      <point x="265" y="342" type="curve" smooth="yes"/>
      <point x="265" y="454"/>
      <point x="314" y="518"/>
      <point x="400" y="518" type="curve" smooth="yes"/>
      <point x="461" y="518"/>
      <point x="497" y="488"/>
      <point x="510" y="428" type="curve"/>
      <point x="527" y="428" type="line"/>
      <point x="527" y="499" type="line" smooth="yes"/>
      <point x="527" y="508"/>
      <point x="520" y="514"/>
      <point x="505" y="520" type="curve" smooth="yes"/>
      <point x="468" y="533"/>
      <point x="441" y="538"/>
      <point x="405" y="538" type="curve" smooth="yes"/>
      <point x="269" y="538"/>
      <point x="180" y="457"/>
      <point x="180" y="335" type="curve" smooth="yes"/>
      <point x="180" y="214"/>
      <point x="262" y="140"/>
      <point x="396" y="140" type="curve" smooth="yes"/>
      <point x="429" y="140"/>
      <point x="487" y="152"/>
      <point x="515" y="164" type="curve"/>
      <point x="524" y="167"/>
      <point x="525" y="168"/>
      <point x="527" y="178" type="curve" smooth="yes"/>
      <point x="544" y="250" type="line"/>
    </contour>
    <contour>
      <point x="374" y="685" type="curve" smooth="yes"/>
      <point x="182" y="685"/>
      <point x="30" y="529"/>
      <point x="30" y="332" type="curve" smooth="yes"/>
      <point x="30" y="139"/>
      <point x="182" y="-18"/>
      <point x="369" y="-18" type="curve" smooth="yes"/>
      <point x="568" y="-18"/>
      <point x="718" y="134"/>
      <point x="718" y="334" type="curve" smooth="yes"/>
      <point x="718" y="530"/>
      <point x="566" y="685"/>
    </contour>
    <contour>
      <point x="374" y="639" type="curve" smooth="yes"/>
      <point x="528" y="639"/>
      <point x="657" y="500"/>
      <point x="657" y="334" type="curve" smooth="yes"/>
      <point x="657" y="164"/>
      <point x="530" y="28"/>
      <point x="370" y="28" type="curve" smooth="yes"/>
      <point x="220" y="28"/>
      <point x="91" y="168"/>
      <point x="91" y="333" type="curve" smooth="yes"/>
      <point x="91" y="501"/>
      <point x="219" y="639"/>
    </contour>
  </outline>
</glyph>
<glyph name="ordfeminine" format="1">
  <advance width="266"/>
  <unicode hex="00AA"/>
  <outline>
    <contour>
      <point x="313" y="484" type="line"/>
      <point x="310" y="481"/>
      <point x="310" y="481"/>
      <point x="308" y="478" type="curve"/>
      <point x="289" y="456"/>
      <point x="274" y="442"/>
      <point x="267" y="442" type="curve" smooth="yes"/>
      <point x="264" y="442"/>
      <point x="262" y="446"/>
      <point x="262" y="451" type="curve" smooth="yes"/>
      <point x="262" y="467"/>
      <point x="268" y="493"/>
      <point x="284" y="540" type="curve" smooth="yes"/>
      <point x="330" y="680" type="line"/>
      <point x="254" y="676" type="line"/>
      <point x="243" y="640" type="line"/>
      <point x="236" y="672"/>
      <point x="222" y="685"/>
      <point x="196" y="685" type="curve" smooth="yes"/>
      <point x="114" y="685"/>
      <point x="16" y="572"/>
      <point x="16" y="476" type="curve" smooth="yes"/>
      <point x="16" y="431"/>
      <point x="45" y="400"/>
      <point x="86" y="400" type="curve" smooth="yes"/>
      <point x="130" y="400"/>
      <point x="159" y="423"/>
      <point x="196" y="488" type="curve"/>
      <point x="186" y="454"/>
      <point x="185" y="448"/>
      <point x="185" y="437" type="curve" smooth="yes"/>
      <point x="185" y="417"/>
      <point x="206" y="399"/>
      <point x="229" y="399" type="curve" smooth="yes"/>
      <point x="259" y="399"/>
      <point x="288" y="422"/>
      <point x="326" y="475" type="curve"/>
    </contour>
    <contour>
      <point x="198" y="658" type="curve" smooth="yes"/>
      <point x="209" y="657"/>
      <point x="218" y="645"/>
      <point x="218" y="630" type="curve" smooth="yes"/>
      <point x="218" y="601"/>
      <point x="199" y="539"/>
      <point x="179" y="502" type="curve" smooth="yes"/>
      <point x="160" y="466"/>
      <point x="137" y="445"/>
      <point x="118" y="445" type="curve" smooth="yes"/>
      <point x="105" y="445"/>
      <point x="94" y="458"/>
      <point x="94" y="473" type="curve" smooth="yes"/>
      <point x="94" y="538"/>
      <point x="163" y="662"/>
    </contour>
  </outline>
</glyph>
<glyph name="guillemotleft" format="1">
  <advance width="500"/>
  <unicode hex="00AB"/>
  <outline>
    <contour>
      <point x="137" y="220" type="line"/>
      <point x="182" y="269" type="line" smooth="yes"/>
      <point x="252" y="341"/>
      <point x="283" y="382"/>
      <point x="283" y="403" type="curve" smooth="yes"/>
      <point x="283" y="409"/>
      <point x="277" y="415"/>
      <point x="270" y="415" type="curve" smooth="yes"/>
      <point x="262" y="415"/>
      <point x="248" y="405"/>
      <point x="229" y="387" type="curve" smooth="yes"/>
      <point x="216" y="375"/>
      <point x="206" y="367"/>
      <point x="182" y="350" type="curve" smooth="yes"/>
      <point x="12" y="226" type="line"/>
      <point x="12" y="217" type="line"/>
      <point x="87" y="141"/>
      <point x="158" y="67"/>
      <point x="180" y="42" type="curve" smooth="yes"/>
      <point x="187" y="34"/>
      <point x="190" y="32"/>
      <point x="195" y="32" type="curve" smooth="yes"/>
      <point x="203" y="32"/>
      <point x="210" y="39"/>
      <point x="210" y="47" type="curve" smooth="yes"/>
      <point x="210" y="62"/>
      <point x="200" y="90"/>
      <point x="177" y="137" type="curve" smooth="yes"/>
    </contour>
    <contour>
      <point x="322" y="220" type="line"/>
      <point x="367" y="269" type="line" smooth="yes"/>
      <point x="437" y="341"/>
      <point x="468" y="382"/>
      <point x="468" y="403" type="curve" smooth="yes"/>
      <point x="468" y="409"/>
      <point x="462" y="415"/>
      <point x="455" y="415" type="curve" smooth="yes"/>
      <point x="447" y="415"/>
      <point x="433" y="405"/>
      <point x="414" y="387" type="curve" smooth="yes"/>
      <point x="401" y="375"/>
      <point x="391" y="367"/>
      <point x="367" y="350" type="curve" smooth="yes"/>
      <point x="197" y="226" type="line"/>
      <point x="197" y="217" type="line"/>
      <point x="272" y="141"/>
      <point x="343" y="67"/>
      <point x="365" y="42" type="curve" smooth="yes"/>
      <point x="372" y="34"/>
      <point x="375" y="32"/>
      <point x="380" y="32" type="curve" smooth="yes"/>
      <point x="388" y="32"/>
      <point x="395" y="39"/>
      <point x="395" y="47" type="curve" smooth="yes"/>
      <point x="395" y="62"/>
      <point x="385" y="90"/>
      <point x="362" y="137" type="curve" smooth="yes"/>
    </contour>
  </outline>
</glyph>
<glyph name="logicalnot" format="1">
  <advance width="606"/>
  <unicode hex="00AC"/>
  <outline>
    <contour>
      <point x="467" y="108" type="line"/>
      <point x="555" y="108" type="line"/>
      <point x="555" y="399" type="line"/>
      <point x="51" y="399" type="line"/>
      <point x="51" y="311" type="line"/>
      <point x="467" y="311" type="line"/>
    </contour>
  </outline>
</glyph>
<glyph name="macron" format="1">
  <advance width="333"/>
  <unicode hex="00AF"/>
  <outline>
    <contour>
      <point x="393" y="623" type="line"/>
      <point x="68" y="623" type="line"/>
      <point x="51" y="553" type="line"/>
      <point x="377" y="553" type="line"/>
    </contour>
  </outline>
</glyph>
<glyph name="plusminus" format="1">
  <advance width="570"/>
  <unicode hex="00B1"/>
  <outline>
    <contour>
      <point x="241" y="359" type="line"/>
      <point x="33" y="359" type="line"/>
      <point x="33" y="271" type="line"/>
      <point x="241" y="271" type="line"/>
      <point x="241" y="128" type="line"/>
      <point x="329" y="128" type="line"/>
      <point x="329" y="271" type="line"/>
      <point x="537" y="271" type="line"/>
      <point x="537" y="359" type="line"/>
      <point x="329" y="359" type="line"/>
      <point x="329" y="568" type="line"/>
      <point x="241" y="568" type="line"/>
    </contour>
    <contour>
      <point x="33" y="0" type="line"/>
      <point x="537" y="0" type="line"/>
      <point x="537" y="88" type="line"/>
      <point x="33" y="88" type="line"/>
    </contour>
  </outline>
</glyph>
<glyph name="paragraph" format="1">
  <advance width="500"/>
  <unicode hex="00B6"/>
  <outline>
    <contour>
      <point x="330" y="644" type="line"/>
      <point x="385" y="644" type="line"/>
      <point x="168" y="-193" type="line"/>
      <point x="339" y="-193" type="line"/>
      <point x="346" y="-168" type="line"/>
      <point x="336" y="-167"/>
      <point x="326" y="-166"/>
      <point x="323" y="-166" type="curve"/>
      <point x="286" y="-162"/>
      <point x="272" y="-155"/>
      <point x="273" y="-141" type="curve"/>
      <point x="281" y="-101"/>
      <point x="285" y="-84"/>
      <point x="289" y="-68" type="curve" smooth="yes"/>
      <point x="458" y="581" type="line" smooth="yes"/>
      <point x="472" y="635"/>
      <point x="475" y="637"/>
      <point x="556" y="644" type="curve"/>
      <point x="562" y="669" type="line"/>
      <point x="267" y="669" type="line" smooth="yes"/>
      <point x="178" y="669"/>
      <point x="113" y="647"/>
      <point x="72" y="603" type="curve" smooth="yes"/>
      <point x="29" y="557"/>
      <point x="-4" y="464"/>
      <point x="-4" y="388" type="curve" smooth="yes"/>
      <point x="-4" y="343"/>
      <point x="13" y="304"/>
      <point x="43" y="283" type="curve" smooth="yes"/>
      <point x="68" y="266"/>
      <point x="91" y="260"/>
      <point x="141" y="258" type="curve"/>
      <point x="56" y="-68" type="line" smooth="yes"/>
      <point x="40" y="-130"/>
      <point x="35" y="-144"/>
      <point x="27" y="-150" type="curve"/>
      <point x="16" y="-160"/>
      <point x="-1" y="-164"/>
      <point x="-50" y="-168" type="curve"/>
      <point x="-57" y="-193" type="line"/>
      <point x="113" y="-193" type="line"/>
    </contour>
    <contour>
      <point x="147" y="283" type="line"/>
      <point x="101" y="302"/>
      <point x="75" y="342"/>
      <point x="75" y="394" type="curve" smooth="yes"/>
      <point x="75" y="448"/>
      <point x="95" y="518"/>
      <point x="123" y="564" type="curve" smooth="yes"/>
      <point x="152" y="611"/>
      <point x="178" y="628"/>
      <point x="241" y="644" type="curve"/>
    </contour>
  </outline>
</glyph>
<glyph name="ordmasculine" format="1">
  <advance width="300"/>
  <unicode hex="00BA"/>
  <outline>
    <contour>
      <point x="243" y="685" type="curve" smooth="yes"/>
      <point x="148" y="685"/>
      <point x="56" y="589"/>
      <point x="56" y="489" type="curve" smooth="yes"/>
      <point x="56" y="438"/>
      <point x="101" y="400"/>
      <point x="162" y="400" type="curve" smooth="yes"/>
      <point x="254" y="400"/>
      <point x="342" y="488"/>
      <point x="347" y="587" type="curve" smooth="yes"/>
      <point x="350" y="644"/>
      <point x="306" y="685"/>
    </contour>
    <contour>
      <point x="241" y="665" type="curve" smooth="yes"/>
      <point x="258" y="664"/>
      <point x="267" y="650"/>
      <point x="266" y="627" type="curve" smooth="yes"/>
      <point x="264" y="584"/>
      <point x="248" y="523"/>
      <point x="229" y="483" type="curve" smooth="yes"/>
      <point x="208" y="440"/>
      <point x="188" y="420"/>
      <point x="165" y="420" type="curve" smooth="yes"/>
      <point x="148" y="420"/>
      <point x="137" y="433"/>
      <point x="137" y="455" type="curve" smooth="yes"/>
      <point x="137" y="499"/>
      <point x="158" y="576"/>
      <point x="181" y="617" type="curve" smooth="yes"/>
      <point x="198" y="648"/>
      <point x="221" y="666"/>
    </contour>
  </outline>
</glyph>
<glyph name="guillemotright" format="1">
  <advance width="500"/>
  <unicode hex="00BB"/>
  <outline>
    <contour>
      <point x="343" y="227" type="line"/>
      <point x="298" y="178" type="line" smooth="yes"/>
      <point x="227" y="105"/>
      <point x="197" y="65"/>
      <point x="197" y="44" type="curve" smooth="yes"/>
      <point x="197" y="38"/>
      <point x="203" y="32"/>
      <point x="210" y="32" type="curve" smooth="yes"/>
      <point x="218" y="32"/>
      <point x="232" y="41"/>
      <point x="251" y="60" type="curve"/>
      <point x="264" y="71"/>
      <point x="274" y="80"/>
      <point x="298" y="97" type="curve" smooth="yes"/>
      <point x="468" y="221" type="line"/>
      <point x="468" y="230" type="line"/>
      <point x="380" y="319"/>
      <point x="339" y="361"/>
      <point x="300" y="405" type="curve" smooth="yes"/>
      <point x="293" y="413"/>
      <point x="290" y="415"/>
      <point x="285" y="415" type="curve" smooth="yes"/>
      <point x="277" y="415"/>
      <point x="270" y="408"/>
      <point x="270" y="400" type="curve" smooth="yes"/>
      <point x="270" y="385"/>
      <point x="280" y="358"/>
      <point x="303" y="310" type="curve" smooth="yes"/>
    </contour>
    <contour>
      <point x="158" y="227" type="line"/>
      <point x="113" y="178" type="line" smooth="yes"/>
      <point x="42" y="105"/>
      <point x="12" y="65"/>
      <point x="12" y="44" type="curve" smooth="yes"/>
      <point x="12" y="38"/>
      <point x="18" y="32"/>
      <point x="25" y="32" type="curve" smooth="yes"/>
      <point x="33" y="32"/>
      <point x="47" y="41"/>
      <point x="66" y="60" type="curve"/>
      <point x="79" y="71"/>
      <point x="89" y="80"/>
      <point x="113" y="97" type="curve" smooth="yes"/>
      <point x="283" y="221" type="line"/>
      <point x="283" y="230" type="line"/>
      <point x="195" y="319"/>
      <point x="154" y="361"/>
      <point x="115" y="405" type="curve" smooth="yes"/>
      <point x="108" y="413"/>
      <point x="105" y="415"/>
      <point x="100" y="415" type="curve" smooth="yes"/>
      <point x="92" y="415"/>
      <point x="85" y="408"/>
      <point x="85" y="400" type="curve" smooth="yes"/>
      <point x="85" y="385"/>
      <point x="95" y="358"/>
      <point x="118" y="310" type="curve" smooth="yes"/>
    </contour>
  </outline>
</glyph>
<glyph name="onequarter" format="1">
  <advance width="750"/>
  <unicode hex="00BC"/>
  <outline>
    <contour>
      <point x="688" y="149" type="line"/>
      <point x="643" y="149" type="line"/>
      <point x="721" y="410" type="line"/>
      <point x="675" y="410" type="line"/>
      <point x="397" y="155" type="line"/>
      <point x="381" y="88" type="line"/>
      <point x="540" y="88" type="line"/>
      <point x="513" y="0" type="line"/>
      <point x="599" y="0" type="line"/>
      <point x="627" y="88" type="line"/>
      <point x="671" y="88" type="line"/>
    </contour>
    <contour>
      <point x="425" y="149" type="line"/>
      <point x="609" y="319" type="line"/>
      <point x="557" y="149" type="line"/>
    </contour>
    <contour>
      <point x="629" y="683" type="line"/>
      <point x="571" y="683" type="line"/>
      <point x="136" y="-14" type="line"/>
      <point x="194" y="-14" type="line"/>
    </contour>
    <contour>
      <point x="7" y="274" type="line"/>
      <point x="231" y="274" type="line"/>
      <point x="231" y="293" type="line"/>
      <point x="182" y="293"/>
      <point x="172" y="297"/>
      <point x="172" y="319" type="curve" smooth="yes"/>
      <point x="172" y="328"/>
      <point x="174" y="341"/>
      <point x="178" y="353" type="curve" smooth="yes"/>
      <point x="278" y="683" type="line"/>
      <point x="215" y="670"/>
      <point x="173" y="663"/>
      <point x="101" y="652" type="curve"/>
      <point x="99" y="631" type="line"/>
      <point x="110" y="632" type="line" smooth="yes"/>
      <point x="124" y="633"/>
      <point x="135" y="634"/>
      <point x="142" y="634" type="curve" smooth="yes"/>
      <point x="156" y="634"/>
      <point x="168" y="624"/>
      <point x="168" y="613" type="curve" smooth="yes"/>
      <point x="168" y="602"/>
      <point x="137" y="498"/>
      <point x="108" y="414" type="curve" smooth="yes"/>
      <point x="102" y="396"/>
      <point x="97" y="380"/>
      <point x="95" y="373" type="curve" smooth="yes"/>
      <point x="78" y="307"/>
      <point x="63" y="293"/>
      <point x="7" y="293" type="curve"/>
    </contour>
  </outline>
</glyph>
<glyph name="onehalf" format="1">
  <advance width="750"/>
  <unicode hex="00BD"/>
  <outline>
    <contour>
      <point x="614" y="683" type="line"/>
      <point x="556" y="683" type="line"/>
      <point x="121" y="-14" type="line"/>
      <point x="179" y="-14" type="line"/>
    </contour>
    <contour>
      <point x="701" y="114" type="line"/>
      <point x="685" y="114" type="line"/>
      <point x="660" y="77"/>
      <point x="645" y="69"/>
      <point x="595" y="69" type="curve" smooth="yes"/>
      <point x="506" y="69" type="line"/>
      <point x="631" y="170" type="line" smooth="yes"/>
      <point x="697" y="223"/>
      <point x="723" y="262"/>
      <point x="723" y="310" type="curve" smooth="yes"/>
      <point x="723" y="365"/>
      <point x="675" y="409"/>
      <point x="615" y="409" type="curve" smooth="yes"/>
      <point x="554" y="409"/>
      <point x="507" y="377"/>
      <point x="471" y="311" type="curve"/>
      <point x="489" y="300" type="line"/>
      <point x="521" y="336"/>
      <point x="542" y="348"/>
      <point x="571" y="348" type="curve" smooth="yes"/>
      <point x="607" y="348"/>
      <point x="630" y="323"/>
      <point x="630" y="282" type="curve" smooth="yes"/>
      <point x="630" y="251"/>
      <point x="611" y="217"/>
      <point x="560" y="161" type="curve" smooth="yes"/>
      <point x="531" y="129"/>
      <point x="516" y="115"/>
      <point x="412" y="16" type="curve"/>
      <point x="412" y="0" type="line"/>
      <point x="650" y="0" type="line"/>
    </contour>
    <contour>
      <point x="-9" y="274" type="line"/>
      <point x="215" y="274" type="line"/>
      <point x="215" y="293" type="line"/>
      <point x="166" y="293"/>
      <point x="156" y="297"/>
      <point x="156" y="319" type="curve" smooth="yes"/>
      <point x="156" y="328"/>
      <point x="158" y="341"/>
      <point x="162" y="353" type="curve" smooth="yes"/>
      <point x="262" y="683" type="line"/>
      <point x="199" y="670"/>
      <point x="157" y="663"/>
      <point x="85" y="652" type="curve"/>
      <point x="83" y="631" type="line"/>
      <point x="94" y="632" type="line" smooth="yes"/>
      <point x="108" y="633"/>
      <point x="119" y="634"/>
      <point x="126" y="634" type="curve" smooth="yes"/>
      <point x="140" y="634"/>
      <point x="152" y="624"/>
      <point x="152" y="613" type="curve" smooth="yes"/>
      <point x="152" y="602"/>
      <point x="121" y="498"/>
      <point x="92" y="414" type="curve" smooth="yes"/>
      <point x="86" y="396"/>
      <point x="81" y="380"/>
      <point x="79" y="373" type="curve" smooth="yes"/>
      <point x="62" y="307"/>
      <point x="47" y="293"/>
      <point x="-9" y="293" type="curve"/>
    </contour>
  </outline>
</glyph>
<glyph name="threequarters" format="1">
  <advance width="750"/>
  <unicode hex="00BE"/>
  <outline>
    <contour>
      <point x="693" y="149" type="line"/>
      <point x="648" y="149" type="line"/>
      <point x="726" y="410" type="line"/>
      <point x="680" y="410" type="line"/>
      <point x="402" y="155" type="line"/>
      <point x="386" y="88" type="line"/>
      <point x="545" y="88" type="line"/>
      <point x="518" y="0" type="line"/>
      <point x="604" y="0" type="line"/>
      <point x="632" y="88" type="line"/>
      <point x="676" y="88" type="line"/>
    </contour>
    <contour>
      <point x="430" y="149" type="line"/>
      <point x="614" y="319" type="line"/>
      <point x="562" y="149" type="line"/>
    </contour>
    <contour>
      <point x="634" y="683" type="line"/>
      <point x="576" y="683" type="line"/>
      <point x="141" y="-14" type="line"/>
      <point x="199" y="-14" type="line"/>
    </contour>
    <contour>
      <point x="100" y="481" type="line"/>
      <point x="168" y="478"/>
      <point x="200" y="448"/>
      <point x="200" y="389" type="curve" smooth="yes"/>
      <point x="200" y="338"/>
      <point x="169" y="298"/>
      <point x="129" y="298" type="curve" smooth="yes"/>
      <point x="111" y="298"/>
      <point x="109" y="300"/>
      <point x="87" y="328" type="curve"/>
      <point x="74" y="347"/>
      <point x="60" y="356"/>
      <point x="44" y="356" type="curve" smooth="yes"/>
      <point x="23" y="356"/>
      <point x="7" y="339"/>
      <point x="7" y="315" type="curve" smooth="yes"/>
      <point x="7" y="284"/>
      <point x="39" y="265"/>
      <point x="93" y="265" type="curve" smooth="yes"/>
      <point x="198" y="265"/>
      <point x="284" y="336"/>
      <point x="284" y="423" type="curve" smooth="yes"/>
      <point x="284" y="462"/>
      <point x="270" y="485"/>
      <point x="232" y="511" type="curve"/>
      <point x="239" y="515" type="line" smooth="yes"/>
      <point x="296" y="548"/>
      <point x="311" y="565"/>
      <point x="311" y="602" type="curve" smooth="yes"/>
      <point x="311" y="648"/>
      <point x="268" y="683"/>
      <point x="212" y="683" type="curve" smooth="yes"/>
      <point x="159" y="683"/>
      <point x="119" y="659"/>
      <point x="79" y="603" type="curve"/>
      <point x="93" y="590" type="line"/>
      <point x="121" y="622"/>
      <point x="140" y="632"/>
      <point x="168" y="632" type="curve" smooth="yes"/>
      <point x="202" y="632"/>
      <point x="223" y="612"/>
      <point x="223" y="580" type="curve" smooth="yes"/>
      <point x="223" y="537"/>
      <point x="184" y="510"/>
      <point x="102" y="495" type="curve"/>
    </contour>
  </outline>
</glyph>
<glyph name="Aacute" format="1">
  <advance width="667"/>
  <unicode hex="00C1"/>
  <outline>
    <contour>
      <point x="593" y="25" type="line"/>
      <point x="527" y="30"/>
      <point x="522" y="35"/>
      <point x="509" y="111" type="curve" smooth="yes"/>
      <point x="413" y="683" type="line"/>
      <point x="388" y="683" type="line"/>
      <point x="16" y="95" type="line" smooth="yes"/>
      <point x="-16" y="46"/>
      <point x="-31" y="33"/>
      <point x="-67" y="25" type="curve"/>
      <point x="-67" y="0" type="line"/>
      <point x="129" y="0" type="line"/>
      <point x="129" y="25" type="line"/>
      <point x="83" y="25"/>
      <point x="64" y="36"/>
      <point x="64" y="60" type="curve" smooth="yes"/>
      <point x="64" y="73"/>
      <point x="69" y="89"/>
      <point x="79" y="106" type="curve" smooth="yes"/>
      <point x="138" y="208" type="line"/>
      <point x="353" y="208" type="line"/>
      <point x="356" y="184"/>
      <point x="359" y="163"/>
      <point x="360" y="156" type="curve" smooth="yes"/>
      <point x="366" y="117"/>
      <point x="368" y="97"/>
      <point x="368" y="84" type="curve" smooth="yes"/>
      <point x="368" y="42"/>
      <point x="353" y="31"/>
      <point x="289" y="25" type="curve"/>
      <point x="289" y="0" type="line"/>
      <point x="593" y="0" type="line"/>
    </contour>
    <contour>
      <point x="161" y="248" type="line"/>
      <point x="309" y="491" type="line"/>
      <point x="346" y="248" type="line"/>
    </contour>
    <contour>
      <point x="374" y="723" type="line"/>
      <point x="526" y="810" type="line" smooth="yes"/>
      <point x="556" y="827"/>
      <point x="565" y="838"/>
      <point x="565" y="857" type="curve" smooth="yes"/>
      <point x="565" y="882"/>
      <point x="543" y="904"/>
      <point x="517" y="904" type="curve" smooth="yes"/>
      <point x="499" y="904"/>
      <point x="482" y="892"/>
      <point x="447" y="854" type="curve" smooth="yes"/>
      <point x="325" y="723" type="line"/>
    </contour>
  </outline>
</glyph>
<glyph name="Atilde" format="1">
  <advance width="667"/>
  <unicode hex="00C3"/>
  <outline>
    <contour>
      <point x="593" y="25" type="line"/>
      <point x="527" y="30"/>
      <point x="522" y="35"/>
      <point x="509" y="111" type="curve" smooth="yes"/>
      <point x="413" y="683" type="line"/>
      <point x="388" y="683" type="line"/>
      <point x="16" y="95" type="line" smooth="yes"/>
      <point x="-16" y="46"/>
      <point x="-31" y="33"/>
      <point x="-67" y="25" type="curve"/>
      <point x="-67" y="0" type="line"/>
      <point x="129" y="0" type="line"/>
      <point x="129" y="25" type="line"/>
      <point x="83" y="25"/>
      <point x="64" y="36"/>
      <point x="64" y="60" type="curve" smooth="yes"/>
      <point x="64" y="73"/>
      <point x="69" y="89"/>
      <point x="79" y="106" type="curve" smooth="yes"/>
      <point x="138" y="208" type="line"/>
      <point x="353" y="208" type="line"/>
      <point x="356" y="184"/>
      <point x="359" y="163"/>
      <point x="360" y="156" type="curve" smooth="yes"/>
      <point x="366" y="117"/>
      <point x="368" y="97"/>
      <point x="368" y="84" type="curve" smooth="yes"/>
      <point x="368" y="42"/>
      <point x="353" y="31"/>
      <point x="289" y="25" type="curve"/>
      <point x="289" y="0" type="line"/>
      <point x="593" y="0" type="line"/>
    </contour>
    <contour>
      <point x="161" y="248" type="line"/>
      <point x="309" y="491" type="line"/>
      <point x="346" y="248" type="line"/>
    </contour>
    <contour>
      <point x="540" y="862" type="line"/>
      <point x="525" y="831"/>
      <point x="512" y="820"/>
      <point x="489" y="820" type="curve" smooth="yes"/>
      <point x="478" y="820"/>
      <point x="461" y="825"/>
      <point x="435" y="836" type="curve" smooth="yes"/>
      <point x="394" y="854"/>
      <point x="362" y="862"/>
      <point x="338" y="862" type="curve" smooth="yes"/>
      <point x="281" y="862"/>
      <point x="235" y="816"/>
      <point x="222" y="744" type="curve"/>
      <point x="262" y="744" type="line"/>
      <point x="275" y="776"/>
      <point x="288" y="787"/>
      <point x="310" y="787" type="curve" smooth="yes"/>
      <point x="321" y="787"/>
      <point x="335" y="784"/>
      <point x="348" y="779" type="curve" smooth="yes"/>
      <point x="407" y="756" type="line" smooth="yes"/>
      <point x="433" y="746"/>
      <point x="445" y="743"/>
      <point x="464" y="743" type="curve" smooth="yes"/>
      <point x="524" y="743"/>
      <point x="559" y="779"/>
      <point x="581" y="862" type="curve"/>
    </contour>
  </outline>
</glyph>
<glyph name="AE" format="1">
  <advance width="944"/>
  <unicode hex="00C6"/>
  <outline>
    <contour>
      <point x="264" y="0" type="line"/>
      <point x="791" y="0" type="line"/>
      <point x="850" y="196" type="line"/>
      <point x="824" y="199" type="line"/>
      <point x="782" y="132"/>
      <point x="757" y="104"/>
      <point x="720" y="78" type="curve" smooth="yes"/>
      <point x="677" y="48"/>
      <point x="614" y="32"/>
      <point x="543" y="32" type="curve" smooth="yes"/>
      <point x="502" y="32"/>
      <point x="485" y="43"/>
      <point x="485" y="69" type="curve" smooth="yes"/>
      <point x="485" y="75"/>
      <point x="487" y="86"/>
      <point x="490" y="97" type="curve" smooth="yes"/>
      <point x="553" y="338" type="line"/>
      <point x="663" y="331"/>
      <point x="686" y="316"/>
      <point x="686" y="251" type="curve" smooth="yes"/>
      <point x="686" y="245"/>
      <point x="686" y="236"/>
      <point x="685" y="224" type="curve" smooth="yes"/>
      <point x="684" y="215" type="line"/>
      <point x="683" y="204" type="line"/>
      <point x="708" y="199" type="line"/>
      <point x="781" y="472" type="line"/>
      <point x="755" y="476" type="line"/>
      <point x="715" y="390"/>
      <point x="682" y="370"/>
      <point x="580" y="370" type="curve" smooth="yes"/>
      <point x="571" y="370" type="line"/>
      <point x="561" y="370" type="line"/>
      <point x="626" y="605" type="line" smooth="yes"/>
      <point x="633" y="632"/>
      <point x="643" y="637"/>
      <point x="685" y="637" type="curve" smooth="yes"/>
      <point x="789" y="637"/>
      <point x="843" y="599"/>
      <point x="847" y="524" type="curve" smooth="yes"/>
      <point x="849" y="484" type="line"/>
      <point x="873" y="479" type="line"/>
      <point x="918" y="669" type="line"/>
      <point x="329" y="669" type="line"/>
      <point x="329" y="646" type="line"/>
      <point x="394" y="642"/>
      <point x="410" y="636"/>
      <point x="410" y="618" type="curve" smooth="yes"/>
      <point x="410" y="607"/>
      <point x="402" y="590"/>
      <point x="390" y="574" type="curve" smooth="yes"/>
      <point x="24" y="102" type="line" smooth="yes"/>
      <point x="-16" y="52"/>
      <point x="-28" y="37"/>
      <point x="-34" y="34" type="curve"/>
      <point x="-42" y="29"/>
      <point x="-48" y="28"/>
      <point x="-64" y="25" type="curve"/>
      <point x="-64" y="0" type="line"/>
      <point x="131" y="0" type="line"/>
      <point x="131" y="25" type="line"/>
      <point x="83" y="29"/>
      <point x="67" y="37"/>
      <point x="67" y="59" type="curve" smooth="yes"/>
      <point x="67" y="71"/>
      <point x="73" y="85"/>
      <point x="82" y="98" type="curve" smooth="yes"/>
      <point x="196" y="255" type="line"/>
      <point x="388" y="255" type="line"/>
      <point x="342" y="96" type="line" smooth="yes"/>
      <point x="326" y="43"/>
      <point x="316" y="33"/>
      <point x="264" y="25" type="curve"/>
    </contour>
    <contour>
      <point x="225" y="294" type="line"/>
      <point x="478" y="627" type="line"/>
      <point x="490" y="627" type="line"/>
      <point x="398" y="294" type="line"/>
    </contour>
  </outline>
</glyph>
<glyph name="Ecircumflex" format="1">
  <advance width="667"/>
  <unicode hex="00CA"/>
  <outline>
    <contour>
      <point x="586" y="194" type="line"/>
      <point x="561" y="199" type="line"/>
      <point x="526" y="142"/>
      <point x="505" y="117"/>
      <point x="466" y="90" type="curve" smooth="yes"/>
      <point x="410" y="51"/>
      <point x="342" y="32"/>
      <point x="256" y="32" type="curve" smooth="yes"/>
      <point x="213" y="32"/>
      <point x="195" y="42"/>
      <point x="195" y="66" type="curve" smooth="yes"/>
      <point x="195" y="73"/>
      <point x="198" y="84"/>
      <point x="203" y="104" type="curve"/>
      <point x="205" y="109"/>
      <point x="207" y="115"/>
      <point x="208" y="123" type="curve"/>
      <point x="210" y="129" type="line"/>
      <point x="266" y="338" type="line"/>
      <point x="380" y="336"/>
      <point x="410" y="317"/>
      <point x="410" y="248" type="curve" smooth="yes"/>
      <point x="410" y="234"/>
      <point x="409" y="223"/>
      <point x="406" y="204" type="curve"/>
      <point x="434" y="199" type="line"/>
      <point x="508" y="472" type="line"/>
      <point x="480" y="476" type="line"/>
      <point x="433" y="382"/>
      <point x="407" y="369"/>
      <point x="275" y="370" type="curve"/>
      <point x="336" y="593" type="line" smooth="yes"/>
      <point x="346" y="628"/>
      <point x="358" y="637"/>
      <point x="399" y="637" type="curve" smooth="yes"/>
      <point x="472" y="637"/>
      <point x="526" y="622"/>
      <point x="553" y="595" type="curve" smooth="yes"/>
      <point x="576" y="571"/>
      <point x="583" y="546"/>
      <point x="583" y="484" type="curve"/>
      <point x="610" y="479" type="line"/>
      <point x="653" y="669" type="line"/>
      <point x="113" y="669" type="line"/>
      <point x="113" y="644" type="line"/>
      <point x="127" y="642"/>
      <point x="139" y="640"/>
      <point x="144" y="639" type="curve"/>
      <point x="175" y="635"/>
      <point x="186" y="627"/>
      <point x="186" y="606" type="curve" smooth="yes"/>
      <point x="186" y="591"/>
      <point x="182" y="568"/>
      <point x="176" y="546" type="curve" smooth="yes"/>
      <point x="53" y="97" type="line" smooth="yes"/>
      <point x="37" y="44"/>
      <point x="25" y="33"/>
      <point x="-27" y="25" type="curve"/>
      <point x="-27" y="0" type="line"/>
      <point x="527" y="0" type="line"/>
    </contour>
    <contour>
      <point x="503" y="723" type="line"/>
      <point x="554" y="723" type="line"/>
      <point x="468" y="897" type="line"/>
      <point x="387" y="897" type="line"/>
      <point x="227" y="723" type="line"/>
      <point x="284" y="723" type="line"/>
      <point x="415" y="818" type="line"/>
    </contour>
  </outline>
</glyph>
<glyph name="Igrave" format="1">
  <advance width="389"/>
  <unicode hex="00CC"/>
  <outline>
    <contour>
      <point x="264" y="25" type="line"/>
      <point x="207" y="28"/>
      <point x="192" y="37"/>
      <point x="192" y="65" type="curve" smooth="yes"/>
      <point x="192" y="80"/>
      <point x="197" y="103"/>
      <point x="210" y="152" type="curve" smooth="yes"/>
      <point x="324" y="572" type="line" smooth="yes"/>
      <point x="340" y="625"/>
      <point x="355" y="638"/>
      <point x="406" y="644" type="curve"/>
      <point x="406" y="669" type="line"/>
      <point x="108" y="669" type="line"/>
      <point x="108" y="644" type="line"/>
      <point x="122" y="642"/>
      <point x="135" y="640"/>
      <point x="140" y="639" type="curve"/>
      <point x="171" y="635"/>
      <point x="181" y="627"/>
      <point x="181" y="607" type="curve" smooth="yes"/>
      <point x="181" y="595"/>
      <point x="176" y="564"/>
      <point x="171" y="546" type="curve" smooth="yes"/>
      <point x="48" y="97" type="line" smooth="yes"/>
      <point x="32" y="45"/>
      <point x="17" y="31"/>
      <point x="-32" y="25" type="curve"/>
      <point x="-32" y="0" type="line"/>
      <point x="264" y="0" type="line"/>
    </contour>
    <contour>
      <point x="358" y="723" type="line"/>
      <point x="247" y="870" type="line" smooth="yes"/>
      <point x="231" y="891"/>
      <point x="210" y="904"/>
      <point x="191" y="904" type="curve" smooth="yes"/>
      <point x="167" y="904"/>
      <point x="146" y="883"/>
      <point x="146" y="859" type="curve" smooth="yes"/>
      <point x="146" y="844"/>
      <point x="158" y="827"/>
      <point x="180" y="812" type="curve" smooth="yes"/>
      <point x="313" y="723" type="line"/>
    </contour>
  </outline>
</glyph>
<glyph name="Iacute" format="1">
  <advance width="389"/>
  <unicode hex="00CD"/>
  <outline>
    <contour>
      <point x="264" y="25" type="line"/>
      <point x="207" y="28"/>
      <point x="192" y="37"/>
      <point x="192" y="65" type="curve" smooth="yes"/>
      <point x="192" y="80"/>
      <point x="197" y="103"/>
      <point x="210" y="152" type="curve" smooth="yes"/>
      <point x="324" y="572" type="line" smooth="yes"/>
      <point x="340" y="625"/>
      <point x="355" y="638"/>
      <point x="406" y="644" type="curve"/>
      <point x="406" y="669" type="line"/>
      <point x="108" y="669" type="line"/>
      <point x="108" y="644" type="line"/>
      <point x="122" y="642"/>
      <point x="135" y="640"/>
      <point x="140" y="639" type="curve"/>
      <point x="171" y="635"/>
      <point x="181" y="627"/>
      <point x="181" y="607" type="curve" smooth="yes"/>
      <point x="181" y="595"/>
      <point x="176" y="564"/>
      <point x="171" y="546" type="curve" smooth="yes"/>
      <point x="48" y="97" type="line" smooth="yes"/>
      <point x="32" y="45"/>
      <point x="17" y="31"/>
      <point x="-32" y="25" type="curve"/>
      <point x="-32" y="0" type="line"/>
      <point x="264" y="0" type="line"/>
    </contour>
    <contour>
      <point x="216" y="726" type="line"/>
      <point x="368" y="813" type="line" smooth="yes"/>
      <point x="398" y="830"/>
      <point x="407" y="841"/>
      <point x="407" y="860" type="curve" smooth="yes"/>
      <point x="407" y="885"/>
      <point x="385" y="907"/>
      <point x="359" y="907" type="curve" smooth="yes"/>
      <point x="341" y="907"/>
      <point x="324" y="895"/>
      <point x="289" y="857" type="curve" smooth="yes"/>
      <point x="167" y="726" type="line"/>
    </contour>
  </outline>
</glyph>
<glyph name="Icircumflex" format="1">
  <advance width="389"/>
  <unicode hex="00CE"/>
  <outline>
    <contour>
      <point x="264" y="25" type="line"/>
      <point x="207" y="28"/>
      <point x="192" y="37"/>
      <point x="192" y="65" type="curve" smooth="yes"/>
      <point x="192" y="80"/>
      <point x="197" y="103"/>
      <point x="210" y="152" type="curve" smooth="yes"/>
      <point x="324" y="572" type="line" smooth="yes"/>
      <point x="340" y="625"/>
      <point x="355" y="638"/>
      <point x="406" y="644" type="curve"/>
      <point x="406" y="669" type="line"/>
      <point x="108" y="669" type="line"/>
      <point x="108" y="644" type="line"/>
      <point x="122" y="642"/>
      <point x="135" y="640"/>
      <point x="140" y="639" type="curve"/>
      <point x="171" y="635"/>
      <point x="181" y="627"/>
      <point x="181" y="607" type="curve" smooth="yes"/>
      <point x="181" y="595"/>
      <point x="176" y="564"/>
      <point x="171" y="546" type="curve" smooth="yes"/>
      <point x="48" y="97" type="line" smooth="yes"/>
      <point x="32" y="45"/>
      <point x="17" y="31"/>
      <point x="-32" y="25" type="curve"/>
      <point x="-32" y="0" type="line"/>
      <point x="264" y="0" type="line"/>
    </contour>
    <contour>
      <point x="369" y="723" type="line"/>
      <point x="420" y="723" type="line"/>
      <point x="334" y="897" type="line"/>
      <point x="253" y="897" type="line"/>
      <point x="93" y="723" type="line"/>
      <point x="150" y="723" type="line"/>
      <point x="281" y="818" type="line"/>
    </contour>
  </outline>
</glyph>
<glyph name="Idieresis" format="1">
  <advance width="389"/>
  <unicode hex="00CF"/>
  <outline>
    <contour>
      <point x="264" y="25" type="line"/>
      <point x="207" y="28"/>
      <point x="192" y="37"/>
      <point x="192" y="65" type="curve" smooth="yes"/>
      <point x="192" y="80"/>
      <point x="197" y="103"/>
      <point x="210" y="152" type="curve" smooth="yes"/>
      <point x="324" y="572" type="line" smooth="yes"/>
      <point x="340" y="625"/>
      <point x="355" y="638"/>
      <point x="406" y="644" type="curve"/>
      <point x="406" y="669" type="line"/>
      <point x="108" y="669" type="line"/>
      <point x="108" y="644" type="line"/>
      <point x="122" y="642"/>
      <point x="135" y="640"/>
      <point x="140" y="639" type="curve"/>
      <point x="171" y="635"/>
      <point x="181" y="627"/>
      <point x="181" y="607" type="curve" smooth="yes"/>
      <point x="181" y="595"/>
      <point x="176" y="564"/>
      <point x="171" y="546" type="curve" smooth="yes"/>
      <point x="48" y="97" type="line" smooth="yes"/>
      <point x="32" y="45"/>
      <point x="17" y="31"/>
      <point x="-32" y="25" type="curve"/>
      <point x="-32" y="0" type="line"/>
      <point x="264" y="0" type="line"/>
    </contour>
    <contour>
      <point x="167" y="862" type="curve" smooth="yes"/>
      <point x="132" y="862"/>
      <point x="103" y="832"/>
      <point x="103" y="796" type="curve" smooth="yes"/>
      <point x="103" y="762"/>
      <point x="133" y="732"/>
      <point x="167" y="732" type="curve" smooth="yes"/>
      <point x="202" y="732"/>
      <point x="233" y="762"/>
      <point x="233" y="796" type="curve" smooth="yes"/>
      <point x="233" y="832"/>
      <point x="203" y="862"/>
    </contour>
    <contour>
      <point x="379" y="862" type="curve" smooth="yes"/>
      <point x="344" y="862"/>
      <point x="315" y="832"/>
      <point x="315" y="796" type="curve" smooth="yes"/>
      <point x="315" y="762"/>
      <point x="345" y="732"/>
      <point x="379" y="732" type="curve" smooth="yes"/>
      <point x="414" y="732"/>
      <point x="445" y="762"/>
      <point x="445" y="796" type="curve" smooth="yes"/>
      <point x="445" y="832"/>
      <point x="415" y="862"/>
    </contour>
  </outline>
</glyph>
<glyph name="Ograve" format="1">
  <advance width="722"/>
  <unicode hex="00D2"/>
  <outline>
    <contour>
      <point x="449" y="685" type="curve" smooth="yes"/>
      <point x="376" y="685"/>
      <point x="302" y="659"/>
      <point x="234" y="609" type="curve" smooth="yes"/>
      <point x="113" y="521"/>
      <point x="27" y="360"/>
      <point x="27" y="221" type="curve" smooth="yes"/>
      <point x="27" y="78"/>
      <point x="122" y="-18"/>
      <point x="263" y="-18" type="curve" smooth="yes"/>
      <point x="342" y="-18"/>
      <point x="418" y="8"/>
      <point x="485" y="58" type="curve" smooth="yes"/>
      <point x="609" y="149"/>
      <point x="691" y="308"/>
      <point x="691" y="454" type="curve" smooth="yes"/>
      <point x="691" y="587"/>
      <point x="588" y="685"/>
    </contour>
    <contour>
      <point x="445" y="651" type="curve" smooth="yes"/>
      <point x="506" y="651"/>
      <point x="547" y="603"/>
      <point x="547" y="531" type="curve" smooth="yes"/>
      <point x="547" y="411"/>
      <point x="485" y="211"/>
      <point x="418" y="113" type="curve" smooth="yes"/>
      <point x="372" y="46"/>
      <point x="327" y="16"/>
      <point x="273" y="16" type="curve" smooth="yes"/>
      <point x="210" y="16"/>
      <point x="171" y="63"/>
      <point x="171" y="137" type="curve" smooth="yes"/>
      <point x="171" y="239"/>
      <point x="222" y="424"/>
      <point x="277" y="520" type="curve" smooth="yes"/>
      <point x="328" y="610"/>
      <point x="381" y="651"/>
    </contour>
    <contour>
      <point x="542" y="723" type="line"/>
      <point x="431" y="870" type="line" smooth="yes"/>
      <point x="415" y="891"/>
      <point x="394" y="904"/>
      <point x="375" y="904" type="curve" smooth="yes"/>
      <point x="351" y="904"/>
      <point x="330" y="883"/>
      <point x="330" y="859" type="curve" smooth="yes"/>
      <point x="330" y="844"/>
      <point x="342" y="827"/>
      <point x="364" y="812" type="curve" smooth="yes"/>
      <point x="497" y="723" type="line"/>
    </contour>
  </outline>
</glyph>
<glyph name="Otilde" format="1">
  <advance width="722"/>
  <unicode hex="00D5"/>
  <outline>
    <contour>
      <point x="449" y="685" type="curve" smooth="yes"/>
      <point x="376" y="685"/>
      <point x="302" y="659"/>
      <point x="234" y="609" type="curve" smooth="yes"/>
      <point x="113" y="521"/>
      <point x="27" y="360"/>
      <point x="27" y="221" type="curve" smooth="yes"/>
      <point x="27" y="78"/>
      <point x="122" y="-18"/>
      <point x="263" y="-18" type="curve" smooth="yes"/>
      <point x="342" y="-18"/>
      <point x="418" y="8"/>
      <point x="485" y="58" type="curve" smooth="yes"/>
      <point x="609" y="149"/>
      <point x="691" y="308"/>
      <point x="691" y="454" type="curve" smooth="yes"/>
      <point x="691" y="587"/>
      <point x="588" y="685"/>
    </contour>
    <contour>
      <point x="445" y="651" type="curve" smooth="yes"/>
      <point x="506" y="651"/>
      <point x="547" y="603"/>
      <point x="547" y="531" type="curve" smooth="yes"/>
      <point x="547" y="411"/>
      <point x="485" y="211"/>
      <point x="418" y="113" type="curve" smooth="yes"/>
      <point x="372" y="46"/>
      <point x="327" y="16"/>
      <point x="273" y="16" type="curve" smooth="yes"/>
      <point x="210" y="16"/>
      <point x="171" y="63"/>
      <point x="171" y="137" type="curve" smooth="yes"/>
      <point x="171" y="239"/>
      <point x="222" y="424"/>
      <point x="277" y="520" type="curve" smooth="yes"/>
      <point x="328" y="610"/>
      <point x="381" y="651"/>
    </contour>
    <contour>
      <point x="601" y="862" type="line"/>
      <point x="586" y="831"/>
      <point x="573" y="820"/>
      <point x="550" y="820" type="curve" smooth="yes"/>
      <point x="539" y="820"/>
      <point x="522" y="825"/>
      <point x="496" y="836" type="curve" smooth="yes"/>
      <point x="455" y="854"/>
      <point x="423" y="862"/>
      <point x="399" y="862" type="curve" smooth="yes"/>
      <point x="342" y="862"/>
      <point x="296" y="816"/>
      <point x="283" y="744" type="curve"/>
      <point x="323" y="744" type="line"/>
      <point x="336" y="776"/>
      <point x="349" y="787"/>
      <point x="371" y="787" type="curve" smooth="yes"/>
      <point x="382" y="787"/>
      <point x="396" y="784"/>
      <point x="409" y="779" type="curve" smooth="yes"/>
      <point x="468" y="756" type="line" smooth="yes"/>
      <point x="494" y="746"/>
      <point x="506" y="743"/>
      <point x="525" y="743" type="curve" smooth="yes"/>
      <point x="585" y="743"/>
      <point x="620" y="779"/>
      <point x="642" y="862" type="curve"/>
    </contour>
  </outline>
</glyph>
<glyph name="Odieresis" format="1">
  <advance width="722"/>
  <unicode hex="00D6"/>
  <outline>
    <contour>
      <point x="449" y="685" type="curve" smooth="yes"/>
      <point x="376" y="685"/>
      <point x="302" y="659"/>
      <point x="234" y="609" type="curve" smooth="yes"/>
      <point x="113" y="521"/>
      <point x="27" y="360"/>
      <point x="27" y="221" type="curve" smooth="yes"/>
      <point x="27" y="78"/>
      <point x="122" y="-18"/>
      <point x="263" y="-18" type="curve" smooth="yes"/>
      <point x="342" y="-18"/>
      <point x="418" y="8"/>
      <point x="485" y="58" type="curve" smooth="yes"/>
      <point x="609" y="149"/>
      <point x="691" y="308"/>
      <point x="691" y="454" type="curve" smooth="yes"/>
      <point x="691" y="587"/>
      <point x="588" y="685"/>
    </contour>
    <contour>
      <point x="445" y="651" type="curve" smooth="yes"/>
      <point x="506" y="651"/>
      <point x="547" y="603"/>
      <point x="547" y="531" type="curve" smooth="yes"/>
      <point x="547" y="411"/>
      <point x="485" y="211"/>
      <point x="418" y="113" type="curve" smooth="yes"/>
      <point x="372" y="46"/>
      <point x="327" y="16"/>
      <point x="273" y="16" type="curve" smooth="yes"/>
      <point x="210" y="16"/>
      <point x="171" y="63"/>
      <point x="171" y="137" type="curve" smooth="yes"/>
      <point x="171" y="239"/>
      <point x="222" y="424"/>
      <point x="277" y="520" type="curve" smooth="yes"/>
      <point x="328" y="610"/>
      <point x="381" y="651"/>
    </contour>
    <contour>
      <point x="350" y="862" type="curve" smooth="yes"/>
      <point x="315" y="862"/>
      <point x="286" y="832"/>
      <point x="286" y="796" type="curve" smooth="yes"/>
      <point x="286" y="762"/>
      <point x="316" y="732"/>
      <point x="350" y="732" type="curve" smooth="yes"/>
      <point x="385" y="732"/>
      <point x="416" y="762"/>
      <point x="416" y="796" type="curve" smooth="yes"/>
      <point x="416" y="832"/>
      <point x="386" y="862"/>
    </contour>
    <contour>
      <point x="562" y="862" type="curve" smooth="yes"/>
      <point x="527" y="862"/>
      <point x="498" y="832"/>
      <point x="498" y="796" type="curve" smooth="yes"/>
      <point x="498" y="762"/>
      <point x="528" y="732"/>
      <point x="562" y="732" type="curve" smooth="yes"/>
      <point x="597" y="732"/>
      <point x="628" y="762"/>
      <point x="628" y="796" type="curve" smooth="yes"/>
      <point x="628" y="832"/>
      <point x="598" y="862"/>
    </contour>
  </outline>
</glyph>
<glyph name="multiply" format="1">
  <advance width="570"/>
  <unicode hex="00D7"/>
  <outline>
    <contour>
      <point x="223" y="253" type="line"/>
      <point x="48" y="78" type="line"/>
      <point x="110" y="16" type="line"/>
      <point x="285" y="192" type="line"/>
      <point x="460" y="16" type="line"/>
      <point x="522" y="78" type="line"/>
      <point x="346" y="253" type="line"/>
      <point x="522" y="428" type="line"/>
      <point x="460" y="490" type="line"/>
      <point x="285" y="314" type="line"/>
      <point x="110" y="490" type="line"/>
      <point x="48" y="428" type="line"/>
    </contour>
  </outline>
</glyph>
<glyph name="Oslash" format="1">
  <advance width="722"/>
  <unicode hex="00D8"/>
  <outline>
    <contour>
      <point x="633" y="764" type="line"/>
      <point x="584" y="764" type="line"/>
      <point x="531" y="672" type="line"/>
      <point x="499" y="682"/>
      <point x="479" y="685"/>
      <point x="449" y="685" type="curve" smooth="yes"/>
      <point x="234" y="685"/>
      <point x="27" y="453"/>
      <point x="27" y="212" type="curve" smooth="yes"/>
      <point x="27" y="154"/>
      <point x="47" y="100"/>
      <point x="84" y="58" type="curve" smooth="yes"/>
      <point x="100" y="39"/>
      <point x="113" y="29"/>
      <point x="144" y="11" type="curve"/>
      <point x="65" y="-125" type="line"/>
      <point x="113" y="-125" type="line"/>
      <point x="183" y="-5" type="line"/>
      <point x="214" y="-15"/>
      <point x="235" y="-18"/>
      <point x="266" y="-18" type="curve" smooth="yes"/>
      <point x="342" y="-18"/>
      <point x="417" y="8"/>
      <point x="484" y="58" type="curve" smooth="yes"/>
      <point x="608" y="149"/>
      <point x="691" y="307"/>
      <point x="691" y="453" type="curve" smooth="yes"/>
      <point x="691" y="504"/>
      <point x="674" y="557"/>
      <point x="644" y="595" type="curve" smooth="yes"/>
      <point x="625" y="620"/>
      <point x="609" y="633"/>
      <point x="570" y="656" type="curve"/>
    </contour>
    <contour>
      <point x="182" y="77" type="line"/>
      <point x="175" y="97"/>
      <point x="171" y="119"/>
      <point x="171" y="141" type="curve" smooth="yes"/>
      <point x="171" y="243"/>
      <point x="220" y="418"/>
      <point x="278" y="521" type="curve" smooth="yes"/>
      <point x="327" y="608"/>
      <point x="382" y="651"/>
      <point x="443" y="651" type="curve" smooth="yes"/>
      <point x="468" y="651"/>
      <point x="487" y="645"/>
      <point x="506" y="630" type="curve"/>
    </contour>
    <contour>
      <point x="533" y="593" type="line"/>
      <point x="542" y="571"/>
      <point x="547" y="548"/>
      <point x="547" y="526" type="curve" smooth="yes"/>
      <point x="547" y="412"/>
      <point x="483" y="208"/>
      <point x="418" y="113" type="curve" smooth="yes"/>
      <point x="372" y="47"/>
      <point x="327" y="16"/>
      <point x="273" y="16" type="curve" smooth="yes"/>
      <point x="247" y="16"/>
      <point x="228" y="22"/>
      <point x="208" y="38" type="curve"/>
    </contour>
  </outline>
</glyph>
<glyph name="Ugrave" format="1">
  <advance width="722"/>
  <unicode hex="00D9"/>
  <outline>
    <contour>
      <point x="744" y="669" type="line"/>
      <point x="536" y="669" type="line"/>
      <point x="536" y="644" type="line"/>
      <point x="593" y="639"/>
      <point x="616" y="623"/>
      <point x="616" y="588" type="curve" smooth="yes"/>
      <point x="616" y="571"/>
      <point x="608" y="532"/>
      <point x="597" y="491" type="curve" smooth="yes"/>
      <point x="539" y="282" type="line" smooth="yes"/>
      <point x="512" y="185"/>
      <point x="490" y="135"/>
      <point x="460" y="98" type="curve" smooth="yes"/>
      <point x="426" y="58"/>
      <point x="382" y="38"/>
      <point x="327" y="38" type="curve" smooth="yes"/>
      <point x="251" y="38"/>
      <point x="205" y="76"/>
      <point x="205" y="139" type="curve" smooth="yes"/>
      <point x="205" y="166"/>
      <point x="208" y="181"/>
      <point x="233" y="272" type="curve" smooth="yes"/>
      <point x="315" y="572" type="line" smooth="yes"/>
      <point x="332" y="629"/>
      <point x="347" y="641"/>
      <point x="409" y="644" type="curve"/>
      <point x="409" y="669" type="line"/>
      <point x="98" y="669" type="line"/>
      <point x="98" y="644" type="line"/>
      <point x="112" y="642"/>
      <point x="125" y="640"/>
      <point x="129" y="640" type="curve"/>
      <point x="161" y="635"/>
      <point x="171" y="627"/>
      <point x="171" y="605" type="curve" smooth="yes"/>
      <point x="171" y="593"/>
      <point x="165" y="562"/>
      <point x="156" y="529" type="curve" smooth="yes"/>
      <point x="100" y="323" type="line" smooth="yes"/>
      <point x="79" y="243"/>
      <point x="67" y="181"/>
      <point x="67" y="148" type="curve" smooth="yes"/>
      <point x="67" y="50"/>
      <point x="159" y="-18"/>
      <point x="290" y="-18" type="curve" smooth="yes"/>
      <point x="375" y="-18"/>
      <point x="442" y="9"/>
      <point x="487" y="62" type="curve" smooth="yes"/>
      <point x="521" y="101"/>
      <point x="545" y="155"/>
      <point x="576" y="263" type="curve" smooth="yes"/>
      <point x="642" y="491" type="line" smooth="yes"/>
      <point x="682" y="623"/>
      <point x="689" y="633"/>
      <point x="744" y="644" type="curve"/>
    </contour>
    <contour>
      <point x="551" y="723" type="line"/>
      <point x="440" y="870" type="line" smooth="yes"/>
      <point x="424" y="891"/>
      <point x="403" y="904"/>
      <point x="384" y="904" type="curve" smooth="yes"/>
      <point x="360" y="904"/>
      <point x="339" y="883"/>
      <point x="339" y="859" type="curve" smooth="yes"/>
      <point x="339" y="844"/>
      <point x="351" y="827"/>
      <point x="373" y="812" type="curve" smooth="yes"/>
      <point x="506" y="723" type="line"/>
    </contour>
  </outline>
</glyph>
<glyph name="Yacute" format="1">
  <advance width="611"/>
  <unicode hex="00DD"/>
  <outline>
    <contour>
      <point x="234" y="313" type="line"/>
      <point x="174" y="97" type="line" smooth="yes"/>
      <point x="156" y="40"/>
      <point x="142" y="30"/>
      <point x="73" y="25" type="curve"/>
      <point x="73" y="0" type="line"/>
      <point x="395" y="0" type="line"/>
      <point x="395" y="25" type="line"/>
      <point x="330" y="28"/>
      <point x="318" y="35"/>
      <point x="318" y="72" type="curve" smooth="yes"/>
      <point x="318" y="84"/>
      <point x="320" y="94"/>
      <point x="326" y="117" type="curve" smooth="yes"/>
      <point x="378" y="308" type="line"/>
      <point x="568" y="575" type="line" smooth="yes"/>
      <point x="602" y="621"/>
      <point x="621" y="636"/>
      <point x="659" y="644" type="curve"/>
      <point x="659" y="669" type="line"/>
      <point x="451" y="669" type="line"/>
      <point x="451" y="644" type="line"/>
      <point x="504" y="642"/>
      <point x="518" y="633"/>
      <point x="518" y="598" type="curve" smooth="yes"/>
      <point x="518" y="580"/>
      <point x="512" y="567"/>
      <point x="492" y="538" type="curve" smooth="yes"/>
      <point x="363" y="352" type="line"/>
      <point x="356" y="374"/>
      <point x="341" y="418"/>
      <point x="338" y="429" type="curve" smooth="yes"/>
      <point x="329" y="458"/>
      <point x="322" y="478"/>
      <point x="319" y="488" type="curve" smooth="yes"/>
      <point x="296" y="554"/>
      <point x="286" y="590"/>
      <point x="286" y="607" type="curve" smooth="yes"/>
      <point x="286" y="635"/>
      <point x="301" y="643"/>
      <point x="356" y="644" type="curve"/>
      <point x="356" y="669" type="line"/>
      <point x="73" y="669" type="line"/>
      <point x="73" y="644" type="line"/>
      <point x="124" y="637"/>
      <point x="127" y="634"/>
      <point x="146" y="581" type="curve" smooth="yes"/>
    </contour>
    <contour>
      <point x="350" y="723" type="line"/>
      <point x="502" y="810" type="line" smooth="yes"/>
      <point x="532" y="827"/>
      <point x="541" y="838"/>
      <point x="541" y="857" type="curve" smooth="yes"/>
      <point x="541" y="882"/>
      <point x="519" y="904"/>
      <point x="493" y="904" type="curve" smooth="yes"/>
      <point x="475" y="904"/>
      <point x="458" y="892"/>
      <point x="423" y="854" type="curve" smooth="yes"/>
      <point x="301" y="723" type="line"/>
    </contour>
  </outline>
</glyph>
<glyph name="Thorn" format="1">
  <advance width="611"/>
  <unicode hex="00DE"/>
  <outline>
    <contour>
      <point x="113" y="644" type="line"/>
      <point x="127" y="642"/>
      <point x="139" y="640"/>
      <point x="144" y="640" type="curve"/>
      <point x="175" y="636"/>
      <point x="186" y="627"/>
      <point x="186" y="607" type="curve" smooth="yes"/>
      <point x="186" y="592"/>
      <point x="182" y="568"/>
      <point x="176" y="546" type="curve" smooth="yes"/>
      <point x="53" y="97" type="line" smooth="yes"/>
      <point x="37" y="44"/>
      <point x="25" y="33"/>
      <point x="-27" y="25" type="curve"/>
      <point x="-27" y="0" type="line"/>
      <point x="267" y="0" type="line"/>
      <point x="267" y="25" type="line"/>
      <point x="211" y="28"/>
      <point x="195" y="37"/>
      <point x="195" y="64" type="curve" smooth="yes"/>
      <point x="195" y="73"/>
      <point x="198" y="92"/>
      <point x="205" y="123" type="curve" smooth="yes"/>
      <point x="219" y="187" type="line"/>
      <point x="255" y="183"/>
      <point x="274" y="182"/>
      <point x="300" y="182" type="curve" smooth="yes"/>
      <point x="467" y="182"/>
      <point x="574" y="259"/>
      <point x="574" y="379" type="curve" smooth="yes"/>
      <point x="574" y="480"/>
      <point x="499" y="534"/>
      <point x="360" y="534" type="curve" smooth="yes"/>
      <point x="312" y="534" type="line"/>
      <point x="325" y="572" type="line" smooth="yes"/>
      <point x="345" y="629"/>
      <point x="354" y="637"/>
      <point x="407" y="644" type="curve"/>
      <point x="407" y="669" type="line"/>
      <point x="113" y="669" type="line"/>
    </contour>
    <contour>
      <point x="293" y="458" type="line" smooth="yes"/>
      <point x="300" y="482"/>
      <point x="300" y="482"/>
      <point x="304" y="487" type="curve"/>
      <point x="314" y="498"/>
      <point x="325" y="502"/>
      <point x="344" y="502" type="curve" smooth="yes"/>
      <point x="397" y="502"/>
      <point x="428" y="469"/>
      <point x="428" y="411" type="curve" smooth="yes"/>
      <point x="428" y="376"/>
      <point x="419" y="330"/>
      <point x="405" y="299" type="curve" smooth="yes"/>
      <point x="379" y="240"/>
      <point x="342" y="217"/>
      <point x="271" y="217" type="curve" smooth="yes"/>
      <point x="260" y="217"/>
      <point x="248" y="218"/>
      <point x="229" y="219" type="curve"/>
    </contour>
  </outline>
</glyph>
<glyph name="germandbls" format="1">
  <advance width="500"/>
  <unicode hex="00DF"/>
  <outline>
    <contour>
      <point x="241" y="384" type="line"/>
      <point x="270" y="380"/>
      <point x="281" y="377"/>
      <point x="291" y="369" type="curve" smooth="yes"/>
      <point x="306" y="358"/>
      <point x="315" y="334"/>
      <point x="315" y="304" type="curve" smooth="yes"/>
      <point x="315" y="239"/>
      <point x="294" y="137"/>
      <point x="270" y="85" type="curve" smooth="yes"/>
      <point x="252" y="46"/>
      <point x="232" y="27"/>
      <point x="209" y="27" type="curve" smooth="yes"/>
      <point x="193" y="27"/>
      <point x="174" y="35"/>
      <point x="166" y="45" type="curve" smooth="yes"/>
      <point x="162" y="50" type="line"/>
      <point x="142" y="15" type="line"/>
      <point x="164" y="-1"/>
      <point x="185" y="-7"/>
      <point x="215" y="-7" type="curve" smooth="yes"/>
      <point x="331" y="-7"/>
      <point x="435" y="117"/>
      <point x="435" y="256" type="curve" smooth="yes"/>
      <point x="435" y="298"/>
      <point x="420" y="333"/>
      <point x="392" y="357" type="curve" smooth="yes"/>
      <point x="368" y="379"/>
      <point x="344" y="388"/>
      <point x="291" y="399" type="curve"/>
      <point x="368" y="428"/>
      <point x="398" y="444"/>
      <point x="432" y="477" type="curve" smooth="yes"/>
      <point x="457" y="501"/>
      <point x="473" y="538"/>
      <point x="473" y="574" type="curve" smooth="yes"/>
      <point x="473" y="650"/>
      <point x="412" y="705"/>
      <point x="327" y="705" type="curve" smooth="yes"/>
      <point x="205" y="705"/>
      <point x="119" y="601"/>
      <point x="76" y="403" type="curve" smooth="yes"/>
      <point x="-16" y="-20" type="line" smooth="yes"/>
      <point x="-30" y="-83"/>
      <point x="-47" y="-131"/>
      <point x="-63" y="-152" type="curve" smooth="yes"/>
      <point x="-73" y="-164"/>
      <point x="-83" y="-169"/>
      <point x="-102" y="-169" type="curve" smooth="yes"/>
      <point x="-114" y="-169"/>
      <point x="-118" y="-166"/>
      <point x="-118" y="-158" type="curve" smooth="yes"/>
      <point x="-118" y="-153"/>
      <point x="-117" y="-151"/>
      <point x="-112" y="-146" type="curve"/>
      <point x="-103" y="-136"/>
      <point x="-101" y="-129"/>
      <point x="-101" y="-115" type="curve" smooth="yes"/>
      <point x="-101" y="-87"/>
      <point x="-119" y="-70"/>
      <point x="-149" y="-70" type="curve" smooth="yes"/>
      <point x="-180" y="-70"/>
      <point x="-200" y="-91"/>
      <point x="-200" y="-123" type="curve" smooth="yes"/>
      <point x="-200" y="-169"/>
      <point x="-160" y="-200"/>
      <point x="-103" y="-200" type="curve" smooth="yes"/>
      <point x="2" y="-200"/>
      <point x="78" y="-98"/>
      <point x="123" y="102" type="curve" smooth="yes"/>
      <point x="214" y="509" type="line" smooth="yes"/>
      <point x="240" y="626"/>
      <point x="270" y="675"/>
      <point x="315" y="675" type="curve" smooth="yes"/>
      <point x="347" y="675"/>
      <point x="362" y="655"/>
      <point x="362" y="615" type="curve" smooth="yes"/>
      <point x="362" y="568"/>
      <point x="350" y="509"/>
      <point x="333" y="473" type="curve" smooth="yes"/>
      <point x="316" y="439"/>
      <point x="286" y="414"/>
      <point x="268" y="420" type="curve"/>
      <point x="266" y="421"/>
      <point x="265" y="421"/>
      <point x="264" y="421" type="curve" smooth="yes"/>
      <point x="248" y="421" type="line"/>
    </contour>
  </outline>
</glyph>
<glyph name="agrave" format="1">
  <advance width="500"/>
  <unicode hex="00E0"/>
  <outline>
    <contour>
      <point x="434" y="127" type="line"/>
      <point x="393" y="72"/>
      <point x="378" y="57"/>
      <point x="362" y="57" type="curve" smooth="yes"/>
      <point x="355" y="57"/>
      <point x="350" y="63"/>
      <point x="350" y="72" type="curve" smooth="yes"/>
      <point x="350" y="97"/>
      <point x="360" y="139"/>
      <point x="384" y="220" type="curve" smooth="yes"/>
      <point x="455" y="456" type="line"/>
      <point x="344" y="449" type="line"/>
      <point x="326" y="390" type="line"/>
      <point x="317" y="441"/>
      <point x="295" y="462"/>
      <point x="252" y="462" type="curve" smooth="yes"/>
      <point x="129" y="462"/>
      <point x="-21" y="270"/>
      <point x="-21" y="114" type="curve" smooth="yes"/>
      <point x="-21" y="38"/>
      <point x="22" y="-13"/>
      <point x="87" y="-13" type="curve" smooth="yes"/>
      <point x="148" y="-13"/>
      <point x="194" y="24"/>
      <point x="251" y="119" type="curve"/>
      <point x="240" y="80"/>
      <point x="237" y="66"/>
      <point x="237" y="52" type="curve" smooth="yes"/>
      <point x="237" y="15"/>
      <point x="267" y="-14"/>
      <point x="304" y="-14" type="curve" smooth="yes"/>
      <point x="351" y="-14"/>
      <point x="398" y="25"/>
      <point x="455" y="112" type="curve"/>
    </contour>
    <contour>
      <point x="266" y="420" type="curve" smooth="yes"/>
      <point x="288" y="418"/>
      <point x="303" y="400"/>
      <point x="303" y="373" type="curve" smooth="yes"/>
      <point x="303" y="314"/>
      <point x="269" y="201"/>
      <point x="231" y="133" type="curve" smooth="yes"/>
      <point x="204" y="85"/>
      <point x="174" y="58"/>
      <point x="147" y="58" type="curve" smooth="yes"/>
      <point x="121" y="58"/>
      <point x="102" y="81"/>
      <point x="102" y="112" type="curve" smooth="yes"/>
      <point x="102" y="164"/>
      <point x="135" y="264"/>
      <point x="176" y="338" type="curve" smooth="yes"/>
      <point x="206" y="391"/>
      <point x="239" y="422"/>
    </contour>
    <contour>
      <point x="380" y="516" type="line"/>
      <point x="269" y="663" type="line" smooth="yes"/>
      <point x="253" y="684"/>
      <point x="232" y="697"/>
      <point x="213" y="697" type="curve" smooth="yes"/>
      <point x="189" y="697"/>
      <point x="168" y="676"/>
      <point x="168" y="652" type="curve" smooth="yes"/>
      <point x="168" y="637"/>
      <point x="180" y="620"/>
      <point x="202" y="605" type="curve" smooth="yes"/>
      <point x="335" y="516" type="line"/>
    </contour>
  </outline>
</glyph>
<glyph name="acircumflex" format="1">
  <advance width="500"/>
  <unicode hex="00E2"/>
  <outline>
    <contour>
      <point x="434" y="127" type="line"/>
      <point x="393" y="72"/>
      <point x="378" y="57"/>
      <point x="362" y="57" type="curve" smooth="yes"/>
      <point x="355" y="57"/>
      <point x="350" y="63"/>
      <point x="350" y="72" type="curve" smooth="yes"/>
      <point x="350" y="97"/>
      <point x="360" y="139"/>
      <point x="384" y="220" type="curve" smooth="yes"/>
      <point x="455" y="456" type="line"/>
      <point x="344" y="449" type="line"/>
      <point x="326" y="390" type="line"/>
      <point x="317" y="441"/>
      <point x="295" y="462"/>
      <point x="252" y="462" type="curve" smooth="yes"/>
      <point x="129" y="462"/>
      <point x="-21" y="270"/>
      <point x="-21" y="114" type="curve" smooth="yes"/>
      <point x="-21" y="38"/>
      <point x="22" y="-13"/>
      <point x="87" y="-13" type="curve" smooth="yes"/>
      <point x="148" y="-13"/>
      <point x="194" y="24"/>
      <point x="251" y="119" type="curve"/>
      <point x="240" y="80"/>
      <point x="237" y="66"/>
      <point x="237" y="52" type="curve" smooth="yes"/>
      <point x="237" y="15"/>
      <point x="267" y="-14"/>
      <point x="304" y="-14" type="curve" smooth="yes"/>
      <point x="351" y="-14"/>
      <point x="398" y="25"/>
      <point x="455" y="112" type="curve"/>
    </contour>
    <contour>
      <point x="266" y="420" type="curve" smooth="yes"/>
      <point x="288" y="418"/>
      <point x="303" y="400"/>
      <point x="303" y="373" type="curve" smooth="yes"/>
      <point x="303" y="314"/>
      <point x="269" y="201"/>
      <point x="231" y="133" type="curve" smooth="yes"/>
      <point x="204" y="85"/>
      <point x="174" y="58"/>
      <point x="147" y="58" type="curve" smooth="yes"/>
      <point x="121" y="58"/>
      <point x="102" y="81"/>
      <point x="102" y="112" type="curve" smooth="yes"/>
      <point x="102" y="164"/>
      <point x="135" y="264"/>
      <point x="176" y="338" type="curve" smooth="yes"/>
      <point x="206" y="391"/>
      <point x="239" y="422"/>
    </contour>
    <contour>
      <point x="400" y="516" type="line"/>
      <point x="451" y="516" type="line"/>
      <point x="365" y="690" type="line"/>
      <point x="284" y="690" type="line"/>
      <point x="124" y="516" type="line"/>
      <point x="181" y="516" type="line"/>
      <point x="312" y="611" type="line"/>
    </contour>
  </outline>
</glyph>
<glyph name="ae" format="1">
  <advance width="722"/>
  <unicode hex="00E6"/>
  <outline>
    <contour>
      <point x="352" y="396" type="line"/>
      <point x="334" y="446"/>
      <point x="314" y="462"/>
      <point x="271" y="462" type="curve" smooth="yes"/>
      <point x="145" y="462"/>
      <point x="-5" y="269"/>
      <point x="-5" y="106" type="curve" smooth="yes"/>
      <point x="-5" y="38"/>
      <point x="43" y="-12"/>
      <point x="109" y="-12" type="curve" smooth="yes"/>
      <point x="176" y="-12"/>
      <point x="226" y="26"/>
      <point x="282" y="118" type="curve"/>
      <point x="290" y="72"/>
      <point x="298" y="52"/>
      <point x="315" y="31" type="curve" smooth="yes"/>
      <point x="337" y="3"/>
      <point x="378" y="-13"/>
      <point x="425" y="-13" type="curve" smooth="yes"/>
      <point x="509" y="-13"/>
      <point x="576" y="34"/>
      <point x="619" y="122" type="curve"/>
      <point x="591" y="139" type="line"/>
      <point x="557" y="80"/>
      <point x="515" y="50"/>
      <point x="468" y="50" type="curve" smooth="yes"/>
      <point x="427" y="50"/>
      <point x="401" y="83"/>
      <point x="401" y="134" type="curve" smooth="yes"/>
      <point x="401" y="150"/>
      <point x="402" y="161"/>
      <point x="406" y="181" type="curve"/>
      <point x="445" y="190" type="line" smooth="yes"/>
      <point x="590" y="223"/>
      <point x="673" y="290"/>
      <point x="673" y="372" type="curve" smooth="yes"/>
      <point x="673" y="427"/>
      <point x="636" y="459"/>
      <point x="573" y="459" type="curve" smooth="yes"/>
      <point x="524" y="459"/>
      <point x="496" y="444"/>
      <point x="453" y="394" type="curve"/>
      <point x="473" y="459" type="line"/>
      <point x="370" y="454" type="line"/>
    </contour>
    <contour>
      <point x="285" y="419" type="curve" smooth="yes"/>
      <point x="313" y="419"/>
      <point x="333" y="395"/>
      <point x="333" y="363" type="curve" smooth="yes"/>
      <point x="333" y="309"/>
      <point x="300" y="204"/>
      <point x="262" y="137" type="curve" smooth="yes"/>
      <point x="233" y="83"/>
      <point x="202" y="58"/>
      <point x="169" y="58" type="curve" smooth="yes"/>
      <point x="139" y="58"/>
      <point x="119" y="85"/>
      <point x="121" y="124" type="curve" smooth="yes"/>
      <point x="124" y="182"/>
      <point x="151" y="266"/>
      <point x="188" y="332" type="curve" smooth="yes"/>
      <point x="221" y="390"/>
      <point x="253" y="419"/>
    </contour>
    <contour>
      <point x="418" y="231" type="line" smooth="yes"/>
      <point x="458" y="365"/>
      <point x="500" y="429"/>
      <point x="550" y="429" type="curve" smooth="yes"/>
      <point x="573" y="429"/>
      <point x="583" y="416"/>
      <point x="583" y="388" type="curve" smooth="yes"/>
      <point x="583" y="331"/>
      <point x="552" y="282"/>
      <point x="494" y="246" type="curve" smooth="yes"/>
      <point x="463" y="227"/>
      <point x="441" y="218"/>
      <point x="413" y="214" type="curve"/>
    </contour>
  </outline>
</glyph>
<glyph name="ccedilla" format="1">
  <advance width="444"/>
  <unicode hex="00E7"/>
  <outline>
    <contour>
      <point x="130" y="-12" type="line"/>
      <point x="137" y="-13"/>
      <point x="142" y="-13"/>
      <point x="148" y="-13" type="curve" smooth="yes"/>
      <point x="192" y="-13"/>
      <point x="236" y="3"/>
      <point x="269" y="32" type="curve" smooth="yes"/>
      <point x="295" y="54"/>
      <point x="311" y="73"/>
      <point x="346" y="123" type="curve"/>
      <point x="318" y="141" type="line"/>
      <point x="270" y="74"/>
      <point x="239" y="51"/>
      <point x="196" y="51" type="curve" smooth="yes"/>
      <point x="153" y="51"/>
      <point x="123" y="87"/>
      <point x="123" y="141" type="curve" smooth="yes"/>
      <point x="123" y="203"/>
      <point x="149" y="293"/>
      <point x="185" y="358" type="curve" smooth="yes"/>
      <point x="212" y="405"/>
      <point x="241" y="429"/>
      <point x="271" y="429" type="curve" smooth="yes"/>
      <point x="283" y="429"/>
      <point x="293" y="422"/>
      <point x="293" y="412" type="curve" smooth="yes"/>
      <point x="293" y="408"/>
      <point x="291" y="402"/>
      <point x="285" y="393" type="curve"/>
      <point x="276" y="377"/>
      <point x="272" y="366"/>
      <point x="272" y="354" type="curve" smooth="yes"/>
      <point x="272" y="324"/>
      <point x="297" y="302"/>
      <point x="330" y="302" type="curve" smooth="yes"/>
      <point x="366" y="302"/>
      <point x="392" y="331"/>
      <point x="392" y="372" type="curve" smooth="yes"/>
      <point x="392" y="425"/>
      <point x="347" y="462"/>
      <point x="280" y="462" type="curve" smooth="yes"/>
      <point x="139" y="462"/>
      <point x="-5" y="298"/>
      <point x="-5" y="138" type="curve" smooth="yes"/>
      <point x="-5" y="70"/>
      <point x="30" y="18"/>
      <point x="91" y="-4" type="curve"/>
      <point x="31" y="-92" type="line"/>
      <point x="44" y="-104" type="line"/>
      <point x="56" y="-101"/>
      <point x="64" y="-100"/>
      <point x="74" y="-100" type="curve" smooth="yes"/>
      <point x="103" y="-100"/>
      <point x="121" y="-114"/>
      <point x="121" y="-136" type="curve" smooth="yes"/>
      <point x="121" y="-161"/>
      <point x="99" y="-177"/>
      <point x="65" y="-177" type="curve" smooth="yes"/>
      <point x="43" y="-177"/>
      <point x="26" y="-173"/>
      <point x="-2" y="-160" type="curve"/>
      <point x="-24" y="-193" type="line"/>
      <point x="20" y="-211"/>
      <point x="52" y="-218"/>
      <point x="88" y="-218" type="curve" smooth="yes"/>
      <point x="159" y="-218"/>
      <point x="212" y="-181"/>
      <point x="212" y="-131" type="curve" smooth="yes"/>
      <point x="212" y="-89"/>
      <point x="174" y="-59"/>
      <point x="122" y="-59" type="curve" smooth="yes"/>
      <point x="112" y="-59"/>
      <point x="106" y="-60"/>
      <point x="96" y="-62" type="curve"/>
    </contour>
  </outline>
</glyph>
<glyph name="edieresis" format="1">
  <advance width="444"/>
  <unicode hex="00EB"/>
  <outline>
    <contour>
      <point x="317" y="142" type="line"/>
      <point x="270" y="73"/>
      <point x="242" y="51"/>
      <point x="200" y="51" type="curve" smooth="yes"/>
      <point x="157" y="51"/>
      <point x="135" y="79"/>
      <point x="135" y="133" type="curve" smooth="yes"/>
      <point x="135" y="149"/>
      <point x="137" y="162"/>
      <point x="141" y="182" type="curve"/>
      <point x="245" y="202"/>
      <point x="294" y="224"/>
      <point x="344" y="270" type="curve" smooth="yes"/>
      <point x="379" y="302"/>
      <point x="398" y="340"/>
      <point x="398" y="375" type="curve" smooth="yes"/>
      <point x="398" y="426"/>
      <point x="354" y="462"/>
      <point x="293" y="462" type="curve" smooth="yes"/>
      <point x="149" y="462"/>
      <point x="5" y="299"/>
      <point x="5" y="134" type="curve" smooth="yes"/>
      <point x="5" y="50"/>
      <point x="69" y="-13"/>
      <point x="156" y="-13" type="curve" smooth="yes"/>
      <point x="232" y="-13"/>
      <point x="286" y="26"/>
      <point x="346" y="125" type="curve"/>
    </contour>
    <contour>
      <point x="148" y="214" type="curve"/>
      <point x="184" y="352"/>
      <point x="230" y="429"/>
      <point x="278" y="429" type="curve" smooth="yes"/>
      <point x="297" y="429"/>
      <point x="306" y="417"/>
      <point x="306" y="395" type="curve" smooth="yes"/>
      <point x="306" y="319"/>
      <point x="258" y="254"/>
      <point x="181" y="225" type="curve"/>
      <point x="174" y="223"/>
      <point x="159" y="218"/>
    </contour>
    <contour>
      <point x="165" y="655" type="curve" smooth="yes"/>
      <point x="130" y="655"/>
      <point x="101" y="625"/>
      <point x="101" y="589" type="curve" smooth="yes"/>
      <point x="101" y="555"/>
      <point x="131" y="525"/>
      <point x="165" y="525" type="curve" smooth="yes"/>
      <point x="200" y="525"/>
      <point x="231" y="555"/>
      <point x="231" y="589" type="curve" smooth="yes"/>
      <point x="231" y="625"/>
      <point x="201" y="655"/>
    </contour>
    <contour>
      <point x="377" y="655" type="curve" smooth="yes"/>
      <point x="342" y="655"/>
      <point x="313" y="625"/>
      <point x="313" y="589" type="curve" smooth="yes"/>
      <point x="313" y="555"/>
      <point x="343" y="525"/>
      <point x="377" y="525" type="curve" smooth="yes"/>
      <point x="412" y="525"/>
      <point x="443" y="555"/>
      <point x="443" y="589" type="curve" smooth="yes"/>
      <point x="443" y="625"/>
      <point x="413" y="655"/>
    </contour>
  </outline>
</glyph>
<glyph name="igrave" format="1">
  <advance width="278"/>
  <unicode hex="00EC"/>
  <outline>
    <contour>
      <point x="216" y="141" type="line"/>
      <point x="202" y="121" type="line" smooth="yes"/>
      <point x="176" y="82"/>
      <point x="153" y="61"/>
      <point x="138" y="61" type="curve" smooth="yes"/>
      <point x="130" y="61"/>
      <point x="123" y="68"/>
      <point x="123" y="76" type="curve" smooth="yes"/>
      <point x="123" y="82"/>
      <point x="129" y="116"/>
      <point x="132" y="128" type="curve" smooth="yes"/>
      <point x="223" y="462" type="line"/>
      <point x="169" y="450"/>
      <point x="99" y="440"/>
      <point x="21" y="434" type="curve"/>
      <point x="21" y="407" type="line"/>
      <point x="64" y="407"/>
      <point x="80" y="399"/>
      <point x="80" y="378" type="curve" smooth="yes"/>
      <point x="80" y="370"/>
      <point x="77" y="355"/>
      <point x="73" y="338" type="curve" smooth="yes"/>
      <point x="15" y="123" type="line" smooth="yes"/>
      <point x="7" y="95"/>
      <point x="2" y="67"/>
      <point x="2" y="54" type="curve" smooth="yes"/>
      <point x="2" y="17"/>
      <point x="30" y="-9"/>
      <point x="71" y="-9" type="curve" smooth="yes"/>
      <point x="131" y="-9"/>
      <point x="168" y="22"/>
      <point x="238" y="127" type="curve"/>
    </contour>
    <contour>
      <point x="260" y="516" type="line"/>
      <point x="149" y="663" type="line" smooth="yes"/>
      <point x="133" y="684"/>
      <point x="112" y="697"/>
      <point x="93" y="697" type="curve" smooth="yes"/>
      <point x="69" y="697"/>
      <point x="48" y="676"/>
      <point x="48" y="652" type="curve" smooth="yes"/>
      <point x="48" y="637"/>
      <point x="60" y="620"/>
      <point x="82" y="605" type="curve" smooth="yes"/>
      <point x="215" y="516" type="line"/>
    </contour>
  </outline>
</glyph>
<glyph name="icircumflex" format="1">
  <advance width="278"/>
  <unicode hex="00EE"/>
  <outline>
    <contour>
      <point x="274" y="516" type="line"/>
      <point x="325" y="516" type="line"/>
      <point x="239" y="690" type="line"/>
      <point x="158" y="690" type="line"/>
      <point x="-2" y="516" type="line"/>
      <point x="55" y="516" type="line"/>
      <point x="186" y="611" type="line"/>
    </contour>
    <contour>
      <point x="216" y="141" type="line"/>
      <point x="202" y="121" type="line" smooth="yes"/>
      <point x="176" y="82"/>
      <point x="153" y="61"/>
      <point x="138" y="61" type="curve" smooth="yes"/>
      <point x="130" y="61"/>
      <point x="123" y="68"/>
      <point x="123" y="76" type="curve" smooth="yes"/>
      <point x="123" y="82"/>
      <point x="129" y="116"/>
      <point x="132" y="128" type="curve" smooth="yes"/>
      <point x="223" y="462" type="line"/>
      <point x="169" y="450"/>
      <point x="99" y="440"/>
      <point x="21" y="434" type="curve"/>
      <point x="21" y="407" type="line"/>
      <point x="64" y="407"/>
      <point x="80" y="399"/>
      <point x="80" y="378" type="curve" smooth="yes"/>
      <point x="80" y="370"/>
      <point x="77" y="355"/>
      <point x="73" y="338" type="curve" smooth="yes"/>
      <point x="15" y="123" type="line" smooth="yes"/>
      <point x="7" y="94"/>
      <point x="2" y="68"/>
      <point x="2" y="54" type="curve" smooth="yes"/>
      <point x="2" y="16"/>
      <point x="30" y="-9"/>
      <point x="71" y="-9" type="curve" smooth="yes"/>
      <point x="131" y="-9"/>
      <point x="169" y="22"/>
      <point x="238" y="127" type="curve"/>
    </contour>
  </outline>
</glyph>
<glyph name="idieresis" format="1">
  <advance width="278"/>
  <unicode hex="00EF"/>
  <outline>
    <contour>
      <point x="216" y="141" type="line"/>
      <point x="202" y="121" type="line" smooth="yes"/>
      <point x="176" y="82"/>
      <point x="153" y="61"/>
      <point x="138" y="61" type="curve" smooth="yes"/>
      <point x="130" y="61"/>
      <point x="123" y="68"/>
      <point x="123" y="76" type="curve" smooth="yes"/>
      <point x="123" y="82"/>
      <point x="129" y="116"/>
      <point x="132" y="128" type="curve" smooth="yes"/>
      <point x="223" y="462" type="line"/>
      <point x="169" y="450"/>
      <point x="99" y="440"/>
      <point x="21" y="434" type="curve"/>
      <point x="21" y="407" type="line"/>
      <point x="64" y="407"/>
      <point x="80" y="399"/>
      <point x="80" y="378" type="curve" smooth="yes"/>
      <point x="80" y="370"/>
      <point x="77" y="355"/>
      <point x="73" y="338" type="curve" smooth="yes"/>
      <point x="15" y="123" type="line" smooth="yes"/>
      <point x="7" y="95"/>
      <point x="2" y="67"/>
      <point x="2" y="54" type="curve" smooth="yes"/>
      <point x="2" y="17"/>
      <point x="30" y="-9"/>
      <point x="71" y="-9" type="curve" smooth="yes"/>
      <point x="131" y="-9"/>
      <point x="168" y="21"/>
      <point x="238" y="127" type="curve"/>
    </contour>
    <contour>
      <point x="82" y="655" type="curve" smooth="yes"/>
      <point x="47" y="655"/>
      <point x="18" y="625"/>
      <point x="18" y="589" type="curve" smooth="yes"/>
      <point x="18" y="555"/>
      <point x="48" y="525"/>
      <point x="82" y="525" type="curve" smooth="yes"/>
      <point x="117" y="525"/>
      <point x="148" y="555"/>
      <point x="148" y="589" type="curve" smooth="yes"/>
      <point x="148" y="625"/>
      <point x="118" y="655"/>
    </contour>
    <contour>
      <point x="294" y="655" type="curve" smooth="yes"/>
      <point x="259" y="655"/>
      <point x="230" y="625"/>
      <point x="230" y="589" type="curve" smooth="yes"/>
      <point x="230" y="555"/>
      <point x="260" y="525"/>
      <point x="294" y="525" type="curve" smooth="yes"/>
      <point x="329" y="525"/>
      <point x="360" y="555"/>
      <point x="360" y="589" type="curve" smooth="yes"/>
      <point x="360" y="625"/>
      <point x="330" y="655"/>
    </contour>
  </outline>
</glyph>
<glyph name="eth" format="1">
  <advance width="500"/>
  <unicode hex="00F0"/>
  <outline>
    <contour>
      <point x="283" y="574" type="line"/>
      <point x="322" y="524"/>
      <point x="341" y="478"/>
      <point x="345" y="424" type="curve"/>
      <point x="343" y="420" type="line"/>
      <point x="324" y="449"/>
      <point x="303" y="462"/>
      <point x="272" y="462" type="curve" smooth="yes"/>
      <point x="134" y="462"/>
      <point x="-3" y="299"/>
      <point x="-3" y="134" type="curve" smooth="yes"/>
      <point x="-3" y="50"/>
      <point x="65" y="-13"/>
      <point x="155" y="-13" type="curve" smooth="yes"/>
      <point x="310" y="-13"/>
      <point x="441" y="163"/>
      <point x="441" y="372" type="curve" smooth="yes"/>
      <point x="441" y="462"/>
      <point x="414" y="529"/>
      <point x="347" y="608" type="curve"/>
      <point x="454" y="664" type="line"/>
      <point x="420" y="696" type="line"/>
      <point x="313" y="639" type="line"/>
      <point x="270" y="674"/>
      <point x="230" y="692"/>
      <point x="181" y="699" type="curve"/>
      <point x="137" y="672" type="line"/>
      <point x="177" y="665"/>
      <point x="214" y="644"/>
      <point x="253" y="607" type="curve"/>
      <point x="131" y="543" type="line"/>
      <point x="164" y="512" type="line"/>
    </contour>
    <contour>
      <point x="276" y="433" type="curve" smooth="yes"/>
      <point x="304" y="433"/>
      <point x="322" y="411"/>
      <point x="322" y="375" type="curve" smooth="yes"/>
      <point x="322" y="307"/>
      <point x="291" y="178"/>
      <point x="259" y="107" type="curve" smooth="yes"/>
      <point x="230" y="45"/>
      <point x="200" y="16"/>
      <point x="165" y="16" type="curve" smooth="yes"/>
      <point x="132" y="16"/>
      <point x="116" y="39"/>
      <point x="116" y="86" type="curve" smooth="yes"/>
      <point x="116" y="159"/>
      <point x="153" y="300"/>
      <point x="189" y="365" type="curve" smooth="yes"/>
      <point x="215" y="411"/>
      <point x="243" y="433"/>
    </contour>
  </outline>
</glyph>
<glyph name="ograve" format="1">
  <advance width="500"/>
  <unicode hex="00F2"/>
  <outline>
    <contour>
      <point x="284" y="462" type="curve" smooth="yes"/>
      <point x="137" y="462"/>
      <point x="-3" y="303"/>
      <point x="-3" y="135" type="curve" smooth="yes"/>
      <point x="-3" y="50"/>
      <point x="64" y="-13"/>
      <point x="156" y="-13" type="curve" smooth="yes"/>
      <point x="305" y="-13"/>
      <point x="441" y="142"/>
      <point x="441" y="311" type="curve" smooth="yes"/>
      <point x="441" y="399"/>
      <point x="375" y="462"/>
    </contour>
    <contour>
      <point x="275" y="433" type="curve" smooth="yes"/>
      <point x="304" y="433"/>
      <point x="322" y="411"/>
      <point x="322" y="375" type="curve" smooth="yes"/>
      <point x="322" y="307"/>
      <point x="291" y="177"/>
      <point x="259" y="107" type="curve" smooth="yes"/>
      <point x="230" y="45"/>
      <point x="200" y="16"/>
      <point x="165" y="16" type="curve" smooth="yes"/>
      <point x="135" y="16"/>
      <point x="116" y="40"/>
      <point x="116" y="78" type="curve" smooth="yes"/>
      <point x="116" y="156"/>
      <point x="153" y="302"/>
      <point x="188" y="364" type="curve" smooth="yes"/>
      <point x="214" y="410"/>
      <point x="243" y="433"/>
    </contour>
    <contour>
      <point x="380" y="516" type="line"/>
      <point x="269" y="663" type="line" smooth="yes"/>
      <point x="253" y="684"/>
      <point x="232" y="697"/>
      <point x="213" y="697" type="curve" smooth="yes"/>
      <point x="189" y="697"/>
      <point x="168" y="676"/>
      <point x="168" y="652" type="curve" smooth="yes"/>
      <point x="168" y="637"/>
      <point x="180" y="620"/>
      <point x="202" y="605" type="curve" smooth="yes"/>
      <point x="335" y="516" type="line"/>
    </contour>
  </outline>
</glyph>
<glyph name="otilde" format="1">
  <advance width="500"/>
  <unicode hex="00F5"/>
  <outline>
    <contour>
      <point x="284" y="462" type="curve" smooth="yes"/>
      <point x="137" y="462"/>
      <point x="-3" y="303"/>
      <point x="-3" y="135" type="curve" smooth="yes"/>
      <point x="-3" y="50"/>
      <point x="64" y="-13"/>
      <point x="156" y="-13" type="curve" smooth="yes"/>
      <point x="305" y="-13"/>
      <point x="441" y="142"/>
      <point x="441" y="311" type="curve" smooth="yes"/>
      <point x="441" y="399"/>
      <point x="375" y="462"/>
    </contour>
    <contour>
      <point x="275" y="433" type="curve" smooth="yes"/>
      <point x="304" y="433"/>
      <point x="322" y="411"/>
      <point x="322" y="375" type="curve" smooth="yes"/>
      <point x="322" y="307"/>
      <point x="291" y="177"/>
      <point x="259" y="107" type="curve" smooth="yes"/>
      <point x="230" y="45"/>
      <point x="200" y="16"/>
      <point x="165" y="16" type="curve" smooth="yes"/>
      <point x="135" y="16"/>
      <point x="116" y="40"/>
      <point x="116" y="78" type="curve" smooth="yes"/>
      <point x="116" y="156"/>
      <point x="153" y="302"/>
      <point x="188" y="364" type="curve" smooth="yes"/>
      <point x="214" y="410"/>
      <point x="243" y="433"/>
    </contour>
    <contour>
      <point x="450" y="655" type="line"/>
      <point x="435" y="624"/>
      <point x="422" y="613"/>
      <point x="399" y="613" type="curve" smooth="yes"/>
      <point x="388" y="613"/>
      <point x="371" y="618"/>
      <point x="345" y="629" type="curve" smooth="yes"/>
      <point x="304" y="647"/>
      <point x="272" y="655"/>
      <point x="248" y="655" type="curve" smooth="yes"/>
      <point x="191" y="655"/>
      <point x="145" y="609"/>
      <point x="132" y="537" type="curve"/>
      <point x="172" y="537" type="line"/>
      <point x="185" y="569"/>
      <point x="198" y="580"/>
      <point x="220" y="580" type="curve" smooth="yes"/>
      <point x="231" y="580"/>
      <point x="245" y="577"/>
      <point x="258" y="572" type="curve" smooth="yes"/>
      <point x="317" y="549" type="line" smooth="yes"/>
      <point x="343" y="539"/>
      <point x="355" y="536"/>
      <point x="374" y="536" type="curve" smooth="yes"/>
      <point x="434" y="536"/>
      <point x="469" y="572"/>
      <point x="491" y="655" type="curve"/>
    </contour>
  </outline>
</glyph>
<glyph name="odieresis" format="1">
  <advance width="500"/>
  <unicode hex="00F6"/>
  <outline>
    <contour>
      <point x="284" y="462" type="curve" smooth="yes"/>
      <point x="137" y="462"/>
      <point x="-3" y="303"/>
      <point x="-3" y="135" type="curve" smooth="yes"/>
      <point x="-3" y="50"/>
      <point x="64" y="-13"/>
      <point x="156" y="-13" type="curve" smooth="yes"/>
      <point x="305" y="-13"/>
      <point x="441" y="142"/>
      <point x="441" y="311" type="curve" smooth="yes"/>
      <point x="441" y="399"/>
      <point x="375" y="462"/>
    </contour>
    <contour>
      <point x="275" y="433" type="curve" smooth="yes"/>
      <point x="304" y="433"/>
      <point x="322" y="411"/>
      <point x="322" y="375" type="curve" smooth="yes"/>
      <point x="322" y="307"/>
      <point x="291" y="177"/>
      <point x="259" y="107" type="curve" smooth="yes"/>
      <point x="230" y="45"/>
      <point x="200" y="16"/>
      <point x="165" y="16" type="curve" smooth="yes"/>
      <point x="135" y="16"/>
      <point x="116" y="40"/>
      <point x="116" y="78" type="curve" smooth="yes"/>
      <point x="116" y="156"/>
      <point x="153" y="302"/>
      <point x="188" y="364" type="curve" smooth="yes"/>
      <point x="214" y="410"/>
      <point x="243" y="433"/>
    </contour>
    <contour>
      <point x="188" y="655" type="curve" smooth="yes"/>
      <point x="153" y="655"/>
      <point x="124" y="625"/>
      <point x="124" y="589" type="curve" smooth="yes"/>
      <point x="124" y="555"/>
      <point x="154" y="525"/>
      <point x="188" y="525" type="curve" smooth="yes"/>
      <point x="223" y="525"/>
      <point x="254" y="555"/>
      <point x="254" y="589" type="curve" smooth="yes"/>
      <point x="254" y="625"/>
      <point x="224" y="655"/>
    </contour>
    <contour>
      <point x="400" y="655" type="curve" smooth="yes"/>
      <point x="365" y="655"/>
      <point x="336" y="625"/>
      <point x="336" y="589" type="curve" smooth="yes"/>
      <point x="336" y="555"/>
      <point x="366" y="525"/>
      <point x="400" y="525" type="curve" smooth="yes"/>
      <point x="435" y="525"/>
      <point x="466" y="555"/>
      <point x="466" y="589" type="curve" smooth="yes"/>
      <point x="466" y="625"/>
      <point x="436" y="655"/>
    </contour>
  </outline>
</glyph>
<glyph name="oslash" format="1">
  <advance width="500"/>
  <unicode hex="00F8"/>
  <outline>
    <contour>
      <point x="424" y="560" type="line"/>
      <point x="387" y="560" type="line"/>
      <point x="328" y="456" type="line"/>
      <point x="310" y="461"/>
      <point x="300" y="462"/>
      <point x="286" y="462" type="curve" smooth="yes"/>
      <point x="136" y="462"/>
      <point x="-3" y="304"/>
      <point x="-3" y="134" type="curve" smooth="yes"/>
      <point x="-3" y="77"/>
      <point x="21" y="37"/>
      <point x="74" y="7" type="curve"/>
      <point x="2" y="-119" type="line"/>
      <point x="42" y="-119" type="line"/>
      <point x="106" y="-5" type="line"/>
      <point x="126" y="-11"/>
      <point x="139" y="-13"/>
      <point x="157" y="-13" type="curve" smooth="yes"/>
      <point x="305" y="-13"/>
      <point x="441" y="143"/>
      <point x="441" y="311" type="curve" smooth="yes"/>
      <point x="441" y="375"/>
      <point x="416" y="416"/>
      <point x="359" y="444" type="curve"/>
    </contour>
    <contour>
      <point x="116" y="78" type="line"/>
      <point x="116" y="86" type="line" smooth="yes"/>
      <point x="116" y="160"/>
      <point x="153" y="300"/>
      <point x="189" y="364" type="curve" smooth="yes"/>
      <point x="214" y="410"/>
      <point x="243" y="433"/>
      <point x="275" y="433" type="curve" smooth="yes"/>
      <point x="288" y="433"/>
      <point x="297" y="429"/>
      <point x="307" y="419" type="curve"/>
    </contour>
    <contour>
      <point x="321" y="377" type="line"/>
      <point x="322" y="375"/>
      <point x="322" y="374"/>
      <point x="322" y="372" type="curve" smooth="yes"/>
      <point x="322" y="312"/>
      <point x="295" y="194"/>
      <point x="266" y="125" type="curve" smooth="yes"/>
      <point x="235" y="50"/>
      <point x="204" y="16"/>
      <point x="165" y="16" type="curve" smooth="yes"/>
      <point x="149" y="16"/>
      <point x="138" y="22"/>
      <point x="128" y="34" type="curve"/>
    </contour>
  </outline>
</glyph>
<glyph name="udieresis" format="1">
  <advance width="556"/>
  <unicode hex="00FC"/>
  <outline>
    <contour>
      <point x="471" y="133" type="line"/>
      <point x="436" y="80"/>
      <point x="416" y="59"/>
      <point x="399" y="59" type="curve" smooth="yes"/>
      <point x="391" y="59"/>
      <point x="385" y="67"/>
      <point x="385" y="76" type="curve" smooth="yes"/>
      <point x="385" y="86"/>
      <point x="385" y="86"/>
      <point x="410" y="181" type="curve" smooth="yes"/>
      <point x="488" y="449" type="line"/>
      <point x="370" y="449" type="line"/>
      <point x="314" y="256"/>
      <point x="285" y="190"/>
      <point x="228" y="118" type="curve" smooth="yes"/>
      <point x="197" y="80"/>
      <point x="175" y="63"/>
      <point x="155" y="63" type="curve" smooth="yes"/>
      <point x="141" y="63"/>
      <point x="134" y="71"/>
      <point x="134" y="88" type="curve" smooth="yes"/>
      <point x="134" y="103"/>
      <point x="136" y="111"/>
      <point x="149" y="154" type="curve" smooth="yes"/>
      <point x="243" y="462" type="line"/>
      <point x="237" y="461"/>
      <point x="231" y="460"/>
      <point x="215" y="457" type="curve" smooth="yes"/>
      <point x="141" y="444"/>
      <point x="82" y="436"/>
      <point x="34" y="434" type="curve"/>
      <point x="34" y="407" type="line"/>
      <point x="80" y="404"/>
      <point x="90" y="399"/>
      <point x="90" y="379" type="curve" smooth="yes"/>
      <point x="90" y="363"/>
      <point x="85" y="335"/>
      <point x="76" y="306" type="curve" smooth="yes"/>
      <point x="36" y="173" type="line" smooth="yes"/>
      <point x="22" y="125"/>
      <point x="15" y="89"/>
      <point x="15" y="65" type="curve" smooth="yes"/>
      <point x="15" y="16"/>
      <point x="41" y="-9"/>
      <point x="90" y="-9" type="curve" smooth="yes"/>
      <point x="157" y="-9"/>
      <point x="187" y="17"/>
      <point x="290" y="161" type="curve"/>
      <point x="272" y="106"/>
      <point x="266" y="79"/>
      <point x="266" y="51" type="curve" smooth="yes"/>
      <point x="266" y="11"/>
      <point x="287" y="-9"/>
      <point x="331" y="-9" type="curve" smooth="yes"/>
      <point x="391" y="-9"/>
      <point x="440" y="31"/>
      <point x="492" y="120" type="curve"/>
    </contour>
    <contour>
      <point x="216" y="655" type="curve" smooth="yes"/>
      <point x="181" y="655"/>
      <point x="152" y="625"/>
      <point x="152" y="589" type="curve" smooth="yes"/>
      <point x="152" y="555"/>
      <point x="182" y="525"/>
      <point x="216" y="525" type="curve" smooth="yes"/>
      <point x="251" y="525"/>
      <point x="282" y="555"/>
      <point x="282" y="589" type="curve" smooth="yes"/>
      <point x="282" y="625"/>
      <point x="252" y="655"/>
    </contour>
    <contour>
      <point x="428" y="655" type="curve" smooth="yes"/>
      <point x="393" y="655"/>
      <point x="364" y="625"/>
      <point x="364" y="589" type="curve" smooth="yes"/>
      <point x="364" y="555"/>
      <point x="394" y="525"/>
      <point x="428" y="525" type="curve" smooth="yes"/>
      <point x="463" y="525"/>
      <point x="494" y="555"/>
      <point x="494" y="589" type="curve" smooth="yes"/>
      <point x="494" y="625"/>
      <point x="464" y="655"/>
    </contour>
  </outline>
</glyph>
<glyph name="thorn" format="1">
  <advance width="500"/>
  <unicode hex="00FE"/>
  <outline>
    <contour>
      <point x="129" y="-178" type="line"/>
      <point x="79" y="-177"/>
      <point x="64" y="-170"/>
      <point x="64" y="-146" type="curve" smooth="yes"/>
      <point x="64" y="-133"/>
      <point x="71" y="-100"/>
      <point x="90" y="-32" type="curve" smooth="yes"/>
      <point x="98" y="-4" type="line"/>
      <point x="101" y="9" type="line"/>
      <point x="136" y="-9"/>
      <point x="148" y="-13"/>
      <point x="169" y="-13" type="curve" smooth="yes"/>
      <point x="304" y="-13"/>
      <point x="446" y="168"/>
      <point x="446" y="341" type="curve" smooth="yes"/>
      <point x="446" y="414"/>
      <point x="404" y="462"/>
      <point x="339" y="462" type="curve" smooth="yes"/>
      <point x="282" y="462"/>
      <point x="238" y="431"/>
      <point x="188" y="356" type="curve"/>
      <point x="185" y="359" type="line"/>
      <point x="280" y="699" type="line"/>
      <point x="212" y="686"/>
      <point x="163" y="679"/>
      <point x="74" y="669" type="curve"/>
      <point x="74" y="642" type="line"/>
      <point x="123" y="642"/>
      <point x="137" y="635"/>
      <point x="137" y="612" type="curve" smooth="yes"/>
      <point x="137" y="606"/>
      <point x="132" y="583"/>
      <point x="120" y="537" type="curve" smooth="yes"/>
      <point x="-42" y="-93" type="line" smooth="yes"/>
      <point x="-60" y="-167"/>
      <point x="-71" y="-179"/>
      <point x="-120" y="-178" type="curve"/>
      <point x="-120" y="-205" type="line"/>
      <point x="129" y="-205" type="line"/>
    </contour>
    <contour>
      <point x="282" y="391" type="curve" smooth="yes"/>
      <point x="308" y="389"/>
      <point x="323" y="366"/>
      <point x="321" y="334" type="curve" smooth="yes"/>
      <point x="317" y="269"/>
      <point x="285" y="169"/>
      <point x="249" y="104" type="curve" smooth="yes"/>
      <point x="218" y="50"/>
      <point x="185" y="22"/>
      <point x="152" y="22" type="curve" smooth="yes"/>
      <point x="130" y="22"/>
      <point x="113" y="38"/>
      <point x="113" y="58" type="curve" smooth="yes"/>
      <point x="113" y="74"/>
      <point x="121" y="104"/>
      <point x="148" y="195" type="curve" smooth="yes"/>
      <point x="172" y="277"/>
      <point x="182" y="305"/>
      <point x="198" y="329" type="curve" smooth="yes"/>
      <point x="223" y="368"/>
      <point x="256" y="393"/>
    </contour>
  </outline>
</glyph>
<glyph name="Aogonek" format="1">
  <advance width="667"/>
  <unicode hex="0104"/>
  <outline>
    <contour>
      <point x="353" y="208" type="line"/>
      <point x="356" y="184"/>
      <point x="359" y="163"/>
      <point x="360" y="156" type="curve" smooth="yes"/>
      <point x="366" y="117"/>
      <point x="368" y="97"/>
      <point x="368" y="84" type="curve" smooth="yes"/>
      <point x="368" y="42"/>
      <point x="353" y="31"/>
      <point x="289" y="25" type="curve"/>
      <point x="289" y="0" type="line"/>
      <point x="543" y="0" type="line"/>
      <point x="509" y="-45"/>
      <point x="500" y="-65"/>
      <point x="500" y="-92" type="curve" smooth="yes"/>
      <point x="500" y="-139"/>
      <point x="545" y="-173"/>
      <point x="606" y="-173" type="curve" smooth="yes"/>
      <point x="656" y="-173"/>
      <point x="704" y="-144"/>
      <point x="729" y="-98" type="curve"/>
      <point x="707" y="-84" type="line"/>
      <point x="702" y="-86"/>
      <point x="701" y="-87"/>
      <point x="693" y="-91" type="curve" smooth="yes"/>
      <point x="673" y="-101"/>
      <point x="662" y="-104"/>
      <point x="647" y="-104" type="curve" smooth="yes"/>
      <point x="606" y="-104"/>
      <point x="584" y="-81"/>
      <point x="584" y="-39" type="curve" smooth="yes"/>
      <point x="584" y="-25"/>
      <point x="587" y="-14"/>
      <point x="593" y="0" type="curve"/>
      <point x="593" y="25" type="line"/>
      <point x="527" y="30"/>
      <point x="522" y="35"/>
      <point x="509" y="111" type="curve" smooth="yes"/>
      <point x="413" y="683" type="line"/>
      <point x="388" y="683" type="line"/>
      <point x="16" y="95" type="line" smooth="yes"/>
      <point x="-16" y="46"/>
      <point x="-31" y="33"/>
      <point x="-67" y="25" type="curve"/>
      <point x="-67" y="0" type="line"/>
      <point x="129" y="0" type="line"/>
      <point x="129" y="25" type="line"/>
      <point x="83" y="25"/>
      <point x="64" y="36"/>
      <point x="64" y="60" type="curve" smooth="yes"/>
      <point x="64" y="73"/>
      <point x="69" y="89"/>
      <point x="79" y="106" type="curve" smooth="yes"/>
      <point x="138" y="208" type="line"/>
    </contour>
    <contour>
      <point x="161" y="248" type="line"/>
      <point x="309" y="491" type="line"/>
      <point x="346" y="248" type="line"/>
    </contour>
  </outline>
</glyph>
<glyph name="aogonek" format="1">
  <advance width="500"/>
  <unicode hex="0105"/>
  <outline>
    <contour>
      <point x="434" y="127" type="line"/>
      <point x="393" y="72"/>
      <point x="378" y="57"/>
      <point x="362" y="57" type="curve" smooth="yes"/>
      <point x="355" y="57"/>
      <point x="350" y="63"/>
      <point x="350" y="72" type="curve" smooth="yes"/>
      <point x="350" y="97"/>
      <point x="360" y="139"/>
      <point x="384" y="220" type="curve" smooth="yes"/>
      <point x="455" y="456" type="line"/>
      <point x="344" y="449" type="line"/>
      <point x="326" y="390" type="line"/>
      <point x="317" y="441"/>
      <point x="295" y="462"/>
      <point x="252" y="462" type="curve" smooth="yes"/>
      <point x="129" y="462"/>
      <point x="-21" y="270"/>
      <point x="-21" y="114" type="curve" smooth="yes"/>
      <point x="-21" y="38"/>
      <point x="22" y="-13"/>
      <point x="87" y="-13" type="curve" smooth="yes"/>
      <point x="148" y="-13"/>
      <point x="194" y="24"/>
      <point x="251" y="119" type="curve"/>
      <point x="240" y="79"/>
      <point x="237" y="66"/>
      <point x="237" y="52" type="curve" smooth="yes"/>
      <point x="237" y="15"/>
      <point x="262" y="-10"/>
      <point x="303" y="-14" type="curve"/>
      <point x="278" y="-50"/>
      <point x="271" y="-67"/>
      <point x="271" y="-92" type="curve" smooth="yes"/>
      <point x="271" y="-139"/>
      <point x="316" y="-173"/>
      <point x="377" y="-173" type="curve" smooth="yes"/>
      <point x="427" y="-173"/>
      <point x="475" y="-144"/>
      <point x="500" y="-98" type="curve"/>
      <point x="478" y="-84" type="line"/>
      <point x="473" y="-86"/>
      <point x="472" y="-87"/>
      <point x="464" y="-91" type="curve" smooth="yes"/>
      <point x="444" y="-101"/>
      <point x="433" y="-104"/>
      <point x="418" y="-104" type="curve" smooth="yes"/>
      <point x="378" y="-104"/>
      <point x="355" y="-82"/>
      <point x="355" y="-41" type="curve" smooth="yes"/>
      <point x="355" y="-18"/>
      <point x="362" y="-3"/>
      <point x="390" y="27" type="curve" smooth="yes"/>
      <point x="419" y="60"/>
      <point x="430" y="74"/>
      <point x="455" y="112" type="curve"/>
    </contour>
    <contour>
      <point x="266" y="420" type="curve" smooth="yes"/>
      <point x="288" y="418"/>
      <point x="303" y="400"/>
      <point x="303" y="373" type="curve" smooth="yes"/>
      <point x="303" y="314"/>
      <point x="269" y="201"/>
      <point x="231" y="133" type="curve" smooth="yes"/>
      <point x="204" y="85"/>
      <point x="174" y="58"/>
      <point x="147" y="58" type="curve" smooth="yes"/>
      <point x="121" y="58"/>
      <point x="102" y="81"/>
      <point x="102" y="112" type="curve" smooth="yes"/>
      <point x="102" y="164"/>
      <point x="135" y="264"/>
      <point x="176" y="338" type="curve" smooth="yes"/>
      <point x="206" y="391"/>
      <point x="239" y="422"/>
    </contour>
  </outline>
</glyph>
<glyph name="cacute" format="1">
  <advance width="444"/>
  <unicode hex="0107"/>
  <outline>
    <contour>
      <point x="318" y="141" type="line"/>
      <point x="270" y="74"/>
      <point x="239" y="51"/>
      <point x="196" y="51" type="curve" smooth="yes"/>
      <point x="153" y="51"/>
      <point x="123" y="87"/>
      <point x="123" y="141" type="curve" smooth="yes"/>
      <point x="123" y="203"/>
      <point x="149" y="293"/>
      <point x="185" y="358" type="curve" smooth="yes"/>
      <point x="211" y="405"/>
      <point x="241" y="429"/>
      <point x="271" y="429" type="curve" smooth="yes"/>
      <point x="283" y="429"/>
      <point x="293" y="422"/>
      <point x="293" y="412" type="curve" smooth="yes"/>
      <point x="293" y="408"/>
      <point x="291" y="402"/>
      <point x="285" y="393" type="curve"/>
      <point x="276" y="377"/>
      <point x="272" y="366"/>
      <point x="272" y="354" type="curve" smooth="yes"/>
      <point x="272" y="324"/>
      <point x="297" y="302"/>
      <point x="330" y="302" type="curve" smooth="yes"/>
      <point x="366" y="302"/>
      <point x="392" y="331"/>
      <point x="392" y="372" type="curve" smooth="yes"/>
      <point x="392" y="425"/>
      <point x="346" y="462"/>
      <point x="280" y="462" type="curve" smooth="yes"/>
      <point x="139" y="462"/>
      <point x="-5" y="298"/>
      <point x="-5" y="138" type="curve" smooth="yes"/>
      <point x="-5" y="49"/>
      <point x="58" y="-13"/>
      <point x="148" y="-13" type="curve" smooth="yes"/>
      <point x="192" y="-13"/>
      <point x="235" y="3"/>
      <point x="269" y="32" type="curve" smooth="yes"/>
      <point x="295" y="54"/>
      <point x="311" y="73"/>
      <point x="346" y="123" type="curve"/>
    </contour>
    <contour>
      <point x="253" y="516" type="line"/>
      <point x="405" y="603" type="line" smooth="yes"/>
      <point x="435" y="620"/>
      <point x="444" y="631"/>
      <point x="444" y="650" type="curve" smooth="yes"/>
      <point x="444" y="675"/>
      <point x="422" y="697"/>
      <point x="396" y="697" type="curve" smooth="yes"/>
      <point x="378" y="697"/>
      <point x="361" y="685"/>
      <point x="326" y="647" type="curve" smooth="yes"/>
      <point x="204" y="516" type="line"/>
    </contour>
  </outline>
</glyph>
<glyph name="Ccaron" format="1">
  <advance width="667"/>
  <unicode hex="010C"/>
  <outline>
    <contour>
      <point x="677" y="685" type="line"/>
      <point x="647" y="685" type="line"/>
      <point x="633" y="663"/>
      <point x="624" y="656"/>
      <point x="609" y="656" type="curve" smooth="yes"/>
      <point x="601" y="656"/>
      <point x="586" y="659"/>
      <point x="571" y="664" type="curve" smooth="yes"/>
      <point x="528" y="677"/>
      <point x="481" y="685"/>
      <point x="440" y="685" type="curve" smooth="yes"/>
      <point x="217" y="685"/>
      <point x="32" y="483"/>
      <point x="32" y="241" type="curve" smooth="yes"/>
      <point x="32" y="86"/>
      <point x="141" y="-18"/>
      <point x="304" y="-18" type="curve" smooth="yes"/>
      <point x="375" y="-18"/>
      <point x="441" y="4"/>
      <point x="498" y="47" type="curve" smooth="yes"/>
      <point x="528" y="69"/>
      <point x="544" y="87"/>
      <point x="576" y="131" type="curve"/>
      <point x="546" y="153" type="line"/>
      <point x="496" y="94"/>
      <point x="468" y="71"/>
      <point x="426" y="53" type="curve" smooth="yes"/>
      <point x="398" y="41"/>
      <point x="367" y="35"/>
      <point x="336" y="35" type="curve" smooth="yes"/>
      <point x="242" y="35"/>
      <point x="186" y="100"/>
      <point x="186" y="209" type="curve" smooth="yes"/>
      <point x="186" y="355"/>
      <point x="258" y="528"/>
      <point x="349" y="604" type="curve" smooth="yes"/>
      <point x="386" y="634"/>
      <point x="425" y="650"/>
      <point x="466" y="650" type="curve" smooth="yes"/>
      <point x="547" y="650"/>
      <point x="597" y="590"/>
      <point x="597" y="492" type="curve" smooth="yes"/>
      <point x="597" y="479"/>
      <point x="596" y="470"/>
      <point x="594" y="457" type="curve"/>
      <point x="626" y="451" type="line"/>
    </contour>
    <contour>
      <point x="638" y="900" type="line"/>
      <point x="582" y="900" type="line"/>
      <point x="447" y="803" type="line"/>
      <point x="356" y="900" type="line"/>
      <point x="306" y="900" type="line"/>
      <point x="394" y="726" type="line"/>
      <point x="476" y="726" type="line"/>
    </contour>
  </outline>
</glyph>
<glyph name="ccaron" format="1">
  <advance width="444"/>
  <unicode hex="010D"/>
  <outline>
    <contour>
      <point x="318" y="141" type="line"/>
      <point x="270" y="74"/>
      <point x="239" y="51"/>
      <point x="196" y="51" type="curve" smooth="yes"/>
      <point x="153" y="51"/>
      <point x="123" y="87"/>
      <point x="123" y="141" type="curve" smooth="yes"/>
      <point x="123" y="203"/>
      <point x="149" y="293"/>
      <point x="185" y="358" type="curve" smooth="yes"/>
      <point x="211" y="405"/>
      <point x="241" y="429"/>
      <point x="271" y="429" type="curve" smooth="yes"/>
      <point x="283" y="429"/>
      <point x="293" y="422"/>
      <point x="293" y="412" type="curve" smooth="yes"/>
      <point x="293" y="408"/>
      <point x="291" y="402"/>
      <point x="285" y="393" type="curve"/>
      <point x="276" y="377"/>
      <point x="272" y="366"/>
      <point x="272" y="354" type="curve" smooth="yes"/>
      <point x="272" y="324"/>
      <point x="297" y="302"/>
      <point x="330" y="302" type="curve" smooth="yes"/>
      <point x="366" y="302"/>
      <point x="392" y="331"/>
      <point x="392" y="372" type="curve" smooth="yes"/>
      <point x="392" y="425"/>
      <point x="346" y="462"/>
      <point x="280" y="462" type="curve" smooth="yes"/>
      <point x="139" y="462"/>
      <point x="-5" y="298"/>
      <point x="-5" y="138" type="curve" smooth="yes"/>
      <point x="-5" y="49"/>
      <point x="58" y="-13"/>
      <point x="148" y="-13" type="curve" smooth="yes"/>
      <point x="192" y="-13"/>
      <point x="235" y="3"/>
      <point x="269" y="32" type="curve" smooth="yes"/>
      <point x="295" y="54"/>
      <point x="311" y="73"/>
      <point x="346" y="123" type="curve"/>
    </contour>
    <contour>
      <point x="468" y="690" type="line"/>
      <point x="412" y="690" type="line"/>
      <point x="277" y="593" type="line"/>
      <point x="186" y="690" type="line"/>
      <point x="136" y="690" type="line"/>
      <point x="224" y="516" type="line"/>
      <point x="306" y="516" type="line"/>
    </contour>
  </outline>
</glyph>
<glyph name="Dcaron" format="1">
  <advance width="722"/>
  <unicode hex="010E"/>
  <outline>
    <contour>
      <point x="94" y="644" type="line"/>
      <point x="108" y="642"/>
      <point x="121" y="640"/>
      <point x="125" y="639" type="curve"/>
      <point x="157" y="634"/>
      <point x="167" y="626"/>
      <point x="167" y="602" type="curve" smooth="yes"/>
      <point x="167" y="592"/>
      <point x="163" y="575"/>
      <point x="155" y="543" type="curve" smooth="yes"/>
      <point x="34" y="97" type="line" smooth="yes"/>
      <point x="19" y="46"/>
      <point x="3" y="31"/>
      <point x="-46" y="25" type="curve"/>
      <point x="-46" y="0" type="line"/>
      <point x="240" y="0" type="line" smooth="yes"/>
      <point x="495" y="0"/>
      <point x="685" y="169"/>
      <point x="685" y="396" type="curve" smooth="yes"/>
      <point x="685" y="567"/>
      <point x="573" y="669"/>
      <point x="384" y="669" type="curve" smooth="yes"/>
      <point x="94" y="669" type="line"/>
    </contour>
    <contour>
      <point x="318" y="600" type="line" smooth="yes"/>
      <point x="325" y="627"/>
      <point x="341" y="638"/>
      <point x="373" y="638" type="curve" smooth="yes"/>
      <point x="484" y="638"/>
      <point x="538" y="579"/>
      <point x="538" y="457" type="curve" smooth="yes"/>
      <point x="538" y="343"/>
      <point x="504" y="224"/>
      <point x="450" y="147" type="curve" smooth="yes"/>
      <point x="397" y="71"/>
      <point x="326" y="34"/>
      <point x="231" y="34" type="curve" smooth="yes"/>
      <point x="194" y="34"/>
      <point x="177" y="45"/>
      <point x="177" y="68" type="curve" smooth="yes"/>
      <point x="177" y="80"/>
      <point x="180" y="96"/>
      <point x="189" y="122" type="curve"/>
      <point x="189" y="124"/>
      <point x="190" y="126"/>
      <point x="190" y="126" type="curve"/>
    </contour>
    <contour>
      <point x="606" y="900" type="line"/>
      <point x="550" y="900" type="line"/>
      <point x="415" y="803" type="line"/>
      <point x="324" y="900" type="line"/>
      <point x="274" y="900" type="line"/>
      <point x="362" y="726" type="line"/>
      <point x="444" y="726" type="line"/>
    </contour>
  </outline>
</glyph>
